G04*
G04 #@! TF.GenerationSoftware,Altium Limited,Altium Designer,21.6.4 (81)*
G04*
G04 Layer_Color=128*
%FSLAX25Y25*%
%MOIN*%
G70*
G04*
G04 #@! TF.SameCoordinates,B0EADD32-72DF-464D-AA4A-4A4E6069522B*
G04*
G04*
G04 #@! TF.FilePolarity,Positive*
G04*
G01*
G75*
%ADD17C,0.00500*%
%ADD18C,0.03000*%
%ADD23R,0.04543X0.07299*%
%ADD24R,0.04937X0.04150*%
%ADD27R,0.06118X0.03756*%
%ADD28R,0.03756X0.06118*%
D17*
X78000Y45000D02*
X148000D01*
Y18000D02*
Y45000D01*
X78000Y18000D02*
X148000D01*
X78000D02*
Y45000D01*
X328000Y56000D02*
Y57000D01*
Y58000D01*
Y59000D02*
X329000D01*
Y57000D02*
Y58000D01*
Y55000D02*
Y56000D01*
X327000Y55000D02*
X328000D01*
X327000Y56000D02*
Y57000D01*
Y58000D02*
Y59000D01*
D18*
X328000Y41000D02*
Y53000D01*
Y61000D02*
Y73000D01*
D23*
X405866Y99260D02*
D03*
X417284D02*
D03*
X405866Y77020D02*
D03*
X417284D02*
D03*
D24*
X414793Y91340D02*
D03*
X408356D02*
D03*
Y84500D02*
D03*
X414793D02*
D03*
X414793Y113610D02*
D03*
X408357D02*
D03*
X414793Y69300D02*
D03*
X408357D02*
D03*
X408356Y107530D02*
D03*
X414793D02*
D03*
X414793Y119550D02*
D03*
X408357D02*
D03*
D27*
X357110Y118310D02*
D03*
Y110830D02*
D03*
X365130Y110870D02*
D03*
Y118350D02*
D03*
X373660Y110800D02*
D03*
Y118280D02*
D03*
D28*
X408560Y62390D02*
D03*
X416040D02*
D03*
M02*
