G04*
G04 #@! TF.GenerationSoftware,Altium Limited,Altium Designer,21.6.4 (81)*
G04*
G04 Layer_Color=8388736*
%FSLAX25Y25*%
%MOIN*%
G70*
G04*
G04 #@! TF.SameCoordinates,B0EADD32-72DF-464D-AA4A-4A4E6069522B*
G04*
G04*
G04 #@! TF.FilePolarity,Negative*
G04*
G01*
G75*
%ADD17C,0.00500*%
%ADD18C,0.03000*%
%ADD55R,0.05630X0.05630*%
%ADD56R,0.08268X0.03937*%
%ADD57R,0.03937X0.08268*%
%ADD58R,0.09252X0.02362*%
%ADD59R,0.03937X0.06693*%
%ADD60R,0.04331X0.03543*%
%ADD61R,0.05118X0.01575*%
%ADD62R,0.02756X0.05748*%
%ADD63R,0.05512X0.03150*%
%ADD64R,0.03150X0.05512*%
%ADD65R,0.05118X0.06693*%
%ADD66R,0.13386X0.06693*%
%ADD67R,0.01575X0.05118*%
%ADD68R,0.03543X0.04724*%
%ADD69R,0.07874X0.07480*%
%ADD70R,0.08661X0.06693*%
%ADD71R,0.01968X0.05709*%
%ADD72R,0.05315X0.06693*%
%ADD73R,0.03543X0.04331*%
%ADD74R,0.13386X0.17717*%
%ADD75R,0.15748X0.24803*%
%ADD76R,0.05039X0.02677*%
%ADD77R,0.08268X0.04724*%
%ADD78R,0.05118X0.06496*%
%ADD79R,0.04724X0.02756*%
%ADD80R,0.04331X0.02362*%
%ADD81R,0.02362X0.09252*%
%ADD82R,0.12205X0.08268*%
%ADD83R,0.08740X0.09252*%
%ADD84R,0.04724X0.03543*%
%ADD85R,0.24803X0.15748*%
%ADD86R,0.06693X0.06693*%
%ADD87R,0.17717X0.13386*%
%ADD88R,0.05512X0.13780*%
%ADD89R,0.06299X0.03150*%
%ADD90R,0.03543X0.04331*%
%ADD91C,0.01575*%
%ADD92C,0.12205*%
%ADD93C,0.04331*%
%ADD94O,0.07087X0.05118*%
%ADD95C,0.08268*%
%ADD96C,0.08661*%
%ADD97O,0.16142X0.08268*%
%ADD98O,0.08268X0.16142*%
%ADD99O,0.14567X0.07480*%
%ADD100O,0.05118X0.07087*%
%ADD101O,0.07480X0.14567*%
%ADD102C,0.00394*%
%ADD103C,0.02362*%
%ADD104C,0.02756*%
%ADD105C,0.02972*%
D17*
X78000Y45000D02*
X148000D01*
Y18000D02*
Y45000D01*
X78000Y18000D02*
X148000D01*
X78000D02*
Y45000D01*
X328000Y56000D02*
Y57000D01*
Y58000D01*
Y59000D02*
X329000D01*
Y57000D02*
Y58000D01*
Y55000D02*
Y56000D01*
X327000Y55000D02*
X328000D01*
X327000Y56000D02*
Y57000D01*
Y58000D02*
Y59000D01*
D18*
X328000Y41000D02*
Y53000D01*
Y61000D02*
Y73000D01*
D55*
X109388Y84449D02*
D03*
X116612D02*
D03*
X123837D02*
D03*
X109388Y77224D02*
D03*
X116612D02*
D03*
X123837D02*
D03*
X109388Y70000D02*
D03*
X116612D02*
D03*
X123837D02*
D03*
D56*
X79211Y47697D02*
D03*
X146140D02*
D03*
X79211Y52697D02*
D03*
Y57697D02*
D03*
Y62697D02*
D03*
Y67697D02*
D03*
Y72697D02*
D03*
Y77697D02*
D03*
Y82697D02*
D03*
Y87697D02*
D03*
Y92697D02*
D03*
Y97697D02*
D03*
Y102697D02*
D03*
Y107697D02*
D03*
Y112697D02*
D03*
X146140D02*
D03*
Y107697D02*
D03*
Y102697D02*
D03*
Y97697D02*
D03*
Y92697D02*
D03*
Y87697D02*
D03*
Y82697D02*
D03*
Y77697D02*
D03*
Y72697D02*
D03*
Y67697D02*
D03*
Y62697D02*
D03*
Y57697D02*
D03*
Y52697D02*
D03*
D57*
X135175Y116634D02*
D03*
X90175D02*
D03*
X95175D02*
D03*
X100175D02*
D03*
X105175D02*
D03*
X110175D02*
D03*
X115175D02*
D03*
X120175D02*
D03*
X125175D02*
D03*
X130175D02*
D03*
D58*
X253467Y87980D02*
D03*
Y82980D02*
D03*
Y77980D02*
D03*
Y72980D02*
D03*
X271774D02*
D03*
Y77980D02*
D03*
Y82980D02*
D03*
Y87980D02*
D03*
X40748Y93717D02*
D03*
Y98716D02*
D03*
X59055Y88717D02*
D03*
Y93717D02*
D03*
Y98716D02*
D03*
Y103717D02*
D03*
X40748D02*
D03*
Y88717D02*
D03*
D59*
X406151Y33051D02*
D03*
X417569D02*
D03*
D60*
X229253Y110170D02*
D03*
X229073Y115040D02*
D03*
X381471Y14600D02*
D03*
X387909D02*
D03*
X381602Y8950D02*
D03*
X388038D02*
D03*
X438932Y92330D02*
D03*
X445368D02*
D03*
X438923Y85810D02*
D03*
X445360D02*
D03*
X445938Y101830D02*
D03*
X439501D02*
D03*
X446038Y106790D02*
D03*
X439602D02*
D03*
X235510Y115040D02*
D03*
X235690Y110170D02*
D03*
X183589Y67890D02*
D03*
X177152D02*
D03*
X372742Y92820D02*
D03*
X379179D02*
D03*
X143719Y128670D02*
D03*
X137282D02*
D03*
X45281Y79000D02*
D03*
X51718D02*
D03*
X437401Y58140D02*
D03*
X443839D02*
D03*
X372490Y14740D02*
D03*
X366053D02*
D03*
X50282Y21200D02*
D03*
X56718D02*
D03*
X143410Y157280D02*
D03*
X136973D02*
D03*
X266181Y252720D02*
D03*
X272619D02*
D03*
X223410Y252270D02*
D03*
X216973D02*
D03*
X31319Y61500D02*
D03*
X24882D02*
D03*
X31218Y66200D02*
D03*
X24781D02*
D03*
X56718Y26900D02*
D03*
X50282D02*
D03*
D61*
X218765Y112826D02*
D03*
Y114795D02*
D03*
Y120700D02*
D03*
Y116763D02*
D03*
Y110857D02*
D03*
Y108889D02*
D03*
Y106921D02*
D03*
Y104952D02*
D03*
Y102983D02*
D03*
Y101015D02*
D03*
Y99046D02*
D03*
X185300Y120700D02*
D03*
Y99046D02*
D03*
Y101015D02*
D03*
Y102983D02*
D03*
Y104952D02*
D03*
Y108889D02*
D03*
Y110857D02*
D03*
Y112826D02*
D03*
Y114795D02*
D03*
Y116763D02*
D03*
Y118731D02*
D03*
X218765D02*
D03*
X185300Y106921D02*
D03*
D62*
X313300Y48714D02*
D03*
X309560D02*
D03*
X305820D02*
D03*
Y57966D02*
D03*
X309560D02*
D03*
X313300D02*
D03*
D63*
X381460Y20870D02*
D03*
Y28350D02*
D03*
X390310Y20710D02*
D03*
Y28190D02*
D03*
X281080Y72000D02*
D03*
Y79480D02*
D03*
X287800Y71970D02*
D03*
Y79450D02*
D03*
X227000Y227240D02*
D03*
Y219760D02*
D03*
X218500D02*
D03*
Y227240D02*
D03*
X210000Y219760D02*
D03*
Y227240D02*
D03*
X166030Y101150D02*
D03*
Y108630D02*
D03*
X24500Y123740D02*
D03*
X126700Y198716D02*
D03*
X136684D02*
D03*
X24500Y116260D02*
D03*
X126700Y191235D02*
D03*
X136684D02*
D03*
D64*
X438650Y78560D02*
D03*
X446130D02*
D03*
X49620Y15200D02*
D03*
X57100D02*
D03*
X438210Y121560D02*
D03*
X445690D02*
D03*
X438230Y115220D02*
D03*
X445710D02*
D03*
X192200Y162400D02*
D03*
X199680D02*
D03*
X199580Y169000D02*
D03*
X192100D02*
D03*
X204320Y169400D02*
D03*
X211800D02*
D03*
X192200Y155500D02*
D03*
X199680D02*
D03*
X211800Y155300D02*
D03*
X204320D02*
D03*
X211800Y162500D02*
D03*
X204320D02*
D03*
X297210Y146030D02*
D03*
X289730D02*
D03*
X297330Y139610D02*
D03*
X289850D02*
D03*
X372230Y87220D02*
D03*
X379710D02*
D03*
X415600Y73810D02*
D03*
X408120D02*
D03*
Y55170D02*
D03*
X415600D02*
D03*
X285680Y45900D02*
D03*
X278200D02*
D03*
X156920Y39400D02*
D03*
X156960Y46600D02*
D03*
X187300Y182040D02*
D03*
X187240Y191590D02*
D03*
X164400Y39400D02*
D03*
X156760Y31800D02*
D03*
X164240D02*
D03*
X164440Y46600D02*
D03*
X179820Y182040D02*
D03*
X179760Y191590D02*
D03*
D65*
X167555Y173402D02*
D03*
X149445D02*
D03*
X158500D02*
D03*
D66*
Y198598D02*
D03*
D67*
X191206Y126605D02*
D03*
X195142D02*
D03*
X197111D02*
D03*
X199080D02*
D03*
X201048D02*
D03*
X203016D02*
D03*
X204985D02*
D03*
X206954D02*
D03*
X208922D02*
D03*
X210891D02*
D03*
X212859D02*
D03*
Y93141D02*
D03*
X208922D02*
D03*
X206954D02*
D03*
X204985D02*
D03*
X203016D02*
D03*
X201048D02*
D03*
X199080D02*
D03*
X197111D02*
D03*
X195142D02*
D03*
X193174D02*
D03*
X191206D02*
D03*
X193174Y126605D02*
D03*
X210891Y93141D02*
D03*
D68*
X281800Y60921D02*
D03*
X285540Y53479D02*
D03*
X278060D02*
D03*
X170940Y68120D02*
D03*
X167200Y60680D02*
D03*
X163460Y68120D02*
D03*
X263260Y259559D02*
D03*
X270740D02*
D03*
X267000Y267000D02*
D03*
X437660Y43339D02*
D03*
X445140D02*
D03*
X441400Y50780D02*
D03*
X248900Y138600D02*
D03*
X245160Y146041D02*
D03*
X252640D02*
D03*
X282000Y266721D02*
D03*
X285740Y259279D02*
D03*
X278260D02*
D03*
X217760Y266441D02*
D03*
X221500Y259000D02*
D03*
X214020D02*
D03*
X232740Y266441D02*
D03*
X236480Y259000D02*
D03*
X229000D02*
D03*
D69*
X307063Y11500D02*
D03*
X277141D02*
D03*
D70*
X304307Y22238D02*
D03*
X279897D02*
D03*
D71*
X286984Y22720D02*
D03*
X289543D02*
D03*
X292102D02*
D03*
X294661D02*
D03*
X297220D02*
D03*
D72*
X144351Y135846D02*
D03*
Y150414D02*
D03*
X135689Y135846D02*
D03*
Y150414D02*
D03*
D73*
X150390Y139971D02*
D03*
Y146408D02*
D03*
X201550Y72501D02*
D03*
Y78939D02*
D03*
X235570Y77842D02*
D03*
Y84279D02*
D03*
X230420Y84109D02*
D03*
Y77671D02*
D03*
X372810Y21231D02*
D03*
Y27668D02*
D03*
X195850Y72512D02*
D03*
Y78948D02*
D03*
X190880Y79018D02*
D03*
Y72581D02*
D03*
X349080Y20932D02*
D03*
Y27369D02*
D03*
X431170Y43420D02*
D03*
Y49857D02*
D03*
X311590Y146650D02*
D03*
Y153087D02*
D03*
X304950Y146720D02*
D03*
Y153157D02*
D03*
X159790Y108299D02*
D03*
Y101862D02*
D03*
X278200Y253018D02*
D03*
Y246582D02*
D03*
X228900Y245563D02*
D03*
Y252000D02*
D03*
X170290Y46448D02*
D03*
Y40012D02*
D03*
D74*
X232453Y59736D02*
D03*
D75*
X255287Y24500D02*
D03*
X204500D02*
D03*
D76*
X403305Y118090D02*
D03*
Y113090D02*
D03*
Y108090D02*
D03*
Y103090D02*
D03*
Y98090D02*
D03*
Y93090D02*
D03*
Y88090D02*
D03*
X424250Y118090D02*
D03*
Y113090D02*
D03*
Y108090D02*
D03*
Y103090D02*
D03*
Y98090D02*
D03*
Y93090D02*
D03*
Y88090D02*
D03*
D77*
X230500Y206500D02*
D03*
Y196500D02*
D03*
Y186500D02*
D03*
Y176500D02*
D03*
Y166500D02*
D03*
D78*
X90244Y172177D02*
D03*
Y206823D02*
D03*
X110756D02*
D03*
Y172177D02*
D03*
D79*
X366108Y20300D02*
D03*
Y24040D02*
D03*
Y27780D02*
D03*
X355872D02*
D03*
Y20300D02*
D03*
D80*
X310380Y97825D02*
D03*
Y93495D02*
D03*
D81*
X295100Y105347D02*
D03*
X300100D02*
D03*
X305100D02*
D03*
X310100D02*
D03*
Y123653D02*
D03*
X305100D02*
D03*
X300100D02*
D03*
X295100D02*
D03*
D82*
X38091Y123776D02*
D03*
X61713D02*
D03*
D83*
X18200Y105202D02*
D03*
Y87998D02*
D03*
D84*
X56721Y39740D02*
D03*
X49279Y36000D02*
D03*
X56721Y32260D02*
D03*
D85*
X25744Y213394D02*
D03*
Y162606D02*
D03*
D86*
X77000Y186000D02*
D03*
Y171827D02*
D03*
D87*
X60980Y185441D02*
D03*
D88*
X54268Y67000D02*
D03*
X46000D02*
D03*
D89*
X15390Y72858D02*
D03*
Y61047D02*
D03*
Y55142D02*
D03*
D90*
X12437Y49630D02*
D03*
Y78370D02*
D03*
X4563Y49630D02*
D03*
Y78370D02*
D03*
D91*
X113000Y84449D02*
D03*
X120224D02*
D03*
X109388Y80837D02*
D03*
X116612D02*
D03*
X123837D02*
D03*
X113000Y77224D02*
D03*
X120224D02*
D03*
X109388Y73612D02*
D03*
X116612D02*
D03*
X123837D02*
D03*
X113000Y70000D02*
D03*
X120224D02*
D03*
D92*
X214500Y369000D02*
D03*
X194500D02*
D03*
X264000D02*
D03*
X244000D02*
D03*
X23500Y371000D02*
D03*
Y351000D02*
D03*
D93*
X365363Y69907D02*
D03*
X379537D02*
D03*
Y55733D02*
D03*
D94*
X343550Y117821D02*
D03*
Y111916D02*
D03*
Y106010D02*
D03*
Y100104D02*
D03*
Y94199D02*
D03*
Y88293D02*
D03*
D95*
X44445Y361500D02*
D03*
X162555D02*
D03*
X257358Y113800D02*
D03*
X277043D02*
D03*
X24158Y308500D02*
D03*
X25000Y258500D02*
D03*
X43843Y308500D02*
D03*
X44685Y258500D02*
D03*
X25000Y36342D02*
D03*
Y16657D02*
D03*
X90445Y318240D02*
D03*
X169185D02*
D03*
X149500Y239500D02*
D03*
X110130D02*
D03*
D96*
X229894Y9539D02*
D03*
X215000Y278500D02*
D03*
X245000D02*
D03*
X215000Y318500D02*
D03*
X245000Y338500D02*
D03*
X215000Y348500D02*
D03*
X258600Y278700D02*
D03*
X288600D02*
D03*
X258600Y318700D02*
D03*
X288600Y338700D02*
D03*
X258600Y348700D02*
D03*
X10784Y188000D02*
D03*
D97*
X229894Y27256D02*
D03*
X41098Y169102D02*
D03*
D98*
X248791Y39854D02*
D03*
X28500Y188000D02*
D03*
D99*
X225563Y52059D02*
D03*
D100*
X270028Y221800D02*
D03*
X264122D02*
D03*
X258217D02*
D03*
X252311D02*
D03*
X246406D02*
D03*
X240500D02*
D03*
D101*
X53303Y192331D02*
D03*
D102*
X8500Y69906D02*
D03*
Y58095D02*
D03*
D103*
X188190Y65220D02*
D03*
X313550Y81954D02*
D03*
X247300Y100280D02*
D03*
X313550Y78986D02*
D03*
X245201Y98181D02*
D03*
X423090Y49780D02*
D03*
X400700Y20760D02*
D03*
X395540Y93090D02*
D03*
Y102720D02*
D03*
X395740Y108120D02*
D03*
X395470Y113120D02*
D03*
X395610Y117860D02*
D03*
X438640Y71320D02*
D03*
X432670Y111880D02*
D03*
X194755Y137808D02*
D03*
X189250Y137819D02*
D03*
X237420Y244380D02*
D03*
X209740Y71820D02*
D03*
X197070Y65240D02*
D03*
X191830Y65210D02*
D03*
X232364Y95640D02*
D03*
X225030Y84150D02*
D03*
X216480Y76890D02*
D03*
X209740Y76800D02*
D03*
X209620Y82440D02*
D03*
X238160Y95860D02*
D03*
X173530Y99046D02*
D03*
X65540Y67930D02*
D03*
X65430Y62680D02*
D03*
X184142Y85091D02*
D03*
X216160Y137819D02*
D03*
X199300D02*
D03*
X205690D02*
D03*
X210610D02*
D03*
X267660Y209880D02*
D03*
X282260Y166690D02*
D03*
X290490Y167070D02*
D03*
X260020Y209510D02*
D03*
X316730Y123080D02*
D03*
X310870Y139490D02*
D03*
X252080Y209190D02*
D03*
X155900Y124500D02*
D03*
X258000Y250820D02*
D03*
X64300Y21100D02*
D03*
X27300Y72400D02*
D03*
D104*
X314210Y87420D02*
D03*
X310670Y87330D02*
D03*
X307220Y87300D02*
D03*
X182320Y14760D02*
D03*
X182370Y10630D02*
D03*
X182420Y6870D02*
D03*
X10040Y135660D02*
D03*
X10120Y139540D02*
D03*
X10190Y143160D02*
D03*
X157900Y217460D02*
D03*
X154750D02*
D03*
X151780Y217400D02*
D03*
X289250Y221420D02*
D03*
X286760Y221370D02*
D03*
X284450Y221420D02*
D03*
X98310Y143850D02*
D03*
X95970D02*
D03*
X93750D02*
D03*
X65618Y146370D02*
D03*
X65620Y142252D02*
D03*
X61370D02*
D03*
X57250D02*
D03*
X156820Y21530D02*
D03*
X156750Y25390D02*
D03*
X66770Y39460D02*
D03*
X66930Y34330D02*
D03*
X211960Y179710D02*
D03*
X293680Y244690D02*
D03*
X293510Y248580D02*
D03*
X293340Y251960D02*
D03*
X283450Y138360D02*
D03*
X268640Y61400D02*
D03*
Y65440D02*
D03*
Y43880D02*
D03*
X232540Y131700D02*
D03*
X229140Y131800D02*
D03*
X66420Y11940D02*
D03*
X7100Y105310D02*
D03*
X180790Y168650D02*
D03*
Y171870D02*
D03*
Y175540D02*
D03*
X229110Y145880D02*
D03*
X236170Y146030D02*
D03*
X295550Y79730D02*
D03*
X309450Y64860D02*
D03*
X395500Y80290D02*
D03*
X395540Y84750D02*
D03*
X390700Y34350D02*
D03*
X359950Y35260D02*
D03*
X366160Y35380D02*
D03*
X384750Y118650D02*
D03*
X380470Y118580D02*
D03*
X342520Y11540D02*
D03*
Y16050D02*
D03*
X445230Y36330D02*
D03*
X384430Y111540D02*
D03*
X380720Y111500D02*
D03*
X446260Y71520D02*
D03*
X445620Y97440D02*
D03*
X269240Y18430D02*
D03*
X132400Y176300D02*
D03*
X132440Y170100D02*
D03*
X169180Y17680D02*
D03*
X164220Y17570D02*
D03*
X243560Y90230D02*
D03*
Y83080D02*
D03*
X243650Y73310D02*
D03*
X298160Y152980D02*
D03*
X54600Y48100D02*
D03*
X54500Y55800D02*
D03*
X9400Y118300D02*
D03*
X14400D02*
D03*
X64300Y189500D02*
D03*
X75000Y193900D02*
D03*
X71500D02*
D03*
X67900D02*
D03*
X64200D02*
D03*
D105*
X309660Y40930D02*
D03*
M02*
