G04*
G04 #@! TF.GenerationSoftware,Altium Limited,Altium Designer,21.6.4 (81)*
G04*
G04 Layer_Color=16711935*
%FSLAX25Y25*%
%MOIN*%
G70*
G04*
G04 #@! TF.SameCoordinates,B0EADD32-72DF-464D-AA4A-4A4E6069522B*
G04*
G04*
G04 #@! TF.FilePolarity,Negative*
G04*
G01*
G75*
%ADD17C,0.00500*%
%ADD18C,0.03000*%
%ADD59R,0.03937X0.06693*%
%ADD60R,0.04331X0.03543*%
%ADD63R,0.05512X0.03150*%
%ADD64R,0.03150X0.05512*%
%ADD91C,0.01575*%
%ADD92C,0.12205*%
%ADD93C,0.04331*%
%ADD94O,0.07087X0.05118*%
%ADD95C,0.08268*%
%ADD96C,0.08661*%
%ADD97O,0.16142X0.08268*%
%ADD98O,0.08268X0.16142*%
%ADD99O,0.14567X0.07480*%
%ADD100O,0.05118X0.07087*%
%ADD101O,0.07480X0.14567*%
%ADD102C,0.00394*%
%ADD103C,0.02362*%
%ADD104C,0.02756*%
%ADD105C,0.02972*%
D17*
X78000Y45000D02*
X148000D01*
Y18000D02*
Y45000D01*
X78000Y18000D02*
X148000D01*
X78000D02*
Y45000D01*
X328000Y56000D02*
Y57000D01*
Y58000D01*
Y59000D02*
X329000D01*
Y57000D02*
Y58000D01*
Y55000D02*
Y56000D01*
X327000Y55000D02*
X328000D01*
X327000Y56000D02*
Y57000D01*
Y58000D02*
Y59000D01*
D18*
X328000Y41000D02*
Y53000D01*
Y61000D02*
Y73000D01*
D59*
X405866Y99260D02*
D03*
X417284D02*
D03*
X405866Y77020D02*
D03*
X417284D02*
D03*
D60*
X414793Y91340D02*
D03*
X408356D02*
D03*
Y84500D02*
D03*
X414793D02*
D03*
X414793Y113610D02*
D03*
X408357D02*
D03*
X414793Y69300D02*
D03*
X408357D02*
D03*
X408356Y107530D02*
D03*
X414793D02*
D03*
X414793Y119550D02*
D03*
X408357D02*
D03*
D63*
X357110Y118310D02*
D03*
Y110830D02*
D03*
X365130Y110870D02*
D03*
Y118350D02*
D03*
X373660Y110800D02*
D03*
Y118280D02*
D03*
D64*
X408560Y62390D02*
D03*
X416040D02*
D03*
D91*
X113000Y84449D02*
D03*
X120224D02*
D03*
X109388Y80837D02*
D03*
X116612D02*
D03*
X123837D02*
D03*
X113000Y77224D02*
D03*
X120224D02*
D03*
X109388Y73612D02*
D03*
X116612D02*
D03*
X123837D02*
D03*
X113000Y70000D02*
D03*
X120224D02*
D03*
D92*
X214500Y369000D02*
D03*
X194500D02*
D03*
X264000D02*
D03*
X244000D02*
D03*
X23500Y371000D02*
D03*
Y351000D02*
D03*
D93*
X365363Y69907D02*
D03*
X379537D02*
D03*
Y55733D02*
D03*
D94*
X343550Y117821D02*
D03*
Y111916D02*
D03*
Y106010D02*
D03*
Y100104D02*
D03*
Y94199D02*
D03*
Y88293D02*
D03*
D95*
X44445Y361500D02*
D03*
X162555D02*
D03*
X257358Y113800D02*
D03*
X277043D02*
D03*
X24158Y308500D02*
D03*
X25000Y258500D02*
D03*
X43843Y308500D02*
D03*
X44685Y258500D02*
D03*
X25000Y36342D02*
D03*
Y16657D02*
D03*
X90445Y318240D02*
D03*
X169185D02*
D03*
X149500Y239500D02*
D03*
X110130D02*
D03*
D96*
X229894Y9539D02*
D03*
X215000Y278500D02*
D03*
X245000D02*
D03*
X215000Y318500D02*
D03*
X245000Y338500D02*
D03*
X215000Y348500D02*
D03*
X258600Y278700D02*
D03*
X288600D02*
D03*
X258600Y318700D02*
D03*
X288600Y338700D02*
D03*
X258600Y348700D02*
D03*
X10784Y188000D02*
D03*
D97*
X229894Y27256D02*
D03*
X41098Y169102D02*
D03*
D98*
X248791Y39854D02*
D03*
X28500Y188000D02*
D03*
D99*
X225563Y52059D02*
D03*
D100*
X270028Y221800D02*
D03*
X264122D02*
D03*
X258217D02*
D03*
X252311D02*
D03*
X246406D02*
D03*
X240500D02*
D03*
D101*
X53303Y192331D02*
D03*
D102*
X8500Y69906D02*
D03*
Y58095D02*
D03*
D103*
X188190Y65220D02*
D03*
X313550Y81954D02*
D03*
X247300Y100280D02*
D03*
X313550Y78986D02*
D03*
X245201Y98181D02*
D03*
X423090Y49780D02*
D03*
X400700Y20760D02*
D03*
X395540Y93090D02*
D03*
Y102720D02*
D03*
X395740Y108120D02*
D03*
X395470Y113120D02*
D03*
X395610Y117860D02*
D03*
X438640Y71320D02*
D03*
X432670Y111880D02*
D03*
X194755Y137808D02*
D03*
X189250Y137819D02*
D03*
X237420Y244380D02*
D03*
X209740Y71820D02*
D03*
X197070Y65240D02*
D03*
X191830Y65210D02*
D03*
X232364Y95640D02*
D03*
X225030Y84150D02*
D03*
X216480Y76890D02*
D03*
X209740Y76800D02*
D03*
X209620Y82440D02*
D03*
X238160Y95860D02*
D03*
X173530Y99046D02*
D03*
X65540Y67930D02*
D03*
X65430Y62680D02*
D03*
X184142Y85091D02*
D03*
X216160Y137819D02*
D03*
X199300D02*
D03*
X205690D02*
D03*
X210610D02*
D03*
X267660Y209880D02*
D03*
X282260Y166690D02*
D03*
X290490Y167070D02*
D03*
X260020Y209510D02*
D03*
X316730Y123080D02*
D03*
X310870Y139490D02*
D03*
X252080Y209190D02*
D03*
X155900Y124500D02*
D03*
X258000Y250820D02*
D03*
X64300Y21100D02*
D03*
X27300Y72400D02*
D03*
D104*
X314210Y87420D02*
D03*
X310670Y87330D02*
D03*
X307220Y87300D02*
D03*
X182320Y14760D02*
D03*
X182370Y10630D02*
D03*
X182420Y6870D02*
D03*
X10040Y135660D02*
D03*
X10120Y139540D02*
D03*
X10190Y143160D02*
D03*
X157900Y217460D02*
D03*
X154750D02*
D03*
X151780Y217400D02*
D03*
X289250Y221420D02*
D03*
X286760Y221370D02*
D03*
X284450Y221420D02*
D03*
X98310Y143850D02*
D03*
X95970D02*
D03*
X93750D02*
D03*
X65618Y146370D02*
D03*
X65620Y142252D02*
D03*
X61370D02*
D03*
X57250D02*
D03*
X156820Y21530D02*
D03*
X156750Y25390D02*
D03*
X66770Y39460D02*
D03*
X66930Y34330D02*
D03*
X211960Y179710D02*
D03*
X293680Y244690D02*
D03*
X293510Y248580D02*
D03*
X293340Y251960D02*
D03*
X283450Y138360D02*
D03*
X268640Y61400D02*
D03*
Y65440D02*
D03*
Y43880D02*
D03*
X232540Y131700D02*
D03*
X229140Y131800D02*
D03*
X66420Y11940D02*
D03*
X7100Y105310D02*
D03*
X180790Y168650D02*
D03*
Y171870D02*
D03*
Y175540D02*
D03*
X229110Y145880D02*
D03*
X236170Y146030D02*
D03*
X295550Y79730D02*
D03*
X309450Y64860D02*
D03*
X395500Y80290D02*
D03*
X395540Y84750D02*
D03*
X390700Y34350D02*
D03*
X359950Y35260D02*
D03*
X366160Y35380D02*
D03*
X384750Y118650D02*
D03*
X380470Y118580D02*
D03*
X342520Y11540D02*
D03*
Y16050D02*
D03*
X445230Y36330D02*
D03*
X384430Y111540D02*
D03*
X380720Y111500D02*
D03*
X446260Y71520D02*
D03*
X445620Y97440D02*
D03*
X269240Y18430D02*
D03*
X132400Y176300D02*
D03*
X132440Y170100D02*
D03*
X169180Y17680D02*
D03*
X164220Y17570D02*
D03*
X243560Y90230D02*
D03*
Y83080D02*
D03*
X243650Y73310D02*
D03*
X298160Y152980D02*
D03*
X54600Y48100D02*
D03*
X54500Y55800D02*
D03*
X9400Y118300D02*
D03*
X14400D02*
D03*
X64300Y189500D02*
D03*
X75000Y193900D02*
D03*
X71500D02*
D03*
X67900D02*
D03*
X64200D02*
D03*
D105*
X309660Y40930D02*
D03*
M02*
