G04*
G04 #@! TF.GenerationSoftware,Altium Limited,Altium Designer,21.6.4 (81)*
G04*
G04 Layer_Physical_Order=1*
G04 Layer_Color=255*
%FSLAX25Y25*%
%MOIN*%
G70*
G04*
G04 #@! TF.SameCoordinates,B0EADD32-72DF-464D-AA4A-4A4E6069522B*
G04*
G04*
G04 #@! TF.FilePolarity,Positive*
G04*
G01*
G75*
%ADD15C,0.01000*%
%ADD17C,0.00500*%
%ADD18C,0.03000*%
%ADD80R,0.04331X0.02362*%
%ADD95C,0.08268*%
%ADD103C,0.02362*%
%ADD106C,0.02000*%
%ADD107C,0.05000*%
%ADD108R,0.05236X0.05236*%
%ADD109R,0.07874X0.03543*%
%ADD110R,0.03543X0.07874*%
%ADD111R,0.08858X0.01968*%
%ADD112R,0.03543X0.06299*%
%ADD113R,0.03937X0.03150*%
%ADD114R,0.04724X0.01181*%
%ADD115R,0.02362X0.05354*%
%ADD116R,0.05118X0.02756*%
%ADD117R,0.02756X0.05118*%
%ADD118R,0.04724X0.06299*%
%ADD119R,0.12992X0.06299*%
%ADD120R,0.01181X0.04724*%
%ADD121R,0.03150X0.04331*%
%ADD122R,0.07480X0.07087*%
%ADD123R,0.08268X0.06299*%
%ADD124R,0.01575X0.05315*%
%ADD125R,0.04921X0.06299*%
%ADD126R,0.03150X0.03937*%
%ADD127R,0.12992X0.17323*%
%ADD128R,0.15354X0.24410*%
%ADD129R,0.04646X0.02284*%
%ADD130R,0.07874X0.04331*%
%ADD131R,0.04724X0.06102*%
%ADD132R,0.03937X0.01968*%
%ADD133R,0.01968X0.08858*%
%ADD134R,0.11811X0.07874*%
%ADD135R,0.08346X0.08858*%
%ADD136R,0.04331X0.03150*%
%ADD137R,0.24410X0.15354*%
%ADD138R,0.06299X0.06299*%
%ADD139R,0.17323X0.12992*%
%ADD140R,0.05118X0.13386*%
%ADD141R,0.05906X0.02756*%
%ADD142R,0.03150X0.03937*%
%ADD143C,0.01470*%
%ADD144C,0.01200*%
%ADD145C,0.07000*%
%ADD146C,0.01181*%
%ADD147C,0.11811*%
%ADD148C,0.03937*%
%ADD149O,0.06693X0.04724*%
%ADD150C,0.07874*%
%ADD151O,0.15748X0.07874*%
%ADD152O,0.07874X0.15748*%
%ADD153O,0.14173X0.07087*%
%ADD154O,0.04724X0.06693*%
%ADD155O,0.07087X0.14173*%
%ADD156C,0.01968*%
%ADD157C,0.02579*%
G36*
X284110Y265130D02*
X274530D01*
Y257405D01*
X271220D01*
Y265115D01*
X271205Y265130D01*
Y266188D01*
X271190Y266305D01*
X271205Y266320D01*
Y269050D01*
X284110D01*
Y265130D01*
D02*
G37*
G36*
X264895Y261670D02*
Y257330D01*
X255995D01*
X255965Y257550D01*
Y258860D01*
Y261670D01*
X264630D01*
X264865Y261700D01*
X264895Y261670D01*
D02*
G37*
G36*
X215835Y261220D02*
Y256880D01*
X206935D01*
X206905Y257100D01*
Y258410D01*
Y261220D01*
X215570D01*
X215805Y261250D01*
X215835Y261220D01*
D02*
G37*
G36*
X234350Y264540D02*
X224770D01*
Y256815D01*
X221460D01*
Y264525D01*
X221445Y264540D01*
Y265598D01*
X221430Y265715D01*
X221445Y265730D01*
Y268460D01*
X234350D01*
Y264540D01*
D02*
G37*
G36*
X279790Y251910D02*
X279760Y251880D01*
Y251080D01*
X270620D01*
Y254130D01*
X276450D01*
X276590Y254270D01*
X276710Y254390D01*
X276750Y254350D01*
X276740Y261490D01*
X279790D01*
Y251910D01*
D02*
G37*
G36*
X230520Y251560D02*
X230490Y251530D01*
Y250730D01*
X221350D01*
Y253780D01*
X227180D01*
X227320Y253920D01*
X227440Y254040D01*
X227480Y254000D01*
X227470Y261140D01*
X230520D01*
Y251560D01*
D02*
G37*
G36*
X29730Y213894D02*
X39449D01*
Y222571D01*
X30648D01*
Y239970D01*
X39307D01*
X50962Y199678D01*
X50134Y199043D01*
X49422Y198115D01*
X48974Y197034D01*
X48821Y195874D01*
Y188787D01*
X48974Y187627D01*
X49422Y186547D01*
X50134Y185618D01*
X51062Y184906D01*
X51419Y184758D01*
Y178045D01*
X70542D01*
Y181314D01*
X80406Y181382D01*
X80406Y181382D01*
X80406Y181382D01*
X80535Y181409D01*
X80757Y181455D01*
X80757Y181455D01*
X80757Y181455D01*
X80877Y181536D01*
X81053Y181656D01*
X81053Y181656D01*
X81053Y181656D01*
X81148Y181799D01*
X81250Y181955D01*
X81250Y181955D01*
X81250Y181955D01*
X81284Y182133D01*
X81318Y182306D01*
X81318Y182306D01*
X81318Y182307D01*
X81218Y196406D01*
X81182Y196579D01*
X81148Y196751D01*
X81146Y196754D01*
X81145Y196757D01*
X81046Y196903D01*
X80949Y197049D01*
X80946Y197051D01*
X80944Y197053D01*
X80797Y197150D01*
X80651Y197248D01*
X80648Y197248D01*
X80645Y197250D01*
X80472Y197283D01*
X80300Y197318D01*
X66754D01*
X55317Y239573D01*
X55620Y239970D01*
X103670D01*
X103862Y239508D01*
X87106Y222752D01*
X86401Y221833D01*
X85957Y220763D01*
X85806Y219614D01*
Y206823D01*
X85957Y205674D01*
X86401Y204604D01*
X86982Y203846D01*
Y202872D01*
X88285D01*
X89095Y202536D01*
X90244Y202385D01*
X91393Y202536D01*
X92203Y202872D01*
X93506D01*
Y203846D01*
X94087Y204604D01*
X94531Y205674D01*
X94682Y206823D01*
Y217776D01*
X111863Y234957D01*
X111997Y234993D01*
X113100Y235629D01*
X114000Y236530D01*
X114637Y237633D01*
X114967Y238863D01*
Y239970D01*
X138082D01*
Y235380D01*
X116120Y213418D01*
X104500D01*
X104149Y213348D01*
X103851Y213149D01*
X103652Y212851D01*
X103583Y212500D01*
X103582Y200354D01*
X103652Y200002D01*
X103851Y199705D01*
X104205Y199351D01*
X104502Y199152D01*
X104854Y199082D01*
X114000Y199082D01*
X114351Y199152D01*
X114649Y199351D01*
X145380Y230082D01*
X151500D01*
X151851Y230152D01*
X152149Y230351D01*
X158149Y236351D01*
X158348Y236649D01*
X158418Y237000D01*
Y239970D01*
X214212D01*
Y235090D01*
X214282Y234739D01*
X214481Y234441D01*
X214779Y234242D01*
X215130Y234172D01*
X243467D01*
Y225424D01*
X243041Y225121D01*
X242742Y225176D01*
X242145Y225634D01*
X241352Y225962D01*
X240500Y226075D01*
X239648Y225962D01*
X238855Y225634D01*
X238833Y225617D01*
X234785Y229665D01*
X234074Y230210D01*
X233247Y230553D01*
X232360Y230669D01*
X205941D01*
X205053Y230553D01*
X204226Y230210D01*
X203516Y229665D01*
X199658Y225807D01*
X199113Y225097D01*
X198771Y224270D01*
X198654Y223382D01*
Y178718D01*
X190178D01*
Y181540D01*
X188570D01*
Y179430D01*
X186041D01*
X186035Y181540D01*
X184422D01*
Y178718D01*
X182218D01*
Y179300D01*
X182196Y179410D01*
X182190Y179523D01*
X182118Y179813D01*
Y179984D01*
X182126Y180000D01*
X182137Y180129D01*
X182162Y180255D01*
X182152Y180306D01*
X182156Y180357D01*
X182117Y180480D01*
X182098Y180579D01*
Y185499D01*
X182018D01*
Y188131D01*
X182038D01*
Y191015D01*
X182053Y191090D01*
Y194370D01*
X182038Y194445D01*
Y195049D01*
X181739D01*
X181486Y195218D01*
X181135Y195288D01*
X166496D01*
Y196012D01*
X184032D01*
X184362Y195649D01*
Y192090D01*
X186006D01*
X185993Y196930D01*
X137184D01*
Y195838D01*
X140743D01*
Y196012D01*
X150504D01*
Y194013D01*
X150504Y193949D01*
X150350Y193513D01*
X140143D01*
Y193513D01*
X133225D01*
Y193513D01*
X130159D01*
Y193513D01*
X129607D01*
X129580Y193519D01*
X126000D01*
X125973Y193513D01*
X123241D01*
Y188958D01*
X125082D01*
Y175190D01*
X125152Y174839D01*
X125351Y174541D01*
X125649Y174342D01*
X126000Y174272D01*
X130156D01*
Y168720D01*
X130226Y168369D01*
X130425Y168071D01*
X130723Y167872D01*
X131074Y167802D01*
X133860D01*
X134211Y167872D01*
X134509Y168071D01*
X134708Y168369D01*
X134778Y168720D01*
Y178057D01*
X134708Y178408D01*
X134509Y178706D01*
X134211Y178905D01*
X133860Y178975D01*
X130498D01*
Y188767D01*
X146747D01*
Y177451D01*
X146183D01*
Y169352D01*
X152707D01*
Y177451D01*
X151493D01*
Y188828D01*
X151541Y188837D01*
X151839Y189036D01*
X152038Y189334D01*
X152108Y189685D01*
Y192595D01*
X152038Y192946D01*
X151839Y193244D01*
X151541Y193443D01*
X151511Y193449D01*
X151560Y193949D01*
X155242D01*
Y178051D01*
X154638D01*
Y173902D01*
X157070D01*
Y174880D01*
X160805D01*
Y173902D01*
X162362D01*
Y178051D01*
X161768D01*
Y193949D01*
X164153D01*
X164504Y193592D01*
X164178Y174606D01*
X164179Y174598D01*
X164177Y174590D01*
X164211Y174422D01*
X164241Y174253D01*
X164246Y174247D01*
X164247Y174239D01*
X164293Y174170D01*
Y169352D01*
X170817D01*
Y177451D01*
X170703D01*
Y190172D01*
X177482D01*
Y188131D01*
X177596D01*
Y185499D01*
X177542D01*
Y178581D01*
X177982D01*
Y174000D01*
X177992Y173950D01*
Y166940D01*
X178062Y166589D01*
X178261Y166291D01*
X178559Y166092D01*
X178910Y166022D01*
X182430D01*
X182781Y166092D01*
X183079Y166291D01*
X183278Y166589D01*
X183348Y166940D01*
Y172382D01*
X189222D01*
Y169500D01*
X190380D01*
Y171480D01*
X193540D01*
Y169500D01*
X194978D01*
Y172382D01*
X197282D01*
Y154700D01*
Y153100D01*
X197352Y152749D01*
X197402Y152674D01*
Y152041D01*
X197743D01*
Y148762D01*
X196398Y147417D01*
X183352D01*
X182610Y147270D01*
X181982Y146850D01*
X180810Y145678D01*
X180390Y145050D01*
X180243Y144308D01*
Y129190D01*
X180390Y128449D01*
X180810Y127820D01*
X185978Y122652D01*
X185786Y122191D01*
X182038D01*
Y119209D01*
Y115042D01*
X181576Y114851D01*
X156639Y139787D01*
Y158608D01*
X157070Y159032D01*
X159785D01*
X159860Y159017D01*
X189322D01*
Y156000D01*
X190380D01*
Y159935D01*
X159860D01*
Y159950D01*
X157070D01*
Y172902D01*
X154638D01*
Y168752D01*
X156152D01*
Y162224D01*
X155691Y162032D01*
X153941Y163781D01*
X153445Y164113D01*
X152860Y164229D01*
X139680D01*
X139604Y164214D01*
X139527Y164222D01*
X139314Y164156D01*
X139095Y164113D01*
X139030Y164070D01*
X138956Y164047D01*
X138784Y163905D01*
X138599Y163781D01*
X138556Y163717D01*
X138496Y163668D01*
X138391Y163471D01*
X138267Y163285D01*
X138252Y163209D01*
X138216Y163141D01*
X137196Y159755D01*
X134105D01*
Y154805D01*
X133746Y154463D01*
X132329D01*
Y146364D01*
X138476D01*
X138683Y145864D01*
X133900Y141080D01*
X133509Y140496D01*
X131729D01*
Y136346D01*
X135689D01*
X139650D01*
Y139909D01*
X144424Y144684D01*
X144470Y144752D01*
X145300Y145764D01*
X147315D01*
Y142940D01*
X147457D01*
X147915Y142840D01*
X147915Y142440D01*
Y140312D01*
X147711Y139896D01*
X147415Y139896D01*
X140990D01*
Y132145D01*
X140767Y131773D01*
X140512Y131745D01*
X139650D01*
Y135346D01*
X135689D01*
X131729D01*
Y131197D01*
X133813D01*
Y128948D01*
X133380D01*
X133029Y128878D01*
X132731Y128679D01*
X132532Y128381D01*
X132462Y128030D01*
Y122071D01*
X131904D01*
Y121471D01*
X87503D01*
Y111797D01*
X131904D01*
Y111197D01*
X134675D01*
Y116634D01*
X135175D01*
Y117134D01*
X138447D01*
Y122071D01*
X137828D01*
Y125595D01*
X140750D01*
Y125737D01*
X140850Y126195D01*
X144432D01*
X152189Y118439D01*
X152685Y118107D01*
X153270Y117991D01*
X170696D01*
X177807Y110880D01*
X177615Y110418D01*
X169489D01*
Y110908D01*
X162571D01*
X162265Y111167D01*
Y111167D01*
X157315D01*
Y105430D01*
X156857Y105330D01*
X156715D01*
Y102362D01*
X158678D01*
X158680Y102450D01*
X163580D01*
X163530Y100850D01*
X163630Y99850D01*
X160290Y99883D01*
Y98393D01*
X161223D01*
X161603Y97893D01*
X161523Y97490D01*
Y71786D01*
X160385D01*
Y68621D01*
X163460D01*
X166535D01*
Y71786D01*
X165397D01*
Y96687D01*
X166500Y97790D01*
X166822Y98272D01*
X170089D01*
Y99722D01*
X170635Y99831D01*
X171098Y100141D01*
X171389Y100431D01*
X171389Y100431D01*
X171699Y100894D01*
X171807Y101441D01*
X171807Y101441D01*
Y104898D01*
X172567Y105657D01*
X181438Y105597D01*
Y104830D01*
X182038D01*
Y100474D01*
X174767D01*
X174597Y100644D01*
X173905Y100931D01*
X173155D01*
X172463Y100644D01*
X171933Y100114D01*
X171646Y99421D01*
Y98672D01*
X171933Y97979D01*
X172463Y97449D01*
X173155Y97162D01*
X173905D01*
X174597Y97449D01*
X174767Y97619D01*
X182038D01*
Y97556D01*
X188562D01*
Y99524D01*
Y103524D01*
X189162D01*
X189162Y103524D01*
X189708Y103633D01*
X190172Y103943D01*
X192215Y105986D01*
X192215Y105986D01*
X192524Y106449D01*
X192633Y106995D01*
X192633Y106995D01*
Y112955D01*
X192890Y113212D01*
X210508D01*
Y97003D01*
X208800D01*
Y96403D01*
X189715D01*
Y89879D01*
X189778D01*
Y86607D01*
X185290D01*
X185209Y86688D01*
X184517Y86975D01*
X183767D01*
X183074Y86688D01*
X182544Y86158D01*
X182257Y85465D01*
Y84716D01*
X182544Y84023D01*
X183074Y83493D01*
X183767Y83206D01*
X184517D01*
X185209Y83493D01*
X185468Y83753D01*
X189144D01*
X189503Y83253D01*
X189453Y83000D01*
Y81887D01*
X188405D01*
Y76150D01*
X193355D01*
X193375Y76080D01*
X197197D01*
Y75380D01*
X193375D01*
X193355Y75450D01*
X188405D01*
Y69748D01*
X186457D01*
Y70365D01*
X180720D01*
Y65415D01*
X182071D01*
Y58606D01*
X182071Y58606D01*
X182180Y58060D01*
X182489Y57596D01*
X183075Y57011D01*
X183075Y57011D01*
X183538Y56701D01*
X184084Y56593D01*
X200244D01*
X200244Y56593D01*
X200791Y56701D01*
X201254Y57011D01*
X201839Y57596D01*
X201839Y57596D01*
X202149Y58060D01*
X202257Y58606D01*
Y69633D01*
X204025D01*
Y75370D01*
X200052D01*
Y76070D01*
X204025D01*
Y80808D01*
X204496Y80975D01*
X207856Y76853D01*
Y76425D01*
X208143Y75733D01*
X208673Y75203D01*
X209365Y74916D01*
X210115D01*
X210807Y75203D01*
X211337Y75733D01*
X211624Y76425D01*
Y77175D01*
X211337Y77867D01*
X210807Y78397D01*
X210115Y78684D01*
X210046D01*
X208817Y80192D01*
X209125Y80606D01*
X209245Y80556D01*
X209995D01*
X210687Y80843D01*
X211217Y81373D01*
X211411Y81840D01*
X211966Y81993D01*
X215053Y78906D01*
Y78127D01*
X214883Y77957D01*
X214596Y77265D01*
Y76515D01*
X214883Y75823D01*
X215413Y75293D01*
X216105Y75006D01*
X216855D01*
X217547Y75293D01*
X218077Y75823D01*
X218364Y76515D01*
Y77265D01*
X218077Y77957D01*
X217907Y78127D01*
Y79497D01*
X217907Y79497D01*
X217799Y80044D01*
X217489Y80507D01*
X217489Y80507D01*
X215946Y82051D01*
X216137Y82513D01*
X218650D01*
X219196Y82621D01*
X219423Y82772D01*
X219923Y82505D01*
Y73327D01*
X210897D01*
X210807Y73417D01*
X210115Y73704D01*
X209365D01*
X208673Y73417D01*
X208143Y72887D01*
X207856Y72195D01*
Y71445D01*
X208143Y70753D01*
X208673Y70223D01*
X209365Y69936D01*
X210115D01*
X210807Y70223D01*
X211057Y70473D01*
X221350D01*
X221896Y70581D01*
X222359Y70891D01*
X222669Y71354D01*
X222777Y71900D01*
Y83358D01*
X223277Y83457D01*
X223433Y83083D01*
X223963Y82553D01*
X224655Y82266D01*
X225405D01*
X226097Y82553D01*
X226267Y82723D01*
X227945D01*
Y81240D01*
X232895D01*
Y81240D01*
X233095Y81410D01*
X238045D01*
Y82492D01*
X238338Y82851D01*
X238885Y82960D01*
X239348Y83269D01*
X244309Y88230D01*
X244309Y88230D01*
X244362Y88310D01*
X244739Y88466D01*
X245324Y89051D01*
X245641Y89816D01*
Y90644D01*
X245324Y91409D01*
X244940Y91793D01*
X245148Y92293D01*
X252039D01*
Y89864D01*
X248137D01*
Y86096D01*
X258796D01*
Y89864D01*
X254894D01*
Y93134D01*
X254785Y93681D01*
X254476Y94144D01*
X254476Y94144D01*
X253890Y94729D01*
X253427Y95039D01*
X252881Y95147D01*
X252881Y95147D01*
X241670D01*
X241670Y95147D01*
X241124Y95039D01*
X240661Y94729D01*
X240661Y94729D01*
X238331Y92399D01*
X238021Y91936D01*
X237913Y91390D01*
X237913Y91390D01*
Y89557D01*
X221350D01*
X220804Y89449D01*
X220577Y89298D01*
X220077Y89565D01*
Y94213D01*
X231127D01*
X231297Y94043D01*
X231989Y93756D01*
X232739D01*
X233432Y94043D01*
X233962Y94573D01*
X234248Y95265D01*
Y96015D01*
X233962Y96707D01*
X233432Y97237D01*
X232739Y97524D01*
X231989D01*
X231297Y97237D01*
X231127Y97067D01*
X222055D01*
X222027Y97556D01*
X222027D01*
Y101556D01*
X230445D01*
X236276Y95726D01*
Y95485D01*
X236563Y94793D01*
X237093Y94263D01*
X237785Y93976D01*
X238535D01*
X239227Y94263D01*
X239757Y94793D01*
X240044Y95485D01*
Y96235D01*
X239757Y96927D01*
X239227Y97457D01*
X238535Y97744D01*
X238294D01*
X232046Y103993D01*
X231583Y104302D01*
X231036Y104411D01*
X231036Y104411D01*
X222027D01*
Y107398D01*
Y110690D01*
X222527Y110897D01*
X222888Y110536D01*
X223384Y110205D01*
X223969Y110088D01*
X226384D01*
Y107695D01*
X232121D01*
Y112645D01*
X231942D01*
Y117299D01*
X232292Y117500D01*
X232642Y117299D01*
Y112565D01*
X232821D01*
Y107695D01*
X238559D01*
Y109703D01*
X239372D01*
X240637Y108438D01*
Y101431D01*
X240764Y100793D01*
X241125Y100252D01*
X243317Y98061D01*
Y97806D01*
X243604Y97114D01*
X244134Y96584D01*
X244826Y96297D01*
X245576D01*
X246268Y96584D01*
X246798Y97114D01*
X247085Y97806D01*
Y98396D01*
X247675D01*
X248367Y98683D01*
X248897Y99213D01*
X249184Y99905D01*
Y100655D01*
X248897Y101347D01*
X248367Y101877D01*
X247675Y102164D01*
X247420D01*
X246440Y103144D01*
Y110152D01*
X246313Y110790D01*
X245952Y111330D01*
X242264Y115018D01*
X241723Y115380D01*
X241085Y115507D01*
X238379D01*
X238379Y117515D01*
X238787Y117736D01*
X242863D01*
X242863Y117736D01*
X243409Y117844D01*
X243872Y118154D01*
X244479Y118761D01*
X244479Y118761D01*
X244789Y119224D01*
X244897Y119770D01*
X244897Y119770D01*
Y140104D01*
X244789Y140650D01*
X244479Y141114D01*
X244479Y141114D01*
X243894Y141699D01*
X243430Y142009D01*
X242884Y142117D01*
X242884Y142117D01*
X228769D01*
X228211Y142675D01*
X228402Y143137D01*
X242685D01*
Y142976D01*
X247635D01*
Y143939D01*
X247658Y144055D01*
Y148185D01*
X247635Y148301D01*
Y149106D01*
X246963D01*
X246858Y149127D01*
X246683Y149163D01*
X235529Y149197D01*
Y164900D01*
X235543D01*
X235371Y166205D01*
X235337Y166288D01*
Y169565D01*
X232302D01*
X231805Y169771D01*
X230500Y169943D01*
Y169929D01*
X229612Y169813D01*
X229016Y169565D01*
X226490D01*
Y173435D01*
X235337D01*
Y179565D01*
X225663D01*
Y177927D01*
X225649D01*
X225102Y177819D01*
X224639Y177509D01*
X224639Y177509D01*
X224054Y176924D01*
X223744Y176461D01*
X223636Y175914D01*
X223636Y175914D01*
Y143805D01*
X223636Y143804D01*
X223744Y143258D01*
X224054Y142795D01*
X227168Y139681D01*
X227168Y139681D01*
X227631Y139371D01*
X228177Y139263D01*
X228177Y139263D01*
X242043D01*
Y120590D01*
X231791D01*
X231375Y121046D01*
X231374Y128720D01*
X231874Y129103D01*
X232040Y129058D01*
Y130120D01*
X230457D01*
X230457Y121600D01*
Y121046D01*
X222061D01*
Y123720D01*
X227539D01*
Y130120D01*
X227460D01*
Y131300D01*
X226498D01*
X226542Y131135D01*
Y130120D01*
X226612Y129769D01*
X226621Y129755D01*
Y124638D01*
X222061D01*
X221710Y124568D01*
X221565Y124471D01*
X214350D01*
Y127040D01*
X215157D01*
X215157Y127040D01*
X215703Y127149D01*
X216166Y127458D01*
X221195Y132487D01*
X221195Y132487D01*
X221505Y132950D01*
X221613Y133497D01*
X221613Y133497D01*
Y157014D01*
X221613Y157014D01*
X221517Y157499D01*
Y181624D01*
X224965Y185073D01*
X225174D01*
X225636Y184835D01*
X225663Y184697D01*
Y183435D01*
X226925D01*
X227063Y183407D01*
X227201Y183435D01*
X228939D01*
X229077Y183407D01*
X229215Y183435D01*
X235337D01*
Y189565D01*
X225663D01*
Y187927D01*
X224374D01*
X224374Y187927D01*
X223827Y187819D01*
X223364Y187509D01*
X223364Y187509D01*
X220279Y184424D01*
X219817Y184615D01*
Y187678D01*
X225294Y193156D01*
X225663Y193435D01*
Y193435D01*
X225663Y193435D01*
X226925D01*
X227063Y193407D01*
X227201Y193435D01*
X235337D01*
Y199565D01*
X225663D01*
Y197524D01*
X225551Y197449D01*
X217380Y189279D01*
X217071Y188815D01*
X216962Y188269D01*
X216962Y188269D01*
Y139976D01*
X216546Y139699D01*
X216535Y139703D01*
X215785D01*
X215093Y139416D01*
X214563Y138886D01*
X214319Y138297D01*
X213699D01*
X213699Y138297D01*
X213153Y138189D01*
X212994Y138083D01*
X212837Y138118D01*
X212443Y138316D01*
X212207Y138886D01*
X211677Y139416D01*
X210985Y139703D01*
X210235D01*
X209543Y139416D01*
X209013Y138886D01*
X208726Y138194D01*
Y137444D01*
X208948Y136907D01*
X207559Y135517D01*
X207023D01*
X206908Y135653D01*
X206777Y136017D01*
X207009Y136364D01*
X207036Y136500D01*
X207287Y136752D01*
X207574Y137444D01*
Y138194D01*
X207287Y138886D01*
X206757Y139416D01*
X206065Y139703D01*
X205315D01*
X204623Y139416D01*
X204093Y138886D01*
X203806Y138194D01*
Y138064D01*
X203702Y138043D01*
X203239Y137734D01*
X203239Y137734D01*
X201375Y135870D01*
X200913Y136061D01*
Y136789D01*
X201184Y137444D01*
Y138194D01*
X200897Y138886D01*
X200367Y139416D01*
X199675Y139703D01*
X198925D01*
X198233Y139416D01*
X197703Y138886D01*
X197416Y138194D01*
Y137931D01*
X196946Y137724D01*
X196639Y137967D01*
Y138183D01*
X196352Y138876D01*
X195822Y139406D01*
X195130Y139693D01*
X194380D01*
X193687Y139406D01*
X193157Y138876D01*
X192871Y138183D01*
Y137434D01*
X193157Y136741D01*
X193687Y136211D01*
X194380Y135924D01*
X194544D01*
X195684Y134785D01*
Y134098D01*
X195222Y133907D01*
X191134Y137995D01*
Y138194D01*
X190847Y138886D01*
X190317Y139416D01*
X189625Y139703D01*
X188875D01*
X188183Y139416D01*
X187653Y138886D01*
X187366Y138194D01*
Y137444D01*
X187653Y136752D01*
X188183Y136222D01*
X188875Y135935D01*
X189157D01*
X193715Y131376D01*
Y130468D01*
X193674D01*
Y129868D01*
X193652D01*
Y126605D01*
X192696D01*
Y129868D01*
X192674D01*
Y130468D01*
X191084D01*
Y129868D01*
X189715D01*
Y125048D01*
X189253Y124857D01*
X184117Y129992D01*
Y143506D01*
X184154Y143543D01*
X197201D01*
X197942Y143690D01*
X198570Y144110D01*
X201050Y146590D01*
X201470Y147218D01*
X201618Y147960D01*
Y151782D01*
X205700D01*
X205995Y151841D01*
X206598D01*
Y152600D01*
X206618Y152700D01*
Y171830D01*
X206598Y171931D01*
Y172859D01*
X205969D01*
X205478Y173349D01*
X205512Y173609D01*
Y216709D01*
X205941Y216882D01*
Y216882D01*
X206627D01*
X206711Y216756D01*
X207009Y216557D01*
X207360Y216487D01*
X225743D01*
Y210165D01*
X225063D01*
Y207000D01*
X226660D01*
Y217405D01*
X207360D01*
Y221140D01*
X209500D01*
Y222638D01*
X206842D01*
X206650Y223100D01*
X207361Y223811D01*
X230939D01*
X235375Y219375D01*
X236085Y218830D01*
X236912Y218488D01*
X237800Y218371D01*
X238250Y218430D01*
X238855Y217966D01*
X239648Y217637D01*
X240500Y217525D01*
X241352Y217637D01*
X242145Y217966D01*
X242742Y218424D01*
X242881Y218449D01*
X243327Y218160D01*
Y213063D01*
X231313D01*
Y221140D01*
X231243Y221491D01*
X231059Y221766D01*
Y222638D01*
X227500D01*
Y221140D01*
X230395D01*
Y212145D01*
X244245D01*
Y223145D01*
Y223390D01*
X244385D01*
Y235090D01*
X215130D01*
Y237140D01*
Y252070D01*
X218865D01*
Y238825D01*
X244170D01*
Y257310D01*
X235130D01*
Y257670D01*
Y261045D01*
X247940D01*
Y257310D01*
X247905D01*
Y238825D01*
X291600D01*
Y244795D01*
X276670D01*
Y248530D01*
X291600D01*
Y256720D01*
X290960Y257360D01*
X284260D01*
Y261420D01*
X284310Y261470D01*
X284650Y261130D01*
X295330D01*
Y235090D01*
X248120D01*
Y221820D01*
X247980D01*
Y208400D01*
X244245D01*
Y208410D01*
X230395D01*
Y207000D01*
X230500D01*
X235937D01*
Y207492D01*
X244194D01*
X244245Y207482D01*
X247980D01*
X248331Y207552D01*
X248629Y207751D01*
X248828Y208049D01*
X248898Y208400D01*
Y217860D01*
X249160Y218061D01*
X249488Y218489D01*
X249711D01*
X250069Y218424D01*
X250666Y217966D01*
X250768Y217924D01*
Y210543D01*
X250483Y210257D01*
X250196Y209565D01*
Y208815D01*
X250483Y208123D01*
X251013Y207593D01*
X251705Y207306D01*
X252455D01*
X253147Y207593D01*
X253677Y208123D01*
X253964Y208815D01*
Y209565D01*
X253677Y210257D01*
X253623Y210312D01*
Y217828D01*
X253956Y217966D01*
X254638Y218489D01*
X254959Y218908D01*
X255568D01*
X255890Y218489D01*
X256571Y217966D01*
X256789Y217876D01*
Y211314D01*
X256789Y211314D01*
X256898Y210767D01*
X257207Y210304D01*
X258136Y209376D01*
Y209135D01*
X258423Y208443D01*
X258953Y207913D01*
X259645Y207626D01*
X260395D01*
X261087Y207913D01*
X261617Y208443D01*
X261904Y209135D01*
Y209885D01*
X261617Y210577D01*
X261087Y211107D01*
X260395Y211394D01*
X260154D01*
X259644Y211905D01*
Y217876D01*
X259862Y217966D01*
X260543Y218489D01*
X260865Y218908D01*
X261474D01*
X261795Y218489D01*
X262477Y217966D01*
X262695Y217876D01*
Y213418D01*
X262695Y213418D01*
X262803Y212872D01*
X263113Y212409D01*
X265776Y209746D01*
Y209505D01*
X266063Y208813D01*
X266593Y208283D01*
X267285Y207996D01*
X268035D01*
X268727Y208283D01*
X269257Y208813D01*
X269544Y209505D01*
Y210255D01*
X269257Y210947D01*
X268727Y211477D01*
X268035Y211764D01*
X267794D01*
X265549Y214009D01*
Y217876D01*
X265767Y217966D01*
X266449Y218489D01*
X266770Y218908D01*
X267379D01*
X267701Y218489D01*
X268382Y217966D01*
X269176Y217637D01*
X270028Y217525D01*
X270879Y217637D01*
X271673Y217966D01*
X272354Y218489D01*
X272877Y219171D01*
X273206Y219964D01*
X273318Y220816D01*
Y222784D01*
X273206Y223636D01*
X272877Y224429D01*
X272354Y225111D01*
X271673Y225634D01*
X270879Y225962D01*
X270028Y226075D01*
X269176Y225962D01*
X268382Y225634D01*
X267701Y225111D01*
X267379Y224692D01*
X266770D01*
X266449Y225111D01*
X265767Y225634D01*
X264974Y225962D01*
X264122Y226075D01*
X263270Y225962D01*
X262477Y225634D01*
X261795Y225111D01*
X261474Y224692D01*
X260865D01*
X260543Y225111D01*
X259862Y225634D01*
X259068Y225962D01*
X258217Y226075D01*
X257365Y225962D01*
X256571Y225634D01*
X255890Y225111D01*
X255568Y224692D01*
X254959D01*
X254638Y225111D01*
X253956Y225634D01*
X253163Y225962D01*
X252311Y226075D01*
X251459Y225962D01*
X250666Y225634D01*
X250069Y225176D01*
X249711Y225111D01*
X249488D01*
X249160Y225539D01*
X249038Y225633D01*
Y234172D01*
X295330D01*
X295681Y234242D01*
X295979Y234441D01*
X296178Y234739D01*
X296248Y235090D01*
Y239970D01*
X320200D01*
Y10570D01*
X313400Y3770D01*
X298650D01*
X298383Y4270D01*
X298539Y4504D01*
X298647Y5050D01*
Y18724D01*
X298773Y18781D01*
X299273Y18457D01*
Y18188D01*
X309341D01*
Y26287D01*
X299403D01*
X299273Y26287D01*
X298777Y26278D01*
X296283D01*
Y27459D01*
X297015Y28191D01*
X308039D01*
X308677Y28317D01*
X309217Y28679D01*
X312072Y31534D01*
X312434Y32075D01*
X312561Y32713D01*
Y34181D01*
X314479Y36099D01*
X314840Y36640D01*
X314967Y37277D01*
Y45137D01*
X315381D01*
Y52291D01*
X314967D01*
Y54389D01*
X315381D01*
Y61543D01*
X314967D01*
Y68169D01*
X314840Y68807D01*
X314479Y69348D01*
X312462Y71365D01*
Y75347D01*
X312335Y75985D01*
X311974Y76525D01*
X311637Y76862D01*
Y77568D01*
X312303D01*
X312483Y77388D01*
X313175Y77101D01*
X313925D01*
X314617Y77388D01*
X315147Y77918D01*
X315434Y78611D01*
Y79361D01*
X315147Y80053D01*
X314731Y80470D01*
X315147Y80887D01*
X315434Y81579D01*
Y82329D01*
X315147Y83022D01*
X314617Y83552D01*
X313925Y83838D01*
X313175D01*
X312483Y83552D01*
X312303Y83372D01*
X309808D01*
X309170Y83245D01*
X308629Y82884D01*
X306322Y80576D01*
X305960Y80035D01*
X305833Y79397D01*
Y75149D01*
X305960Y74511D01*
X306322Y73970D01*
X306658Y73633D01*
Y71365D01*
X304641Y69348D01*
X304280Y68807D01*
X304153Y68169D01*
Y61543D01*
X303739D01*
Y54389D01*
X304153D01*
Y52291D01*
X303739D01*
Y45137D01*
X304153D01*
Y37558D01*
X304280Y36920D01*
X304641Y36379D01*
X306668Y34352D01*
X306319Y33994D01*
X295301D01*
X294664Y33867D01*
X294123Y33506D01*
X290968Y30351D01*
X290607Y29810D01*
X290480Y29172D01*
Y26278D01*
X289271D01*
Y26877D01*
X288370D01*
X288303Y27215D01*
X287993Y27678D01*
X287993Y27678D01*
X286822Y28849D01*
X286358Y29159D01*
X285812Y29267D01*
X285812Y29267D01*
X271372D01*
X271372Y29267D01*
X270825Y29159D01*
X270362Y28849D01*
X270362Y28849D01*
X268739Y27226D01*
X268277Y27418D01*
Y34893D01*
X289184D01*
X289184Y34893D01*
X289731Y35001D01*
X290194Y35311D01*
X290779Y35896D01*
X290779Y35896D01*
X291089Y36360D01*
X291197Y36906D01*
Y52894D01*
X291089Y53440D01*
X290779Y53903D01*
X290779Y53903D01*
X290194Y54489D01*
X289731Y54798D01*
X289184Y54907D01*
X289184Y54907D01*
X288015D01*
Y56545D01*
X283065D01*
Y50414D01*
X283065D01*
X282957Y49959D01*
X282802D01*
Y46400D01*
X285680D01*
Y45400D01*
X282802D01*
Y42157D01*
X280860D01*
X280478Y42441D01*
X280478Y42657D01*
Y49359D01*
X280137D01*
Y49959D01*
X280124Y50028D01*
X280441Y50414D01*
X280535D01*
Y56545D01*
X275585D01*
Y55417D01*
X239849D01*
Y69298D01*
X225057D01*
Y56541D01*
X222020D01*
X220860Y56388D01*
X219779Y55940D01*
X218851Y55228D01*
X218139Y54300D01*
X217691Y53219D01*
X217538Y52059D01*
X217691Y50899D01*
X218139Y49818D01*
X218851Y48890D01*
X219779Y48178D01*
X220860Y47730D01*
X222020Y47577D01*
X229106D01*
X230266Y47730D01*
X231347Y48178D01*
X232275Y48890D01*
X232987Y49818D01*
X233135Y50175D01*
X239849D01*
Y51542D01*
X275585D01*
Y50414D01*
X276123D01*
Y50099D01*
X276170Y49859D01*
X275922Y49359D01*
X275922D01*
Y42657D01*
X275922Y42441D01*
X275540Y42157D01*
X271319D01*
X271030Y42657D01*
X271138Y42845D01*
X271282Y43380D01*
X265998D01*
X266142Y42845D01*
X266495Y42234D01*
X266772Y41956D01*
Y41322D01*
X266919Y40581D01*
X267339Y39952D01*
X268442Y38850D01*
X269070Y38430D01*
X269812Y38283D01*
X284609D01*
X285350Y38430D01*
X285979Y38850D01*
X287050Y39922D01*
X287470Y40550D01*
X287617Y41292D01*
Y41841D01*
X288343D01*
Y37747D01*
X267436D01*
X266890Y37639D01*
X266426Y37329D01*
X266426Y37329D01*
X265841Y36744D01*
X265531Y36281D01*
X265423Y35734D01*
X265423Y35734D01*
Y5636D01*
X265423Y5636D01*
X265531Y5090D01*
X265841Y4626D01*
X266197Y4270D01*
X265990Y3770D01*
X183142D01*
X183076Y4270D01*
X183455Y4372D01*
X184066Y4725D01*
X184565Y5224D01*
X184918Y5835D01*
X185062Y6370D01*
X179778D01*
X179922Y5835D01*
X180275Y5224D01*
X180774Y4725D01*
X181385Y4372D01*
X181764Y4270D01*
X181699Y3770D01*
X155484D01*
X155292Y4232D01*
X165950Y14890D01*
X166106Y15122D01*
X170320D01*
X170671Y15192D01*
X170969Y15391D01*
X171299Y15721D01*
X171498Y16019D01*
X171568Y16370D01*
Y19150D01*
X171498Y19501D01*
X171299Y19799D01*
X171001Y19998D01*
X170650Y20068D01*
X166687D01*
Y31156D01*
X166847Y31960D01*
Y37565D01*
X167815D01*
Y37143D01*
X172765D01*
Y42880D01*
X167815D01*
Y42459D01*
X166887D01*
Y46600D01*
Y52111D01*
X166701Y53048D01*
X166171Y53841D01*
X165585Y54427D01*
X164791Y54958D01*
X163854Y55144D01*
X150977D01*
Y56269D01*
X151577D01*
X151577Y56269D01*
X152123Y56378D01*
X152586Y56687D01*
X155151Y59252D01*
X164725D01*
Y57614D01*
X167656D01*
X168863Y56408D01*
Y49317D01*
X167815D01*
Y43580D01*
X172765D01*
Y49317D01*
X171717D01*
Y56999D01*
X171718Y56999D01*
X171609Y57545D01*
X171299Y58008D01*
X171299Y58008D01*
X169675Y59633D01*
Y63745D01*
X164725D01*
Y62107D01*
X154560D01*
X154560Y62107D01*
X154013Y61998D01*
X153550Y61689D01*
X153550Y61689D01*
X151477Y59615D01*
X150977Y59823D01*
Y65025D01*
Y70025D01*
Y75025D01*
Y80025D01*
Y85025D01*
Y90025D01*
Y95025D01*
Y100025D01*
Y105025D01*
Y110025D01*
Y115368D01*
X141303D01*
Y110025D01*
Y105025D01*
Y100025D01*
Y95025D01*
Y90025D01*
Y85025D01*
Y80025D01*
Y75025D01*
Y70025D01*
Y65025D01*
Y60025D01*
Y55025D01*
Y50968D01*
X140703D01*
Y48197D01*
X146140D01*
X151577D01*
Y50250D01*
X154082D01*
Y47100D01*
X155320D01*
Y49170D01*
X158240D01*
Y47100D01*
X159838D01*
Y50250D01*
X161993D01*
Y46600D01*
Y39602D01*
X161953Y39400D01*
Y32604D01*
X161793Y31800D01*
Y17671D01*
X161789Y17649D01*
X151706Y7567D01*
X7207D01*
Y32746D01*
X26612Y52151D01*
X27142Y52945D01*
X27329Y53882D01*
Y59025D01*
X27750D01*
Y63975D01*
X27650D01*
Y68675D01*
X26099D01*
X26009Y68809D01*
X25546Y69119D01*
X25000Y69227D01*
X23588D01*
X23588Y69227D01*
X23042Y69119D01*
X22579Y68809D01*
X22444Y68675D01*
X21913D01*
Y68144D01*
X18394Y64625D01*
X18133Y64234D01*
X17224Y63325D01*
X11537D01*
Y59014D01*
X11037Y58949D01*
X10990Y59126D01*
X10638Y59735D01*
X10140Y60232D01*
X9531Y60584D01*
X8852Y60766D01*
X8148D01*
X7469Y60584D01*
X6860Y60232D01*
X6362Y59735D01*
X6010Y59126D01*
X5828Y58446D01*
Y57743D01*
X6010Y57063D01*
X6362Y56454D01*
X6860Y55957D01*
X7469Y55605D01*
X8148Y55423D01*
X8852D01*
X9531Y55605D01*
X10140Y55957D01*
X10638Y56454D01*
X10990Y57063D01*
X11037Y57240D01*
X11537Y57174D01*
Y52998D01*
X11537Y52864D01*
X11212Y52498D01*
X9962D01*
Y46761D01*
X13647D01*
X13839Y46299D01*
X3030Y35490D01*
X2572Y34806D01*
X2071Y34913D01*
X1984Y46305D01*
X2481Y46761D01*
X7038D01*
Y52498D01*
X2088Y52498D01*
X1933Y52934D01*
X1763Y75136D01*
X2260Y75502D01*
X7038D01*
Y81239D01*
X2216D01*
X2088Y81239D01*
X1714Y81542D01*
X1118Y159278D01*
Y239970D01*
X17568D01*
X17920Y239615D01*
X17787Y222571D01*
X12039D01*
Y213894D01*
X18638D01*
X19010Y261670D01*
X19630Y262290D01*
X29730D01*
Y213894D01*
D02*
G37*
G36*
X157500Y242000D02*
Y237000D01*
X151500Y231000D01*
X145000D01*
X114000Y200000D01*
X104854Y200000D01*
X104500Y200354D01*
X104500Y212500D01*
X116500D01*
X139000Y235000D01*
Y241500D01*
X145000Y247500D01*
X150500Y249000D01*
X157500Y242000D01*
D02*
G37*
G36*
X181100Y184182D02*
X178514D01*
Y190208D01*
X181100Y190218D01*
Y184182D01*
D02*
G37*
G36*
X39000Y315900D02*
Y315800D01*
X51300D01*
Y250900D01*
X66051Y196400D01*
X80300D01*
X80400Y182300D01*
X65900Y182200D01*
Y189200D01*
X58500D01*
X55700Y195000D01*
X52200Y198700D01*
X37100Y250900D01*
Y315726D01*
X37472Y316061D01*
X39000Y315900D01*
D02*
G37*
G36*
X160850Y195950D02*
Y195140D01*
Y176230D01*
X156160D01*
Y196070D01*
X160850Y195950D01*
D02*
G37*
G36*
X181135Y191090D02*
X169785D01*
Y174590D01*
X165095D01*
X165435Y194370D01*
X181135D01*
Y191090D01*
D02*
G37*
G36*
X129580Y192595D02*
X151190D01*
Y189685D01*
X150575D01*
Y171700D01*
X147665D01*
Y189685D01*
X129580D01*
Y178057D01*
X133860D01*
Y168720D01*
X131074D01*
Y175190D01*
X126000D01*
Y192601D01*
X129580D01*
Y192595D01*
D02*
G37*
G36*
X181244Y180255D02*
X181200Y180200D01*
Y179700D01*
X181300Y179300D01*
Y177800D01*
X199400D01*
X201700Y175500D01*
Y173300D01*
X204230D01*
X205700Y171830D01*
Y152700D01*
X198600D01*
X198200Y153100D01*
Y154700D01*
Y173300D01*
X182430D01*
Y166940D01*
X178910D01*
Y173990D01*
X178900Y174000D01*
Y179600D01*
X178800Y180600D01*
X180900D01*
X181244Y180255D01*
D02*
G37*
G36*
X153581Y159817D02*
Y150329D01*
X153465Y149877D01*
X152838D01*
Y153850D01*
X152768Y154201D01*
X152569Y154499D01*
X152271Y154698D01*
X151920Y154768D01*
X148311D01*
Y155063D01*
X146879D01*
Y156780D01*
X145300D01*
X145300Y154000D01*
X145450Y153850D01*
X151920D01*
Y147380D01*
X152020Y147280D01*
X141930D01*
Y158540D01*
Y158900D01*
X142910D01*
Y160355D01*
X141032D01*
X140745Y160753D01*
X140899Y161171D01*
X152226D01*
X153581Y159817D01*
D02*
G37*
G36*
X228671Y149573D02*
X228317Y149220D01*
X227333Y149223D01*
X227331Y149222D01*
X227330Y149223D01*
X227156Y149188D01*
X226981Y149154D01*
X226973Y149156D01*
X226571Y149339D01*
X226490Y149428D01*
Y163435D01*
X228671D01*
Y149573D01*
D02*
G37*
G36*
X246680Y148245D02*
X246740Y148185D01*
Y144055D01*
X227330D01*
Y144235D01*
Y144475D01*
Y148305D01*
X246680Y148245D01*
D02*
G37*
G36*
X153465Y142940D02*
X153581Y142488D01*
Y139154D01*
X153697Y138568D01*
X154029Y138072D01*
X170590Y121511D01*
X170398Y121049D01*
X153903D01*
X146587Y128366D01*
Y131145D01*
X145880D01*
Y131797D01*
X147711D01*
Y136687D01*
X147915Y137103D01*
X148211Y137103D01*
X150411D01*
X154168Y125242D01*
X154016Y124875D01*
Y124125D01*
X154303Y123433D01*
X154833Y122903D01*
X155525Y122616D01*
X156275D01*
X156967Y122903D01*
X157497Y123433D01*
X157784Y124125D01*
Y124875D01*
X157497Y125567D01*
X156967Y126097D01*
X156880Y126134D01*
X152865Y138810D01*
X152865Y142840D01*
X153323Y142940D01*
X153465D01*
D02*
G37*
G36*
X136910Y126970D02*
Y120500D01*
X133400Y120470D01*
X133380Y120490D01*
Y128030D01*
X136910D01*
Y126970D01*
D02*
G37*
G36*
X193487Y121724D02*
X194033Y121616D01*
X194033Y121616D01*
X213020D01*
X213211Y121154D01*
X210860Y118803D01*
X210551Y118340D01*
X210442Y117793D01*
X210111Y117458D01*
X194745D01*
Y118562D01*
X194597Y119304D01*
X194178Y119932D01*
X192803Y121306D01*
X192783Y121507D01*
X192811Y121611D01*
X193356Y121812D01*
X193487Y121724D01*
D02*
G37*
G36*
X387970Y117545D02*
X387830Y117405D01*
X378000D01*
Y120155D01*
X387970D01*
Y117545D01*
D02*
G37*
G36*
X439600Y114390D02*
X439830Y114160D01*
X437070D01*
Y125240D01*
X437190Y125360D01*
X439600D01*
Y114390D01*
D02*
G37*
G36*
X212280Y114130D02*
X192510D01*
X190720Y112340D01*
X190680Y116360D01*
X190790Y116470D01*
Y116540D01*
X212280D01*
Y114130D01*
D02*
G37*
G36*
X389510Y126800D02*
X383783Y121073D01*
X378000D01*
X377649Y121003D01*
X377351Y120804D01*
X377152Y120506D01*
X377082Y120155D01*
Y117405D01*
X377152Y117054D01*
X377351Y116756D01*
X377649Y116557D01*
X378000Y116487D01*
X387830D01*
X388181Y116557D01*
X388479Y116756D01*
X388619Y116896D01*
X388818Y117194D01*
X388888Y117545D01*
Y120155D01*
X388818Y120506D01*
X388769Y120579D01*
X392172Y123983D01*
X422958D01*
X425400Y121540D01*
X426029Y121120D01*
X426770Y120973D01*
X435932D01*
Y118101D01*
X435529Y117867D01*
X432393D01*
X431161Y119099D01*
X430698Y119409D01*
X430152Y119517D01*
X430152Y119517D01*
X427473D01*
Y120132D01*
X421027D01*
Y116048D01*
X427473D01*
Y116663D01*
X429561D01*
X430793Y115431D01*
X430793Y115431D01*
X431256Y115121D01*
X431802Y115013D01*
X435952D01*
Y111761D01*
X440508D01*
Y113554D01*
X440678Y113809D01*
X440748Y114160D01*
X440678Y114511D01*
X440518Y114751D01*
Y123081D01*
X440525Y123119D01*
Y123667D01*
X440740Y123882D01*
X442812D01*
Y122060D01*
X445690D01*
Y121060D01*
X442812D01*
Y117501D01*
X442832D01*
Y115720D01*
X445710D01*
Y115220D01*
X446210D01*
Y111161D01*
X448588D01*
Y111161D01*
X449053Y111076D01*
Y109865D01*
X446538D01*
Y106790D01*
X445539D01*
Y109865D01*
X442570D01*
Y109723D01*
X442470Y109265D01*
X442070Y109265D01*
X436733D01*
Y108107D01*
X432814D01*
X431822Y109099D01*
X431359Y109409D01*
X430813Y109517D01*
X430813Y109517D01*
X427473D01*
Y110132D01*
X421027D01*
Y106048D01*
X427473D01*
Y106663D01*
X430222D01*
X431214Y105671D01*
X431214Y105671D01*
X431677Y105361D01*
X432223Y105253D01*
X432223Y105253D01*
X436379D01*
X436733Y104899D01*
Y104763D01*
X436633Y104305D01*
X436633Y103857D01*
Y102437D01*
X430410D01*
X429864Y102329D01*
X429401Y102019D01*
X429401Y102019D01*
X427821Y100440D01*
X427473Y100132D01*
Y100132D01*
X427473Y100132D01*
X421027D01*
Y96048D01*
X427473D01*
Y96188D01*
X427490Y96663D01*
X428036Y96771D01*
X428499Y97081D01*
X431001Y99583D01*
X436633D01*
Y99355D01*
X442370Y99355D01*
X442470Y98897D01*
Y98755D01*
X442754D01*
X443063Y98255D01*
X442978Y97940D01*
X445620D01*
Y96940D01*
X442978D01*
X443122Y96405D01*
X443475Y95794D01*
X443963Y95305D01*
X443962Y95257D01*
X443822Y94805D01*
X442500D01*
Y89855D01*
X443941D01*
Y88928D01*
X443933Y88885D01*
X443933Y88885D01*
Y88285D01*
X442491D01*
Y83335D01*
X448229D01*
Y88285D01*
X446787D01*
Y88850D01*
X446796Y88893D01*
Y89855D01*
X448237D01*
Y90393D01*
X448837D01*
X449053Y90216D01*
Y83100D01*
X449008Y82619D01*
X448553Y82619D01*
X446630D01*
Y80910D01*
X447460D01*
Y69940D01*
X447690Y69710D01*
X444930D01*
Y71020D01*
X443618D01*
X443762Y70485D01*
X444012Y70051D01*
Y69710D01*
X444082Y69359D01*
X444281Y69061D01*
X444579Y68862D01*
X444930Y68792D01*
X447690D01*
X448041Y68862D01*
X448339Y69061D01*
X448538Y69359D01*
X448553Y69434D01*
X449053Y69385D01*
Y60177D01*
X448953Y60077D01*
X446707D01*
Y60615D01*
X440970D01*
Y55665D01*
X446707D01*
Y56203D01*
X449755D01*
X450497Y56350D01*
X451125Y56770D01*
X451940Y57585D01*
X452440Y57378D01*
Y3730D01*
X451500Y2790D01*
X405166D01*
X405117Y3290D01*
X405721Y3410D01*
X406350Y3830D01*
X407521Y5002D01*
X407941Y5630D01*
X408089Y6372D01*
Y29002D01*
X408823D01*
Y35853D01*
X409285Y36045D01*
X413288Y32042D01*
X413288Y32042D01*
X413751Y31732D01*
X414297Y31624D01*
X414297Y31624D01*
X414897D01*
Y29002D01*
X420240D01*
Y37101D01*
X414897D01*
Y35177D01*
X414397Y34970D01*
X409228Y40139D01*
X408765Y40449D01*
X408218Y40557D01*
X408218Y40557D01*
X386606D01*
X386059Y40449D01*
X385596Y40139D01*
X385596Y40139D01*
X375747Y30290D01*
X375285Y30481D01*
Y30537D01*
X370335D01*
Y29717D01*
X369174D01*
Y29861D01*
X363043D01*
Y26721D01*
X362501D01*
X361887Y27335D01*
Y33323D01*
X364426D01*
X364514Y33235D01*
X365125Y32882D01*
X365660Y32738D01*
Y35380D01*
Y38022D01*
X365125Y37878D01*
X364514Y37525D01*
X364186Y37197D01*
X361804D01*
X361596Y37405D01*
X360985Y37758D01*
X360450Y37902D01*
Y35260D01*
X359450D01*
Y37902D01*
X358915Y37758D01*
X358304Y37405D01*
X357805Y36906D01*
X357452Y36295D01*
X357269Y35613D01*
Y35318D01*
X356250Y34299D01*
X353680D01*
X352939Y34152D01*
X352310Y33732D01*
X349580Y31002D01*
Y27369D01*
X349080D01*
Y26869D01*
X346005D01*
Y23900D01*
X346147D01*
X346605Y23800D01*
Y21156D01*
X343506Y18056D01*
X343114D01*
X342934Y18131D01*
X342106D01*
X341341Y17814D01*
X340756Y17229D01*
X340439Y16464D01*
Y15636D01*
X340583Y15289D01*
Y12301D01*
X340439Y11954D01*
Y11126D01*
X340756Y10361D01*
X341341Y9776D01*
X341688Y9632D01*
X347490Y3830D01*
X348119Y3410D01*
X348723Y3290D01*
X348674Y2790D01*
X336040D01*
Y5790D01*
X336470Y127220D01*
X336550Y127300D01*
X389303D01*
X389510Y126800D01*
D02*
G37*
G36*
X186110Y63592D02*
X186150Y61530D01*
X199370Y61290D01*
Y61290D01*
X199403Y61290D01*
Y59447D01*
X184926D01*
Y65415D01*
X186110D01*
Y63592D01*
D02*
G37*
G36*
X22013Y63499D02*
Y59025D01*
X22434D01*
Y54895D01*
X15374Y47834D01*
X14912Y48026D01*
Y52364D01*
X14912Y52498D01*
X15237Y52864D01*
X19242D01*
Y57420D01*
X11603D01*
X11186Y57732D01*
X11172Y57745D01*
Y58444D01*
X11186Y58457D01*
X11603Y58769D01*
X17739D01*
X17912Y58744D01*
X18015Y58769D01*
X19242D01*
Y60066D01*
X19268Y60239D01*
X19242Y60342D01*
Y61307D01*
X20413Y62476D01*
X20413Y62476D01*
X20673Y62867D01*
X21513Y63706D01*
X22013Y63499D01*
D02*
G37*
G36*
X407351Y37601D02*
X407084Y37101D01*
X403480D01*
Y29002D01*
X404214D01*
Y7174D01*
X404177Y7137D01*
X390907D01*
Y11425D01*
X389386D01*
Y12125D01*
X390777D01*
Y15606D01*
X391997Y16826D01*
X391997Y16826D01*
X392306Y17289D01*
X392415Y17835D01*
Y18432D01*
X393769D01*
Y19282D01*
X399513D01*
X399633Y19163D01*
X400325Y18876D01*
X401075D01*
X401767Y19163D01*
X402297Y19693D01*
X402584Y20385D01*
Y21135D01*
X402297Y21827D01*
X401767Y22357D01*
X401075Y22644D01*
X400325D01*
X399633Y22357D01*
X399412Y22137D01*
X393769D01*
Y22988D01*
X386851D01*
Y18432D01*
X388858D01*
X389065Y17932D01*
X388208Y17075D01*
X385040D01*
Y12125D01*
X386531D01*
Y11425D01*
X385170D01*
Y7137D01*
X384470D01*
Y11425D01*
X382949D01*
Y12125D01*
X384340D01*
Y17075D01*
X382899D01*
Y17675D01*
X382887Y17733D01*
Y18592D01*
X384919D01*
Y23148D01*
X378001D01*
Y18592D01*
X380033D01*
Y17686D01*
X380033Y17686D01*
X380044Y17628D01*
Y17075D01*
X378603D01*
Y16027D01*
X375359D01*
Y17215D01*
X369621D01*
Y12265D01*
X375359D01*
Y13173D01*
X378603D01*
Y12125D01*
X380094D01*
Y11425D01*
X378733D01*
Y7137D01*
X349662D01*
X344457Y12342D01*
Y14212D01*
X345050Y14330D01*
X345678Y14750D01*
X348992Y18063D01*
X351555D01*
Y18342D01*
X352806D01*
Y18219D01*
X358023D01*
Y17735D01*
X358023Y17735D01*
X358132Y17189D01*
X358441Y16726D01*
X361226Y13941D01*
X361226Y13941D01*
X361689Y13631D01*
X361738Y13622D01*
X362038Y13421D01*
X362584Y13313D01*
X363184D01*
Y12265D01*
X368921D01*
Y17215D01*
X367951D01*
X367536Y17619D01*
X367535Y17619D01*
Y18219D01*
X369174D01*
Y21359D01*
X369735D01*
Y17763D01*
X372310D01*
Y21231D01*
X372810D01*
Y21732D01*
X375885D01*
Y24700D01*
X375743D01*
X375285Y24800D01*
Y26269D01*
X375691Y26350D01*
X376154Y26659D01*
X376939Y27444D01*
X377401Y27253D01*
Y25472D01*
X380960D01*
Y28350D01*
X381745D01*
Y29470D01*
X389275D01*
X389315Y29430D01*
Y27270D01*
X381960D01*
Y25472D01*
X385519D01*
Y26352D01*
X386251D01*
Y25312D01*
X389810D01*
Y28015D01*
X389520D01*
Y33850D01*
X388058D01*
X388202Y33315D01*
X388555Y32704D01*
X388602Y32656D01*
Y31068D01*
X386251D01*
Y30388D01*
X385519D01*
Y31228D01*
X381376D01*
X381185Y31690D01*
X387197Y37703D01*
X407283D01*
X407351Y37601D01*
D02*
G37*
G36*
X357550Y21420D02*
Y19260D01*
X349980D01*
Y19460D01*
Y20020D01*
Y21460D01*
X357510D01*
X357550Y21420D01*
D02*
G37*
G36*
X170650Y16370D02*
X170320Y16040D01*
X163550D01*
X163422Y19150D01*
X170650D01*
Y16370D01*
D02*
G37*
G36*
X274863Y26287D02*
Y18188D01*
X284931D01*
Y18563D01*
X286484D01*
Y22720D01*
X287484D01*
Y18563D01*
X289271D01*
Y19162D01*
X295793D01*
Y6477D01*
X268277D01*
Y15502D01*
X268674Y15806D01*
X268740Y15788D01*
Y18430D01*
X269240D01*
Y18930D01*
X271882D01*
X271738Y19465D01*
X271385Y20076D01*
X270886Y20575D01*
X270667Y20702D01*
Y25117D01*
X271963Y26413D01*
X274415D01*
X274863Y26287D01*
D02*
G37*
%LPC*%
G36*
X288750Y224062D02*
X288215Y223918D01*
X287962Y223772D01*
X287795Y223868D01*
X287260Y224012D01*
Y221370D01*
Y218728D01*
X287795Y218872D01*
X288048Y219018D01*
X288215Y218922D01*
X288750Y218778D01*
Y221420D01*
Y224062D01*
D02*
G37*
G36*
X289750D02*
Y221920D01*
X291892D01*
X291748Y222455D01*
X291395Y223066D01*
X290896Y223565D01*
X290285Y223918D01*
X289750Y224062D01*
D02*
G37*
G36*
X283950D02*
X283415Y223918D01*
X282804Y223565D01*
X282305Y223066D01*
X281952Y222455D01*
X281808Y221920D01*
X283950D01*
Y224062D01*
D02*
G37*
G36*
X222559Y222638D02*
Y222638D01*
X219000D01*
Y221140D01*
X226500D01*
Y222638D01*
X222941D01*
Y222638D01*
X222559D01*
D02*
G37*
G36*
X214059D02*
Y222638D01*
X210500D01*
Y221140D01*
X218000D01*
Y222638D01*
X214441D01*
Y222638D01*
X214059D01*
D02*
G37*
G36*
X154250Y220102D02*
X153715Y219958D01*
X153213Y219669D01*
X152815Y219898D01*
X152280Y220042D01*
Y217400D01*
Y214758D01*
X152815Y214902D01*
X153317Y215192D01*
X153715Y214962D01*
X154250Y214818D01*
Y217460D01*
Y220102D01*
D02*
G37*
G36*
X157400D02*
X156865Y219958D01*
X156325Y219647D01*
X155785Y219958D01*
X155250Y220102D01*
Y217460D01*
Y214818D01*
X155785Y214962D01*
X156325Y215273D01*
X156865Y214962D01*
X157400Y214818D01*
Y217460D01*
Y220102D01*
D02*
G37*
G36*
X291892Y220920D02*
X289750D01*
Y218778D01*
X290285Y218922D01*
X290896Y219275D01*
X291395Y219774D01*
X291748Y220385D01*
X291892Y220920D01*
D02*
G37*
G36*
X283950D02*
X281808D01*
X281952Y220385D01*
X282305Y219774D01*
X282804Y219275D01*
X283415Y218922D01*
X283950Y218778D01*
Y220920D01*
D02*
G37*
G36*
X284950Y224062D02*
Y221420D01*
Y218778D01*
X285485Y218922D01*
X285562Y218966D01*
X285725Y218872D01*
X286260Y218728D01*
Y221370D01*
Y224012D01*
X285725Y223868D01*
X285648Y223824D01*
X285485Y223918D01*
X284950Y224062D01*
D02*
G37*
G36*
X158400Y220102D02*
Y217960D01*
X160542D01*
X160398Y218495D01*
X160045Y219106D01*
X159546Y219605D01*
X158935Y219958D01*
X158400Y220102D01*
D02*
G37*
G36*
X151280Y220042D02*
X150745Y219898D01*
X150134Y219545D01*
X149635Y219046D01*
X149282Y218435D01*
X149138Y217900D01*
X151280D01*
Y220042D01*
D02*
G37*
G36*
X160542Y216960D02*
X158400D01*
Y214818D01*
X158935Y214962D01*
X159546Y215315D01*
X160045Y215814D01*
X160398Y216425D01*
X160542Y216960D01*
D02*
G37*
G36*
X151280Y216900D02*
X149138D01*
X149282Y216365D01*
X149635Y215754D01*
X150134Y215255D01*
X150745Y214902D01*
X151280Y214758D01*
Y216900D01*
D02*
G37*
G36*
X235937Y206000D02*
X231000D01*
Y202835D01*
X235937D01*
Y206000D01*
D02*
G37*
G36*
X226660D02*
X225063D01*
Y202835D01*
X230000D01*
Y204360D01*
X226660D01*
Y206000D01*
D02*
G37*
G36*
X136184Y196930D02*
X127200D01*
Y195838D01*
X130759D01*
Y196012D01*
X132625D01*
Y195838D01*
X136184D01*
Y196930D01*
D02*
G37*
G36*
X166496Y203248D02*
X159000D01*
Y202050D01*
X189970D01*
Y196930D01*
X188570D01*
Y192090D01*
X190118D01*
Y195649D01*
X190118Y195649D01*
X190293Y196077D01*
X190321Y196082D01*
X190619Y196281D01*
X190818Y196579D01*
X190888Y196930D01*
Y202050D01*
X190818Y202401D01*
X190619Y202699D01*
X190321Y202898D01*
X189970Y202968D01*
X166496D01*
Y203248D01*
D02*
G37*
G36*
X158000D02*
X150504D01*
Y202968D01*
X124160D01*
X124056Y202947D01*
X123950Y202943D01*
X123882Y202912D01*
X123809Y202898D01*
X123721Y202839D01*
X123625Y202795D01*
X114384Y196155D01*
X114260Y196022D01*
X114141Y195895D01*
X114141Y195894D01*
X114140Y195894D01*
X114077Y195725D01*
X114015Y195560D01*
X114015Y195559D01*
X114014Y195558D01*
X114021Y195382D01*
X114026Y195202D01*
X115306Y189702D01*
X115322Y189668D01*
X115326Y189631D01*
X115395Y189506D01*
X115454Y189376D01*
X115481Y189350D01*
X115499Y189318D01*
X115611Y189229D01*
X115715Y189131D01*
X115750Y189118D01*
X115779Y189095D01*
X115916Y189055D01*
X116050Y189005D01*
X116087Y189006D01*
X116123Y188996D01*
X116265Y189012D01*
X116408Y189016D01*
X116442Y189032D01*
X116479Y189036D01*
X116604Y189105D01*
X116734Y189164D01*
X116760Y189191D01*
X116792Y189209D01*
X124145Y195422D01*
X124210Y195502D01*
X124287Y195571D01*
X124487Y195838D01*
X126200D01*
Y196930D01*
X124160D01*
Y202050D01*
X158000D01*
Y203248D01*
D02*
G37*
G36*
X39449Y212894D02*
X29730D01*
Y188500D01*
X33984D01*
Y191937D01*
X33797Y193356D01*
X33249Y194679D01*
X32378Y195815D01*
X31242Y196686D01*
X30648Y196932D01*
Y204217D01*
X39449D01*
Y212894D01*
D02*
G37*
G36*
X11446Y193034D02*
X10121D01*
X8840Y192691D01*
X7693Y192028D01*
X6755Y191091D01*
X6093Y189943D01*
X5750Y188663D01*
Y187337D01*
X6093Y186057D01*
X6755Y184909D01*
X7693Y183972D01*
X8840Y183309D01*
X10121Y182966D01*
X11446D01*
X12727Y183309D01*
X13874Y183972D01*
X14811Y184909D01*
X15474Y186057D01*
X15817Y187337D01*
Y188663D01*
X15474Y189943D01*
X14811Y191091D01*
X13874Y192028D01*
X12727Y192691D01*
X11446Y193034D01*
D02*
G37*
G36*
X190118Y191090D02*
X188570D01*
Y182540D01*
X190178D01*
Y186099D01*
X189488D01*
Y187531D01*
X190118D01*
Y191090D01*
D02*
G37*
G36*
X186009D02*
X184362D01*
Y187531D01*
X185101D01*
X185104Y186453D01*
X184751Y186099D01*
X184422D01*
Y182540D01*
X186032D01*
X186009Y191090D01*
D02*
G37*
G36*
X212460Y182352D02*
Y180840D01*
X213410D01*
Y180210D01*
X214602D01*
X214458Y180745D01*
X214288Y181041D01*
X214258Y181191D01*
X214059Y181489D01*
X213800Y181662D01*
X213606Y181855D01*
X212995Y182208D01*
X212460Y182352D01*
D02*
G37*
G36*
X211460D02*
X210925Y182208D01*
X210314Y181855D01*
X210185Y181727D01*
X209989Y181688D01*
X209691Y181489D01*
X209492Y181191D01*
X209422Y180840D01*
Y180599D01*
X209318Y180210D01*
X210340D01*
Y180840D01*
X211460D01*
Y182352D01*
D02*
G37*
G36*
X114618Y176728D02*
X111256D01*
Y172677D01*
X114618D01*
Y176728D01*
D02*
G37*
G36*
X110256D02*
X106894D01*
Y172677D01*
X110256D01*
Y176728D01*
D02*
G37*
G36*
X214602Y179210D02*
X213410D01*
X213410Y169900D01*
X214678D01*
Y173459D01*
X214328D01*
X214328Y178449D01*
X214458Y178675D01*
X214602Y179210D01*
D02*
G37*
G36*
X210340D02*
X209318D01*
X209422Y178821D01*
Y173459D01*
X208922D01*
Y169900D01*
X210340D01*
Y179210D01*
D02*
G37*
G36*
X45035Y174586D02*
X41598D01*
Y169602D01*
X50454D01*
X50332Y170522D01*
X49785Y171844D01*
X48913Y172980D01*
X47777Y173852D01*
X46455Y174399D01*
X45035Y174586D01*
D02*
G37*
G36*
X114618Y171677D02*
X111256D01*
Y167626D01*
X114618D01*
Y171677D01*
D02*
G37*
G36*
X110256D02*
X106894D01*
Y167626D01*
X110256D01*
Y171677D01*
D02*
G37*
G36*
X94500Y177918D02*
X73500D01*
X73149Y177848D01*
X72851Y177649D01*
X72652Y177351D01*
X72582Y177000D01*
Y167500D01*
X72652Y167149D01*
X72851Y166851D01*
X73149Y166652D01*
X73500Y166582D01*
X94500D01*
X94851Y166652D01*
X95149Y166851D01*
X95348Y167149D01*
X95418Y167500D01*
Y177000D01*
X95348Y177351D01*
X95149Y177649D01*
X94851Y177848D01*
X94500Y177918D01*
D02*
G37*
G36*
X162362Y172902D02*
X160805D01*
Y163670D01*
X190380D01*
Y168500D01*
X189222D01*
Y164941D01*
X188868Y164587D01*
X161723D01*
Y168752D01*
X162362D01*
Y172902D01*
D02*
G37*
G36*
X50454Y168602D02*
X41598D01*
Y163618D01*
X45035D01*
X46455Y163805D01*
X47777Y164353D01*
X48913Y165225D01*
X49785Y166360D01*
X50332Y167683D01*
X50454Y168602D01*
D02*
G37*
G36*
X18630Y212894D02*
X12039D01*
Y204217D01*
X17289D01*
X17642Y203862D01*
X17391Y171783D01*
X12039D01*
Y163106D01*
X39449D01*
Y163618D01*
X40598D01*
Y169102D01*
Y174586D01*
X37161D01*
X35742Y174399D01*
X34420Y173852D01*
X33284Y172980D01*
X32412Y171844D01*
X32387Y171783D01*
X30648D01*
Y179068D01*
X31242Y179314D01*
X32378Y180185D01*
X33249Y181321D01*
X33797Y182644D01*
X33984Y184063D01*
Y187500D01*
X29730D01*
Y170260D01*
X18297D01*
X18630Y212894D01*
D02*
G37*
G36*
X214678Y168900D02*
X213410D01*
Y163000D01*
X214678D01*
Y166559D01*
X214678D01*
Y168900D01*
D02*
G37*
G36*
X210340D02*
X208922D01*
Y165341D01*
X208922D01*
Y163000D01*
X210340D01*
Y168900D01*
D02*
G37*
G36*
X194978Y168500D02*
X193540D01*
Y162900D01*
X195078D01*
Y166459D01*
X194978D01*
Y168500D01*
D02*
G37*
G36*
X290865Y168954D02*
X290115D01*
X289423Y168667D01*
X288893Y168137D01*
X288606Y167445D01*
Y166695D01*
X288893Y166003D01*
X289423Y165473D01*
X290115Y165186D01*
X290865D01*
X291557Y165473D01*
X291727Y165643D01*
X294371D01*
X294562Y165181D01*
X292029Y162647D01*
X288321D01*
X284144Y166824D01*
Y167065D01*
X283857Y167757D01*
X283327Y168287D01*
X282635Y168574D01*
X281885D01*
X281193Y168287D01*
X280663Y167757D01*
X280376Y167065D01*
Y166315D01*
X280663Y165623D01*
X281193Y165093D01*
X281885Y164806D01*
X282126D01*
X286721Y160211D01*
X286721Y160211D01*
X287184Y159901D01*
X287730Y159793D01*
X287730Y159793D01*
X292620D01*
X292620Y159793D01*
X293166Y159901D01*
X293629Y160211D01*
X297271Y163853D01*
X306269D01*
X313666Y156456D01*
X313459Y155956D01*
X309115D01*
Y155888D01*
X307425D01*
Y156026D01*
X302475D01*
Y155888D01*
X295680D01*
X295329Y155818D01*
X295031Y155619D01*
X294832Y155321D01*
X294762Y154970D01*
Y136990D01*
X294832Y136639D01*
X295031Y136341D01*
X295052Y136327D01*
Y136151D01*
X295316D01*
X295329Y136142D01*
X295680Y136072D01*
X295903D01*
Y134946D01*
X295100D01*
X294554Y134837D01*
X294091Y134528D01*
X293781Y134065D01*
X293673Y133519D01*
Y128983D01*
X293216D01*
Y118324D01*
X296984D01*
Y128983D01*
X296527D01*
Y131681D01*
X296744Y132091D01*
X297291Y132200D01*
X297754Y132509D01*
X298340Y133095D01*
X298340Y133095D01*
X298649Y133558D01*
X298758Y134105D01*
Y136072D01*
X300020D01*
X300371Y136142D01*
X300669Y136341D01*
X300868Y136639D01*
X300938Y136990D01*
Y150372D01*
X302475D01*
Y150288D01*
X307425D01*
Y150372D01*
X309115D01*
Y150218D01*
X314065D01*
Y154876D01*
X314565Y155143D01*
X314683Y155064D01*
Y134657D01*
X306727D01*
Y143851D01*
X307425D01*
Y149589D01*
X302475D01*
Y143851D01*
X303873D01*
Y133616D01*
X303873Y133616D01*
X303917Y133393D01*
X303781Y133191D01*
X303673Y132644D01*
X303673Y132644D01*
Y128983D01*
X303216D01*
Y118324D01*
X306984D01*
Y128983D01*
X306527D01*
Y131803D01*
X315524D01*
X315524Y131803D01*
X316043Y131906D01*
X316078Y131906D01*
X316543Y131625D01*
Y129331D01*
X316089Y128877D01*
X311984D01*
Y128983D01*
X308216D01*
Y118324D01*
X311984D01*
Y126023D01*
X315303D01*
Y124317D01*
X315133Y124147D01*
X314846Y123455D01*
Y122705D01*
X315133Y122013D01*
X315663Y121483D01*
X316355Y121196D01*
X317105D01*
X317797Y121483D01*
X318327Y122013D01*
X318614Y122705D01*
Y123455D01*
X318327Y124147D01*
X318157Y124317D01*
Y126909D01*
X318979Y127731D01*
X318979Y127731D01*
X319289Y128194D01*
X319397Y128740D01*
X319397Y128740D01*
Y156574D01*
X319289Y157121D01*
X318979Y157583D01*
X318979Y157584D01*
X308484Y168079D01*
X308020Y168389D01*
X307474Y168497D01*
X307474Y168497D01*
X291727D01*
X291557Y168667D01*
X290865Y168954D01*
D02*
G37*
G36*
X195078Y161900D02*
X193540D01*
Y156000D01*
X195078D01*
Y158341D01*
Y161900D01*
D02*
G37*
G36*
X214678Y162000D02*
X213410D01*
X213410Y155800D01*
X214678D01*
Y158441D01*
Y162000D01*
D02*
G37*
G36*
X210340D02*
X208922D01*
Y158441D01*
Y155800D01*
X210340D01*
Y162000D01*
D02*
G37*
G36*
X195078Y155000D02*
X193540D01*
Y152960D01*
X192700D01*
Y151441D01*
X195078D01*
Y155000D01*
D02*
G37*
G36*
X190380D02*
X189322D01*
Y151441D01*
X191700D01*
Y152960D01*
X190380D01*
Y155000D01*
D02*
G37*
G36*
X214678Y154800D02*
X213410D01*
Y152690D01*
X212300D01*
Y151241D01*
X214678D01*
Y154800D01*
D02*
G37*
G36*
X210340D02*
X208922D01*
Y151241D01*
X211300D01*
Y152690D01*
X210340D01*
Y154800D01*
D02*
G37*
G36*
X289230Y150089D02*
X286852D01*
Y146530D01*
X288320D01*
Y148580D01*
X289230Y148554D01*
Y150089D01*
D02*
G37*
G36*
X66118Y149012D02*
Y146870D01*
X68260D01*
X68116Y147405D01*
X67764Y148016D01*
X67264Y148515D01*
X66653Y148868D01*
X66118Y149012D01*
D02*
G37*
G36*
X65118D02*
X64583Y148868D01*
X63972Y148515D01*
X63473Y148016D01*
X63120Y147405D01*
X62976Y146870D01*
X65118D01*
Y149012D01*
D02*
G37*
G36*
X292608Y150089D02*
X290230D01*
Y148524D01*
X291070Y148500D01*
X291230Y148340D01*
Y146530D01*
X292608D01*
Y150089D01*
D02*
G37*
G36*
X95470Y146492D02*
X94935Y146348D01*
X94860Y146305D01*
X94785Y146348D01*
X94250Y146492D01*
Y143850D01*
Y141208D01*
X94785Y141352D01*
X94860Y141395D01*
X94935Y141352D01*
X95470Y141208D01*
Y143850D01*
Y146492D01*
D02*
G37*
G36*
X97810D02*
X97275Y146348D01*
X97140Y146270D01*
X97005Y146348D01*
X96470Y146492D01*
Y143850D01*
Y141208D01*
X97005Y141352D01*
X97140Y141430D01*
X97275Y141352D01*
X97810Y141208D01*
Y143850D01*
Y146492D01*
D02*
G37*
G36*
X98810D02*
Y144350D01*
X100952D01*
X100808Y144885D01*
X100455Y145496D01*
X99956Y145995D01*
X99345Y146348D01*
X98810Y146492D01*
D02*
G37*
G36*
X93250D02*
X92715Y146348D01*
X92104Y145995D01*
X91605Y145496D01*
X91252Y144885D01*
X91108Y144350D01*
X93250D01*
Y146492D01*
D02*
G37*
G36*
X60870Y144894D02*
X60335Y144750D01*
X59724Y144397D01*
X59310Y143984D01*
X58896Y144397D01*
X58285Y144750D01*
X57750Y144894D01*
Y142252D01*
Y139610D01*
X58285Y139754D01*
X58896Y140106D01*
X59310Y140520D01*
X59724Y140106D01*
X60335Y139754D01*
X60870Y139610D01*
Y142252D01*
Y144894D01*
D02*
G37*
G36*
X68260Y145870D02*
X62976D01*
X63120Y145335D01*
X63473Y144724D01*
X63886Y144310D01*
X63495Y143919D01*
X63016Y144397D01*
X62405Y144750D01*
X61870Y144894D01*
Y142252D01*
Y139610D01*
X62405Y139754D01*
X63016Y140106D01*
X63495Y140585D01*
X63974Y140106D01*
X64585Y139754D01*
X65120Y139610D01*
Y142252D01*
X65620D01*
Y142752D01*
X68262D01*
X68118Y143287D01*
X67765Y143898D01*
X67352Y144312D01*
X67764Y144724D01*
X68116Y145335D01*
X68260Y145870D01*
D02*
G37*
G36*
X10690Y145802D02*
Y143660D01*
X12832D01*
X12688Y144195D01*
X12335Y144806D01*
X11836Y145305D01*
X11225Y145658D01*
X10690Y145802D01*
D02*
G37*
G36*
X9690D02*
X9155Y145658D01*
X8544Y145305D01*
X8045Y144806D01*
X7692Y144195D01*
X7548Y143660D01*
X9690D01*
Y145802D01*
D02*
G37*
G36*
X56750Y144894D02*
X56215Y144750D01*
X55604Y144397D01*
X55105Y143898D01*
X54752Y143287D01*
X54608Y142752D01*
X56750D01*
Y144894D01*
D02*
G37*
G36*
X100952Y143350D02*
X98810D01*
Y141208D01*
X99345Y141352D01*
X99956Y141705D01*
X100455Y142204D01*
X100808Y142815D01*
X100952Y143350D01*
D02*
G37*
G36*
X93250D02*
X91108D01*
X91252Y142815D01*
X91605Y142204D01*
X92104Y141705D01*
X92715Y141352D01*
X93250Y141208D01*
Y143350D01*
D02*
G37*
G36*
X288320Y145530D02*
X286852D01*
Y141971D01*
X286972D01*
Y141468D01*
X282290D01*
X281939Y141398D01*
X281641Y141199D01*
X281442Y140901D01*
X281372Y140550D01*
Y140074D01*
X281305Y140006D01*
X280952Y139395D01*
X280808Y138860D01*
X282290D01*
Y140550D01*
X288080D01*
X288120Y140510D01*
X288320Y140710D01*
Y145530D01*
D02*
G37*
G36*
X292608D02*
X291230D01*
Y140110D01*
X292728D01*
Y143669D01*
X292608D01*
Y145530D01*
D02*
G37*
G36*
X12832Y142660D02*
X7548D01*
X7692Y142125D01*
X8045Y141514D01*
X8173Y141385D01*
X7975Y141186D01*
X7622Y140575D01*
X7478Y140040D01*
X12762D01*
X12618Y140575D01*
X12265Y141186D01*
X12137Y141315D01*
X12335Y141514D01*
X12688Y142125D01*
X12832Y142660D01*
D02*
G37*
G36*
X68262Y141752D02*
X66120D01*
Y139610D01*
X66655Y139754D01*
X67266Y140106D01*
X67765Y140606D01*
X68118Y141217D01*
X68262Y141752D01*
D02*
G37*
G36*
X56750D02*
X54608D01*
X54752Y141217D01*
X55105Y140606D01*
X55604Y140106D01*
X56215Y139754D01*
X56750Y139610D01*
Y141752D01*
D02*
G37*
G36*
X314065Y149519D02*
X309115D01*
Y143781D01*
X309489D01*
X309497Y143775D01*
X309734Y143281D01*
X309551Y143008D01*
X309443Y142462D01*
X309443Y142461D01*
Y140727D01*
X309273Y140557D01*
X308986Y139865D01*
Y139115D01*
X309273Y138423D01*
X309803Y137893D01*
X310495Y137606D01*
X311245D01*
X311937Y137893D01*
X312467Y138423D01*
X312754Y139115D01*
Y139865D01*
X312467Y140557D01*
X312297Y140727D01*
Y141870D01*
X312599Y142172D01*
X312599Y142172D01*
X312909Y142635D01*
X313017Y143182D01*
Y143781D01*
X314065D01*
Y149519D01*
D02*
G37*
G36*
X12762Y139040D02*
X7478D01*
X7622Y138505D01*
X7975Y137894D01*
X8228Y137640D01*
X7895Y137306D01*
X7542Y136695D01*
X7398Y136160D01*
X12682D01*
X12538Y136695D01*
X12185Y137306D01*
X11932Y137560D01*
X12265Y137894D01*
X12618Y138505D01*
X12762Y139040D01*
D02*
G37*
G36*
X282290Y137860D02*
X280808D01*
X280952Y137325D01*
X281305Y136714D01*
X281804Y136215D01*
X282415Y135862D01*
X282950Y135718D01*
Y137090D01*
X282290D01*
Y137770D01*
Y137860D01*
D02*
G37*
G36*
X292728Y139110D02*
X291230D01*
Y137090D01*
X290350D01*
Y135551D01*
X292728D01*
Y139110D01*
D02*
G37*
G36*
X289350Y137090D02*
X283950D01*
Y135718D01*
X284485Y135862D01*
X285023Y136172D01*
X286972D01*
Y135551D01*
X289350D01*
Y137090D01*
D02*
G37*
G36*
X251375Y141665D02*
X246425D01*
Y135535D01*
X251375D01*
Y141665D01*
D02*
G37*
G36*
X229640Y134442D02*
Y133183D01*
X232040Y133198D01*
Y134342D01*
X231505Y134198D01*
X231354Y134111D01*
X230508Y134106D01*
X230175Y134298D01*
X229640Y134442D01*
D02*
G37*
G36*
X12682Y135160D02*
X10540D01*
Y133018D01*
X11075Y133162D01*
X11686Y133515D01*
X12185Y134014D01*
X12538Y134625D01*
X12682Y135160D01*
D02*
G37*
G36*
X9540D02*
X7398D01*
X7542Y134625D01*
X7895Y134014D01*
X8394Y133515D01*
X9005Y133162D01*
X9540Y133018D01*
Y135160D01*
D02*
G37*
G36*
X228640Y134442D02*
X228105Y134298D01*
X227742Y134088D01*
X227454Y134087D01*
X227281Y134051D01*
X227109Y134017D01*
X227106Y134015D01*
X227103Y134015D01*
X226957Y133916D01*
X226811Y133818D01*
X226810Y133815D01*
X226807Y133814D01*
X226710Y133667D01*
X226612Y133520D01*
X226612Y133517D01*
X226610Y133515D01*
X226577Y133342D01*
X226542Y133169D01*
Y132465D01*
X226498Y132300D01*
X227460D01*
Y133169D01*
X228640Y133177D01*
Y134442D01*
D02*
G37*
G36*
X233040Y134342D02*
Y133204D01*
X234060Y133211D01*
Y132200D01*
X235182D01*
X235038Y132735D01*
X234978Y132840D01*
Y133211D01*
X234977Y133214D01*
X234978Y133217D01*
X234942Y133388D01*
X234908Y133562D01*
X234906Y133564D01*
X234906Y133567D01*
X234807Y133713D01*
X234709Y133860D01*
X234706Y133861D01*
X234705Y133864D01*
X234558Y133960D01*
X234411Y134058D01*
X234408Y134059D01*
X234406Y134061D01*
X234233Y134094D01*
X234060Y134128D01*
X234057Y134128D01*
X234054Y134128D01*
X233700Y134126D01*
X233575Y134198D01*
X233040Y134342D01*
D02*
G37*
G36*
X235182Y131200D02*
X234060D01*
Y130120D01*
X233040D01*
Y129058D01*
X233575Y129202D01*
X233576Y129202D01*
X234060D01*
X234411Y129272D01*
X234709Y129471D01*
X234908Y129769D01*
X234978Y130120D01*
Y130560D01*
X235038Y130665D01*
X235182Y131200D01*
D02*
G37*
G36*
X21960Y123240D02*
X20441D01*
Y120862D01*
X24000D01*
Y122720D01*
X21960D01*
Y123240D01*
D02*
G37*
G36*
X45496Y123276D02*
X38591D01*
Y118339D01*
X45496D01*
Y123276D01*
D02*
G37*
G36*
X39449Y162106D02*
X12039D01*
Y153429D01*
X21042D01*
Y126618D01*
X20441D01*
Y124240D01*
X21960D01*
Y156750D01*
X21830Y156880D01*
X22430Y157480D01*
X37240D01*
Y122920D01*
X37440Y122720D01*
X25000D01*
Y120862D01*
X28559D01*
Y121802D01*
X30685D01*
Y118339D01*
X37591D01*
Y123776D01*
X38091D01*
Y124276D01*
X45496D01*
Y129213D01*
X38158D01*
Y153429D01*
X39449D01*
Y162106D01*
D02*
G37*
G36*
X301984Y128983D02*
X298216D01*
Y118324D01*
X301984D01*
Y128983D01*
D02*
G37*
G36*
X276542Y119237D02*
X276327D01*
X274944Y118867D01*
X273704Y118151D01*
X272692Y117138D01*
X271976Y115899D01*
X271605Y114516D01*
Y114300D01*
X276542D01*
Y119237D01*
D02*
G37*
G36*
X138447Y116134D02*
X135675D01*
Y111197D01*
X138447D01*
Y116134D01*
D02*
G37*
G36*
X276542Y113300D02*
X271605D01*
Y113084D01*
X271976Y111701D01*
X272692Y110462D01*
X273704Y109449D01*
X274944Y108733D01*
X276327Y108363D01*
X276542D01*
Y113300D01*
D02*
G37*
G36*
X17700Y111132D02*
X12527D01*
Y107757D01*
X8224D01*
X8135Y107808D01*
X7600Y107952D01*
Y105310D01*
Y102668D01*
X8135Y102812D01*
X8224Y102863D01*
X12527D01*
Y99273D01*
X17700D01*
Y105202D01*
Y111132D01*
D02*
G37*
G36*
X312584Y111276D02*
X310600D01*
Y105847D01*
X312584D01*
Y111276D01*
D02*
G37*
G36*
X6600Y107952D02*
X6065Y107808D01*
X5454Y107455D01*
X4955Y106956D01*
X4602Y106345D01*
X4458Y105810D01*
X6600D01*
Y107952D01*
D02*
G37*
G36*
X23873Y111132D02*
X18700D01*
Y105702D01*
X23873D01*
Y111132D01*
D02*
G37*
G36*
X6600Y104810D02*
X4458D01*
X4602Y104275D01*
X4955Y103664D01*
X5454Y103165D01*
X6065Y102812D01*
X6600Y102668D01*
Y104810D01*
D02*
G37*
G36*
X158659Y101362D02*
X156715D01*
Y98393D01*
X159290D01*
Y99893D01*
X158630Y99900D01*
X158659Y101362D01*
D02*
G37*
G36*
X64384Y100601D02*
X53726D01*
Y96832D01*
X64384D01*
Y100601D01*
D02*
G37*
G36*
X14400Y120747D02*
X9400D01*
X8464Y120561D01*
X7670Y120030D01*
X7139Y119236D01*
X6953Y118300D01*
X7139Y117364D01*
X7670Y116570D01*
X8464Y116039D01*
X9400Y115853D01*
X13386D01*
X14710Y114530D01*
X15504Y113999D01*
X16440Y113813D01*
X24667D01*
X26953Y111527D01*
Y102720D01*
X27139Y101784D01*
X27670Y100990D01*
X31673Y96986D01*
X32156Y96664D01*
X32004Y96164D01*
X30387D01*
X28564Y97987D01*
X28450Y98157D01*
X23873Y102734D01*
Y104702D01*
X18700D01*
Y99273D01*
X20413D01*
X24876Y94810D01*
X24990Y94640D01*
X27643Y91986D01*
X28437Y91456D01*
X29373Y91269D01*
X34819D01*
Y91232D01*
X40248D01*
Y93717D01*
X41248D01*
Y91232D01*
X46453D01*
X46677Y91232D01*
X46953Y90847D01*
Y85754D01*
X43887Y82688D01*
X43357Y81894D01*
X43273Y81475D01*
X42799D01*
X42643Y81630D01*
X41849Y82161D01*
X40913Y82347D01*
X27055D01*
X23273Y86129D01*
Y93327D01*
X13127D01*
Y82669D01*
X19813D01*
X23808Y78674D01*
X23616Y78212D01*
X20890D01*
X20344Y78103D01*
X19881Y77794D01*
X19881Y77794D01*
X17224Y75136D01*
X15237D01*
X14912Y75502D01*
X14912Y75636D01*
Y81239D01*
X9962D01*
Y75502D01*
X11212D01*
X11537Y75136D01*
X11537Y75002D01*
Y71053D01*
X11537Y71040D01*
X11537Y71040D01*
X11537Y70826D01*
X11037Y70760D01*
X10990Y70937D01*
X10638Y71546D01*
X10140Y72043D01*
X9531Y72395D01*
X8852Y72577D01*
X8148D01*
X7469Y72395D01*
X6860Y72043D01*
X6362Y71546D01*
X6010Y70937D01*
X5828Y70257D01*
Y69554D01*
X6010Y68874D01*
X6362Y68265D01*
X6860Y67768D01*
X7469Y67416D01*
X8148Y67234D01*
X8852D01*
X9531Y67416D01*
X10140Y67768D01*
X10638Y68265D01*
X10990Y68874D01*
X11172Y69554D01*
Y69815D01*
X11197Y70276D01*
X11603Y70580D01*
X11935Y70580D01*
X19242D01*
Y73118D01*
X21482Y75357D01*
X31334D01*
X34673Y72019D01*
Y64544D01*
X34293Y64369D01*
X34087Y64520D01*
Y68675D01*
X32646D01*
Y71181D01*
X32646Y71181D01*
X32537Y71728D01*
X32228Y72191D01*
X32228Y72191D01*
X31009Y73409D01*
X30546Y73719D01*
X30000Y73827D01*
X30000Y73827D01*
X28537D01*
X28367Y73997D01*
X27675Y74284D01*
X26925D01*
X26233Y73997D01*
X25703Y73467D01*
X25416Y72775D01*
Y72025D01*
X25703Y71333D01*
X26233Y70803D01*
X26925Y70516D01*
X27675D01*
X28367Y70803D01*
X28537Y70973D01*
X29409D01*
X29791Y70590D01*
Y68675D01*
X28350D01*
Y63725D01*
X28450D01*
Y59025D01*
X34187D01*
Y59599D01*
X34201Y60073D01*
X34747Y60181D01*
X35211Y60491D01*
X36160Y61440D01*
X36162Y61444D01*
X37109Y62391D01*
X37109Y62391D01*
X37419Y62854D01*
X37527Y63400D01*
Y72610D01*
X37527Y72610D01*
X37419Y73156D01*
X37109Y73619D01*
X33738Y76991D01*
X33929Y77453D01*
X39899D01*
X40083Y77270D01*
X40877Y76739D01*
X41813Y76553D01*
X42413D01*
Y76525D01*
X43553D01*
Y74593D01*
X42541D01*
Y59407D01*
X49459D01*
Y74593D01*
X48447D01*
Y76291D01*
X48850Y76525D01*
X54587D01*
Y76980D01*
X56932Y77354D01*
X57201Y77454D01*
X57482Y77510D01*
X57644Y77618D01*
X57827Y77686D01*
X58037Y77881D01*
X58276Y78040D01*
X59141Y78905D01*
X59255Y79075D01*
X59404Y79216D01*
X61188Y81721D01*
X61302Y81974D01*
X61456Y82205D01*
X61496Y82405D01*
X61580Y82592D01*
X61588Y82869D01*
X61642Y83141D01*
Y86832D01*
X64384D01*
Y90601D01*
X53726D01*
Y86832D01*
X56748D01*
Y83924D01*
X55536Y82222D01*
X55376Y82062D01*
X51698Y81475D01*
X50249D01*
X50057Y81937D01*
X51130Y83010D01*
X51661Y83804D01*
X51847Y84740D01*
Y101959D01*
X51661Y102896D01*
X51130Y103690D01*
X49373Y105447D01*
X48579Y105977D01*
X47643Y106164D01*
X40748D01*
X39812Y105977D01*
X39248Y105601D01*
X35419D01*
Y101832D01*
X39042D01*
X39191Y101664D01*
X38967Y101164D01*
X34417D01*
X31847Y103734D01*
Y112541D01*
X31661Y113477D01*
X31130Y114271D01*
X27959Y117443D01*
Y118538D01*
X26531D01*
X25681Y118707D01*
X17454D01*
X16130Y120030D01*
X15336Y120561D01*
X15181Y120592D01*
X14400Y120747D01*
D02*
G37*
G36*
X64384Y95601D02*
X53726D01*
Y91832D01*
X64384D01*
Y95601D01*
D02*
G37*
G36*
X255115Y149106D02*
X250165D01*
Y142976D01*
X253096D01*
X255930Y140142D01*
Y118425D01*
X255490Y118307D01*
X254387Y117671D01*
X253487Y116770D01*
X252850Y115667D01*
X252520Y114437D01*
Y113163D01*
X252850Y111933D01*
X253487Y110830D01*
X254387Y109929D01*
X255490Y109293D01*
X255930Y109175D01*
Y107143D01*
X255930Y107142D01*
X256039Y106596D01*
X256348Y106133D01*
X260691Y101791D01*
X260691Y101791D01*
X261154Y101481D01*
X261700Y101373D01*
X261700Y101373D01*
X285500D01*
X285500Y101373D01*
X286046Y101481D01*
X286509Y101791D01*
X290109Y105391D01*
X290109Y105391D01*
X290419Y105854D01*
X290527Y106400D01*
X290527Y106400D01*
Y108098D01*
X291977Y109548D01*
X293216D01*
Y100017D01*
X294966D01*
X300453Y94530D01*
X300453Y94530D01*
X300916Y94221D01*
X301462Y94112D01*
X306760D01*
X307511Y93360D01*
Y91610D01*
X313248D01*
Y95379D01*
X309930D01*
X309888Y95441D01*
X310155Y95941D01*
X313248D01*
Y99710D01*
X312584D01*
Y104847D01*
X310100D01*
Y105347D01*
X309600D01*
Y111276D01*
X308298D01*
X308294Y111282D01*
X308294Y111282D01*
X304766Y114809D01*
X304303Y115119D01*
X303757Y115227D01*
X303757Y115227D01*
X282289D01*
X282109Y115899D01*
X281393Y117138D01*
X280381Y118151D01*
X279141Y118867D01*
X277758Y119237D01*
X277542D01*
Y113800D01*
Y108363D01*
X277758D01*
X279141Y108733D01*
X280381Y109449D01*
X281393Y110462D01*
X282109Y111701D01*
X282289Y112373D01*
X290080D01*
X290123Y112316D01*
X290264Y111873D01*
X288091Y109699D01*
X287781Y109236D01*
X287673Y108690D01*
X287673Y108690D01*
Y106991D01*
X284909Y104227D01*
X262291D01*
X258785Y107734D01*
Y109175D01*
X259225Y109293D01*
X260328Y109929D01*
X261228Y110830D01*
X261865Y111933D01*
X262194Y113163D01*
Y114437D01*
X261865Y115667D01*
X261228Y116770D01*
X260328Y117671D01*
X259225Y118307D01*
X258785Y118425D01*
Y140733D01*
X258676Y141279D01*
X258367Y141742D01*
X258367Y141742D01*
X255115Y144994D01*
Y149106D01*
D02*
G37*
G36*
X313710Y90062D02*
X313175Y89918D01*
X312564Y89565D01*
X312395Y89397D01*
X312316Y89475D01*
X311705Y89828D01*
X311170Y89972D01*
Y87330D01*
Y84688D01*
X311705Y84832D01*
X312316Y85185D01*
X312485Y85353D01*
X312564Y85275D01*
X313175Y84922D01*
X313710Y84778D01*
Y87420D01*
Y90062D01*
D02*
G37*
G36*
X310170Y89972D02*
X309635Y89828D01*
X309024Y89475D01*
X308930Y89382D01*
X308866Y89445D01*
X308255Y89798D01*
X307720Y89942D01*
Y87300D01*
Y84658D01*
X308255Y84802D01*
X308866Y85155D01*
X308960Y85248D01*
X309024Y85185D01*
X309635Y84832D01*
X310170Y84688D01*
Y87330D01*
Y89972D01*
D02*
G37*
G36*
X314710Y90062D02*
Y87920D01*
X316852D01*
X316708Y88455D01*
X316355Y89066D01*
X315856Y89565D01*
X315245Y89918D01*
X314710Y90062D01*
D02*
G37*
G36*
X306720Y89942D02*
X306185Y89798D01*
X305574Y89445D01*
X305075Y88946D01*
X304722Y88335D01*
X304578Y87800D01*
X306720D01*
Y89942D01*
D02*
G37*
G36*
X46077Y90601D02*
X35419D01*
Y86832D01*
X46077D01*
Y90601D01*
D02*
G37*
G36*
X127955Y88567D02*
X124337D01*
Y84949D01*
X127955D01*
Y88567D01*
D02*
G37*
G36*
X108888D02*
X105270D01*
Y84949D01*
X108888D01*
Y88567D01*
D02*
G37*
G36*
X316852Y86920D02*
X314710D01*
Y84778D01*
X315245Y84922D01*
X315856Y85275D01*
X316355Y85774D01*
X316708Y86385D01*
X316852Y86920D01*
D02*
G37*
G36*
X306720Y86800D02*
X304578D01*
X304722Y86265D01*
X305075Y85654D01*
X305574Y85155D01*
X306185Y84802D01*
X306720Y84658D01*
Y86800D01*
D02*
G37*
G36*
X123337Y88567D02*
X117112D01*
Y84449D01*
X116112D01*
Y88567D01*
X109888D01*
Y84449D01*
X109388D01*
Y83949D01*
X105270D01*
Y80331D01*
Y77724D01*
X109388D01*
Y76724D01*
X105270D01*
Y73106D01*
Y70500D01*
X109388D01*
Y70000D01*
X109888D01*
Y65882D01*
X116112D01*
Y70000D01*
X117112D01*
Y65882D01*
X123337D01*
Y70000D01*
X123837D01*
Y70500D01*
X127955D01*
Y73106D01*
Y76724D01*
X123837D01*
Y77724D01*
X127955D01*
Y80331D01*
Y83949D01*
X123837D01*
Y84449D01*
X123337D01*
Y88567D01*
D02*
G37*
G36*
X277103Y84864D02*
X266444D01*
Y81096D01*
X277103D01*
Y84864D01*
D02*
G37*
G36*
X243974Y85161D02*
X243146D01*
X242381Y84844D01*
X241796Y84259D01*
X241479Y83494D01*
Y82666D01*
X241796Y81901D01*
X242381Y81316D01*
X243146Y80999D01*
X243974D01*
X244739Y81316D01*
X244996Y81573D01*
X248137D01*
Y81096D01*
X258796D01*
Y84864D01*
X248137D01*
Y84427D01*
X245156D01*
X244739Y84844D01*
X243974Y85161D01*
D02*
G37*
G36*
X277103Y79864D02*
X266444D01*
Y76096D01*
X277103D01*
Y79864D01*
D02*
G37*
G36*
X252966Y75464D02*
X247537D01*
Y73480D01*
X252966D01*
Y75464D01*
D02*
G37*
G36*
X291860Y91877D02*
X291860Y91877D01*
X262470D01*
X261924Y91769D01*
X261461Y91459D01*
X261151Y90996D01*
X261043Y90450D01*
Y76646D01*
X259725Y75328D01*
X259396Y75464D01*
Y75464D01*
X253966D01*
Y72980D01*
Y70496D01*
X259396D01*
Y71553D01*
X259942Y71661D01*
X260183Y71822D01*
X260683Y71555D01*
Y69757D01*
X243477D01*
Y70984D01*
X243678Y71229D01*
X244064D01*
X244829Y71546D01*
X245414Y72131D01*
X245731Y72896D01*
Y73724D01*
X245414Y74489D01*
X244829Y75074D01*
X244064Y75391D01*
X243236D01*
X242471Y75074D01*
X241886Y74489D01*
X241569Y73724D01*
Y73083D01*
X241464Y72997D01*
X241464Y72997D01*
X231847D01*
Y74449D01*
X232201Y74803D01*
X232895Y74803D01*
X233324Y74973D01*
X238045D01*
Y75054D01*
X238875D01*
X238875Y75054D01*
X239421Y75163D01*
X239884Y75472D01*
X240985Y76573D01*
X248137D01*
Y76096D01*
X258796D01*
Y79864D01*
X248137D01*
Y79427D01*
X240393D01*
X239847Y79319D01*
X239384Y79009D01*
X239384Y79009D01*
X238545Y78170D01*
X238045Y78377D01*
Y80710D01*
X233324D01*
X233095Y80710D01*
X232666Y80540D01*
X227945D01*
Y74803D01*
X228993D01*
Y72156D01*
X228993Y72156D01*
X229101Y71609D01*
X229411Y71146D01*
X229996Y70561D01*
X229996Y70561D01*
X230459Y70251D01*
X231006Y70143D01*
X240623D01*
Y68330D01*
X240731Y67784D01*
X241041Y67321D01*
X241504Y67011D01*
X242050Y66903D01*
X262110D01*
X262656Y67011D01*
X263119Y67321D01*
X263429Y67784D01*
X263537Y68330D01*
Y71553D01*
X266444D01*
Y71096D01*
X277021D01*
Y69122D01*
X277682D01*
Y68538D01*
X270131D01*
X269930Y68578D01*
X267440D01*
X267089Y68508D01*
X266791Y68309D01*
X266592Y68011D01*
X266522Y67660D01*
Y67114D01*
X266495Y67086D01*
X266142Y66475D01*
X265998Y65940D01*
X267440D01*
Y67660D01*
X269930D01*
Y67620D01*
X278600D01*
Y70700D01*
X278550Y70650D01*
X278500Y70700D01*
Y73270D01*
X278600D01*
Y73345D01*
X280580D01*
Y74878D01*
X277021D01*
Y74864D01*
X266444D01*
Y74407D01*
X263495D01*
X263304Y74869D01*
X263479Y75045D01*
X263479Y75045D01*
X263789Y75508D01*
X263897Y76054D01*
Y89023D01*
X266444D01*
Y86096D01*
X277103D01*
Y86553D01*
X279653D01*
Y81867D01*
X278625Y81861D01*
X278452Y81826D01*
X278279Y81792D01*
X278277Y81790D01*
X278274Y81789D01*
X278228Y81758D01*
X277621D01*
Y77202D01*
X284341D01*
Y77172D01*
X291259D01*
Y77422D01*
X297160D01*
X297511Y77492D01*
X297793Y77680D01*
X297891Y77661D01*
X298293Y77515D01*
Y75551D01*
X296139Y73397D01*
X291859D01*
Y74848D01*
X288300D01*
Y73270D01*
X290380D01*
X290300Y73190D01*
Y70780D01*
X288300D01*
Y69092D01*
X291859D01*
Y70542D01*
X296730D01*
X296730Y70542D01*
X297276Y70651D01*
X297739Y70960D01*
X300729Y73951D01*
X300729Y73951D01*
X301039Y74414D01*
X301147Y74960D01*
Y82590D01*
X301147Y82590D01*
X301039Y83136D01*
X300729Y83599D01*
X300729Y83599D01*
X292869Y91459D01*
X292406Y91769D01*
X291860Y91877D01*
D02*
G37*
G36*
X285139Y74878D02*
X281580D01*
Y73270D01*
X287300D01*
Y74848D01*
X285139D01*
Y74878D01*
D02*
G37*
G36*
X252966Y72480D02*
X247537D01*
Y70496D01*
X252966D01*
Y72480D01*
D02*
G37*
G36*
X84048Y115368D02*
X74374D01*
Y110025D01*
Y105025D01*
Y100025D01*
Y95025D01*
Y90025D01*
Y85025D01*
Y80025D01*
Y75025D01*
Y69357D01*
X66777D01*
X66607Y69527D01*
X65915Y69814D01*
X65165D01*
X64473Y69527D01*
X63943Y68997D01*
X63656Y68305D01*
Y67555D01*
X63943Y66863D01*
X64473Y66333D01*
X65165Y66046D01*
X65915D01*
X66607Y66333D01*
X66777Y66503D01*
X74374D01*
Y64107D01*
X66667D01*
X66497Y64277D01*
X65805Y64564D01*
X65055D01*
X64363Y64277D01*
X63833Y63747D01*
X63546Y63055D01*
Y62305D01*
X63833Y61613D01*
X64363Y61083D01*
X65055Y60796D01*
X65805D01*
X66497Y61083D01*
X66667Y61253D01*
X74374D01*
Y55025D01*
Y50968D01*
X73774D01*
Y48197D01*
X79211D01*
X84648D01*
Y50968D01*
X84048D01*
Y55025D01*
Y60025D01*
Y65025D01*
Y70025D01*
Y75025D01*
Y80025D01*
Y85025D01*
Y90025D01*
Y95025D01*
Y100025D01*
Y105025D01*
Y110025D01*
Y115368D01*
D02*
G37*
G36*
X287300Y70780D02*
X281090D01*
Y65130D01*
X269930D01*
Y61900D01*
X271282D01*
X271138Y62435D01*
X270848Y62938D01*
Y63902D01*
X271027Y64212D01*
X278919D01*
X279325Y63986D01*
X279325Y63712D01*
Y57855D01*
X284275D01*
Y63986D01*
X281898D01*
X281739Y64481D01*
X281938Y64779D01*
X282008Y65130D01*
Y69122D01*
X283741D01*
Y69092D01*
X287300D01*
Y70780D01*
D02*
G37*
G36*
X127955Y69500D02*
X124337D01*
Y65882D01*
X127955D01*
Y69500D01*
D02*
G37*
G36*
X108888D02*
X105270D01*
Y65882D01*
X108888D01*
Y69500D01*
D02*
G37*
G36*
X173415Y71186D02*
X168465D01*
Y65055D01*
X173415D01*
Y66485D01*
X174283D01*
Y65415D01*
X180020D01*
Y70365D01*
X174283D01*
Y69340D01*
X173415D01*
Y71186D01*
D02*
G37*
G36*
X166535Y67620D02*
X163960D01*
Y64455D01*
X166535D01*
Y67620D01*
D02*
G37*
G36*
X162960D02*
X160385D01*
Y64455D01*
X162960D01*
Y67620D01*
D02*
G37*
G36*
X267440Y64940D02*
X265998D01*
X266142Y64405D01*
X266495Y63794D01*
X266522Y63766D01*
Y63074D01*
X266495Y63046D01*
X266142Y62435D01*
X265998Y61900D01*
X267440D01*
Y64940D01*
D02*
G37*
G36*
X271282Y60900D02*
X269930D01*
Y59245D01*
X267440D01*
Y60900D01*
X265998D01*
X266142Y60365D01*
X266495Y59754D01*
X266522Y59726D01*
Y59245D01*
X266592Y58894D01*
X266791Y58596D01*
X267089Y58397D01*
X267440Y58327D01*
X269930D01*
X270281Y58397D01*
X270579Y58596D01*
X270778Y58894D01*
X270848Y59245D01*
Y59861D01*
X271138Y60365D01*
X271282Y60900D01*
D02*
G37*
G36*
X151577Y47197D02*
X146140D01*
X140703D01*
Y45394D01*
X140348Y45041D01*
X84648Y45260D01*
Y47197D01*
X79211D01*
X73774D01*
Y44425D01*
X77100D01*
Y42532D01*
X76900Y42368D01*
X71462D01*
X71458Y42390D01*
X71259Y42688D01*
X70961Y42886D01*
X70610Y42956D01*
X62790D01*
X62439Y42886D01*
X62141Y42688D01*
X61942Y42390D01*
X61938Y42368D01*
X60386D01*
Y42815D01*
X57221D01*
Y41450D01*
X62790D01*
Y42039D01*
X70610D01*
Y41450D01*
X76900D01*
Y38370D01*
X70610D01*
Y30777D01*
X62790D01*
Y38370D01*
X57221D01*
Y36665D01*
X60386D01*
Y37452D01*
X61872D01*
Y30777D01*
X61942Y30425D01*
X62141Y30128D01*
X62439Y29929D01*
X62790Y29859D01*
X70610D01*
X70961Y29929D01*
X71259Y30128D01*
X71458Y30425D01*
X71528Y30777D01*
Y37452D01*
X76900D01*
X77100Y37288D01*
Y16690D01*
X148870D01*
X148870Y44425D01*
X151577D01*
Y47197D01*
D02*
G37*
G36*
X269140Y46522D02*
Y44380D01*
X271282D01*
X271138Y44915D01*
X270785Y45526D01*
X270286Y46025D01*
X269675Y46378D01*
X269140Y46522D01*
D02*
G37*
G36*
X268140D02*
X267605Y46378D01*
X266994Y46025D01*
X266495Y45526D01*
X266142Y44915D01*
X265998Y44380D01*
X268140D01*
Y46522D01*
D02*
G37*
G36*
X71720Y128625D02*
X67576D01*
X67515Y128613D01*
X54907D01*
Y118939D01*
X64011D01*
X64482Y118916D01*
X64588Y118939D01*
X66109D01*
X66459Y118581D01*
X66176Y105608D01*
X61474D01*
X61440Y105601D01*
X53726D01*
Y101832D01*
X64384D01*
Y101902D01*
X65727D01*
X66075Y101543D01*
X65304Y77741D01*
X53581Y74593D01*
X50809D01*
Y60546D01*
X50783Y60445D01*
X50787Y60422D01*
X50782Y60400D01*
X50809Y60268D01*
Y59407D01*
X50882D01*
Y44800D01*
X50952Y44449D01*
X51151Y44151D01*
X51449Y43952D01*
X51800Y43882D01*
X56800D01*
X57151Y43952D01*
X57449Y44151D01*
X57648Y44449D01*
X57718Y44800D01*
Y59407D01*
X57727D01*
Y69386D01*
X69692Y72539D01*
X69739Y72562D01*
X69790Y72571D01*
X71815Y73355D01*
X71822Y73359D01*
X71831Y73361D01*
X71972Y73455D01*
X72117Y73547D01*
X72122Y73554D01*
X72129Y73559D01*
X72224Y73700D01*
X72323Y73840D01*
X72325Y73848D01*
X72329Y73856D01*
X72364Y74023D01*
X72401Y74189D01*
X72399Y74198D01*
X72401Y74206D01*
X72638Y127703D01*
X72637Y127705D01*
X72638Y127707D01*
X72603Y127881D01*
X72569Y128055D01*
X72568Y128056D01*
X72568Y128058D01*
X72470Y128205D01*
X72372Y128353D01*
X72370Y128354D01*
X72369Y128356D01*
X72222Y128454D01*
X72075Y128553D01*
X72073Y128554D01*
X72071Y128555D01*
X71898Y128589D01*
X71724Y128625D01*
X71722Y128624D01*
X71720Y128625D01*
D02*
G37*
G36*
X249291Y49209D02*
Y40354D01*
X254275D01*
Y43791D01*
X254088Y45211D01*
X253541Y46533D01*
X252669Y47669D01*
X251533Y48541D01*
X250211Y49088D01*
X249291Y49209D01*
D02*
G37*
G36*
X248291Y49209D02*
X247372Y49088D01*
X246049Y48541D01*
X244914Y47669D01*
X244042Y46533D01*
X243494Y45211D01*
X243307Y43791D01*
Y40354D01*
X248291D01*
Y49209D01*
D02*
G37*
G36*
X56221Y42815D02*
X53055D01*
Y40240D01*
X54592D01*
X54600Y41450D01*
X56221D01*
Y42815D01*
D02*
G37*
G36*
X159838Y46100D02*
X158240D01*
Y39900D01*
X159798D01*
Y42541D01*
X159838D01*
Y46100D01*
D02*
G37*
G36*
X155320D02*
X154082D01*
Y43459D01*
X154042D01*
Y39900D01*
X155320D01*
Y46100D01*
D02*
G37*
G36*
X54586Y39240D02*
X53055D01*
Y36665D01*
X56221D01*
Y38370D01*
X54580D01*
X54586Y39240D01*
D02*
G37*
G36*
X25637Y41179D02*
X24363D01*
X23133Y40850D01*
X22030Y40213D01*
X21129Y39312D01*
X20493Y38210D01*
X20163Y36979D01*
Y35706D01*
X20493Y34475D01*
X21129Y33373D01*
X22030Y32472D01*
X23133Y31835D01*
X24363Y31506D01*
X25637D01*
X26867Y31835D01*
X27970Y32472D01*
X28871Y33373D01*
X29145Y33848D01*
X46214Y33655D01*
Y33525D01*
X52345D01*
Y38475D01*
X49170D01*
X48888Y38506D01*
X48764Y38496D01*
X48642Y38522D01*
X29200Y38742D01*
X28871Y39312D01*
X27970Y40213D01*
X26867Y40850D01*
X25637Y41179D01*
D02*
G37*
G36*
X159798Y38900D02*
X158240D01*
Y32300D01*
X159638D01*
Y35341D01*
X159798D01*
Y38900D01*
D02*
G37*
G36*
X155320D02*
X154042D01*
Y35859D01*
X153882D01*
Y32300D01*
X155320D01*
Y38900D01*
D02*
G37*
G36*
X159638Y31300D02*
X158240D01*
Y25890D01*
X159392D01*
X159248Y26425D01*
X159158Y26582D01*
Y27741D01*
X159638D01*
Y31300D01*
D02*
G37*
G36*
X155320D02*
X153882D01*
Y27741D01*
X154402D01*
Y26686D01*
X154252Y26425D01*
X154108Y25890D01*
X155320D01*
Y31300D01*
D02*
G37*
G36*
X264465Y38205D02*
X255787D01*
Y25000D01*
X264465D01*
Y38205D01*
D02*
G37*
G36*
X254275Y39354D02*
X248791D01*
X243307D01*
Y35917D01*
X243494Y34498D01*
X244042Y33175D01*
X244914Y32040D01*
X246049Y31168D01*
X246110Y31143D01*
Y25000D01*
X254787D01*
Y38205D01*
X254275D01*
Y39354D01*
D02*
G37*
G36*
X204000Y38205D02*
X195323D01*
Y25000D01*
X204000D01*
Y38205D01*
D02*
G37*
G36*
X59786Y34735D02*
X53655D01*
Y29785D01*
X53655D01*
X53850Y29375D01*
Y24425D01*
X59587D01*
Y29375D01*
X59786Y29785D01*
X59786D01*
Y34735D01*
D02*
G37*
G36*
X159392Y24890D02*
X158240D01*
Y22030D01*
X159462D01*
X159318Y22565D01*
X159158Y22843D01*
Y24198D01*
X159248Y24355D01*
X159392Y24890D01*
D02*
G37*
G36*
X155320D02*
X154108D01*
X154252Y24355D01*
X154402Y24094D01*
Y22705D01*
X154322Y22565D01*
X154178Y22030D01*
X155320D01*
Y24890D01*
D02*
G37*
G36*
X59587Y23675D02*
X53850D01*
Y18725D01*
X54222D01*
Y15700D01*
X57100D01*
Y15200D01*
X57600D01*
Y11141D01*
X59978D01*
Y12273D01*
X63739D01*
Y11587D01*
X63922Y10905D01*
X64275Y10294D01*
X64774Y9795D01*
X65385Y9442D01*
X65920Y9298D01*
Y11940D01*
X66420D01*
Y12440D01*
X69062D01*
X68918Y12975D01*
X68565Y13586D01*
X68299Y13853D01*
X68284Y13967D01*
X67992Y14672D01*
X67527Y15278D01*
X66921Y15743D01*
X66216Y16035D01*
X65775Y16093D01*
X65596Y16142D01*
X65459Y16147D01*
X65459Y16147D01*
X65459Y16147D01*
X59978D01*
Y19259D01*
X59587D01*
Y19773D01*
X62963D01*
X63233Y19503D01*
X63925Y19216D01*
X64675D01*
X65367Y19503D01*
X65897Y20033D01*
X66184Y20725D01*
Y21475D01*
X65897Y22167D01*
X65367Y22697D01*
X64675Y22984D01*
X63925D01*
X63233Y22697D01*
X63163Y22627D01*
X59587D01*
Y23675D01*
D02*
G37*
G36*
X159462Y21030D02*
X158240D01*
Y20080D01*
X157320D01*
Y18888D01*
X157855Y19032D01*
X158081Y19162D01*
X158240D01*
X158591Y19232D01*
X158889Y19431D01*
X159088Y19729D01*
X159158Y20080D01*
Y20217D01*
X159318Y20495D01*
X159462Y21030D01*
D02*
G37*
G36*
X155320D02*
X154178D01*
X154322Y20495D01*
X154402Y20355D01*
Y20080D01*
X154472Y19729D01*
X154671Y19431D01*
X154969Y19232D01*
X155320Y19162D01*
X155559D01*
X155785Y19032D01*
X156320Y18888D01*
Y20080D01*
X155320D01*
Y21030D01*
D02*
G37*
G36*
X53150Y29375D02*
X47413D01*
Y24425D01*
X47835D01*
Y23675D01*
X47413D01*
Y19129D01*
X47342Y18659D01*
X46842Y18503D01*
X46221Y18918D01*
X45284Y19105D01*
X29173D01*
X28871Y19627D01*
X27970Y20528D01*
X26867Y21165D01*
X25637Y21495D01*
X24363D01*
X23133Y21165D01*
X22030Y20528D01*
X21129Y19627D01*
X20493Y18525D01*
X20163Y17294D01*
Y16021D01*
X20493Y14791D01*
X21129Y13688D01*
X22030Y12787D01*
X23133Y12150D01*
X24363Y11821D01*
X25637D01*
X26867Y12150D01*
X27970Y12787D01*
X28871Y13688D01*
X29173Y14210D01*
X44271D01*
X45011Y13470D01*
X45805Y12939D01*
X46742Y12753D01*
X47342D01*
Y11741D01*
X51898D01*
Y14350D01*
X52067Y15200D01*
X51898Y16050D01*
X51898Y18659D01*
X52370Y18725D01*
X53150D01*
Y23675D01*
X52728D01*
Y24425D01*
X53150D01*
Y29375D01*
D02*
G37*
G36*
X182820Y17402D02*
Y15260D01*
X184962D01*
X184818Y15795D01*
X184465Y16406D01*
X183966Y16905D01*
X183355Y17258D01*
X182820Y17402D01*
D02*
G37*
G36*
X181820D02*
X181285Y17258D01*
X180674Y16905D01*
X180175Y16406D01*
X179822Y15795D01*
X179678Y15260D01*
X181820D01*
Y17402D01*
D02*
G37*
G36*
X56600Y14700D02*
X54222D01*
Y11141D01*
X56600D01*
Y14700D01*
D02*
G37*
G36*
X184962Y14260D02*
X179678D01*
X179822Y13725D01*
X180175Y13114D01*
X180618Y12670D01*
X180225Y12276D01*
X179872Y11665D01*
X179728Y11130D01*
X185012D01*
X184868Y11665D01*
X184515Y12276D01*
X184072Y12720D01*
X184465Y13114D01*
X184818Y13725D01*
X184962Y14260D01*
D02*
G37*
G36*
X264465Y24000D02*
X255787D01*
Y10795D01*
X264465D01*
Y24000D01*
D02*
G37*
G36*
X254787D02*
X246110D01*
Y10795D01*
X254787D01*
Y24000D01*
D02*
G37*
G36*
X213677Y38205D02*
X205000D01*
Y24500D01*
Y10795D01*
X213677D01*
Y20122D01*
X240100D01*
X240451Y20192D01*
X240749Y20391D01*
X240948Y20689D01*
X241018Y21040D01*
X240948Y21391D01*
X240749Y21689D01*
X240748Y21690D01*
Y34300D01*
X240747Y34302D01*
X240748Y34304D01*
X240712Y34477D01*
X240678Y34651D01*
X240677Y34653D01*
X240676Y34655D01*
X240578Y34801D01*
X240479Y34949D01*
X240477Y34950D01*
X240476Y34952D01*
X240330Y35049D01*
X240181Y35148D01*
X240179Y35148D01*
X240178Y35149D01*
X240005Y35183D01*
X239830Y35218D01*
X239828Y35217D01*
X239826Y35218D01*
X214032Y35109D01*
X213677Y35462D01*
Y38205D01*
D02*
G37*
G36*
X204000Y24000D02*
X195323D01*
Y10795D01*
X204000D01*
Y24000D01*
D02*
G37*
G36*
X69062Y11440D02*
X66920D01*
Y9298D01*
X67455Y9442D01*
X68066Y9795D01*
X68565Y10294D01*
X68918Y10905D01*
X69062Y11440D01*
D02*
G37*
G36*
X185012Y10130D02*
X179728D01*
X179872Y9595D01*
X180225Y8984D01*
X180483Y8725D01*
X180275Y8516D01*
X179922Y7905D01*
X179778Y7370D01*
X185062D01*
X184918Y7905D01*
X184565Y8516D01*
X184307Y8775D01*
X184515Y8984D01*
X184868Y9595D01*
X185012Y10130D01*
D02*
G37*
G36*
X311703Y15943D02*
X302422D01*
Y7056D01*
X311703D01*
Y15943D01*
D02*
G37*
G36*
X230556Y14573D02*
X229231D01*
X227951Y14230D01*
X226803Y13567D01*
X225866Y12630D01*
X225203Y11482D01*
X224860Y10202D01*
Y8877D01*
X225203Y7596D01*
X225866Y6448D01*
X226803Y5511D01*
X227951Y4849D01*
X229231Y4505D01*
X230556D01*
X231837Y4849D01*
X232985Y5511D01*
X233922Y6448D01*
X234584Y7596D01*
X234928Y8877D01*
Y10202D01*
X234584Y11482D01*
X233922Y12630D01*
X232985Y13567D01*
X231837Y14230D01*
X230556Y14573D01*
D02*
G37*
%LPD*%
G36*
X124160Y196930D02*
X123553Y196123D01*
X116200Y189910D01*
X114920Y195410D01*
X124160Y202050D01*
X124160Y196930D01*
D02*
G37*
G36*
X94500Y167500D02*
X73500D01*
Y177000D01*
X94500D01*
Y167500D01*
D02*
G37*
G36*
X313050Y151290D02*
X313010Y151250D01*
X312970Y151290D01*
X300020D01*
Y136990D01*
X295680D01*
Y154970D01*
X313050D01*
Y151290D01*
D02*
G37*
G36*
X297997Y82294D02*
X297977Y82183D01*
X297938Y82135D01*
X297624Y81957D01*
X297421Y81911D01*
X297333Y81928D01*
X297160Y81962D01*
X297158Y81962D01*
X297155Y81962D01*
X282862Y81884D01*
X282507Y82237D01*
Y87980D01*
X282399Y88526D01*
X282668Y89023D01*
X291269D01*
X297997Y82294D01*
D02*
G37*
G36*
X297160Y78340D02*
X278630D01*
Y80944D01*
X297160Y81045D01*
Y78340D01*
D02*
G37*
G36*
X71483Y74210D02*
X69458Y73426D01*
X51900Y68800D01*
X51900Y73191D01*
X66200Y77031D01*
X67034Y102820D01*
X61417D01*
X61474Y104690D01*
X67074D01*
X67576Y127707D01*
X71720D01*
X71483Y74210D01*
D02*
G37*
G36*
X56800Y44800D02*
X51800D01*
Y60159D01*
X51798Y60192D01*
X51785Y60258D01*
X51760Y60320D01*
X51723Y60375D01*
X51700Y60400D01*
X56800D01*
Y44800D01*
D02*
G37*
G36*
X239830Y21310D02*
X240100Y21040D01*
X208680D01*
Y34040D01*
X208810Y34170D01*
X239830Y34300D01*
Y21310D01*
D02*
G37*
%LPC*%
G36*
X150216Y244937D02*
X150000D01*
Y240000D01*
X154937D01*
Y240216D01*
X154567Y241599D01*
X153851Y242838D01*
X152838Y243851D01*
X151599Y244566D01*
X150216Y244937D01*
D02*
G37*
G36*
X149000D02*
X148784D01*
X147401Y244566D01*
X146162Y243851D01*
X145149Y242838D01*
X144433Y241599D01*
X144063Y240216D01*
Y240000D01*
X149000D01*
Y244937D01*
D02*
G37*
G36*
X154937Y239000D02*
X150000D01*
Y234063D01*
X150216D01*
X151599Y234434D01*
X152838Y235149D01*
X153851Y236162D01*
X154567Y237401D01*
X154937Y238784D01*
Y239000D01*
D02*
G37*
G36*
X149000D02*
X144063D01*
Y238784D01*
X144433Y237401D01*
X145149Y236162D01*
X146162Y235149D01*
X147401Y234434D01*
X148784Y234063D01*
X149000D01*
Y239000D01*
D02*
G37*
G36*
X114618Y211374D02*
X111256D01*
Y207323D01*
X114618D01*
Y211374D01*
D02*
G37*
G36*
X110256D02*
X106894D01*
Y207323D01*
X110256D01*
Y211374D01*
D02*
G37*
G36*
X114618Y206323D02*
X111256D01*
Y202272D01*
X114618D01*
Y206323D01*
D02*
G37*
G36*
X110256D02*
X106894D01*
Y202272D01*
X110256D01*
Y206323D01*
D02*
G37*
G36*
X44558Y313937D02*
X44342D01*
Y309000D01*
X49279D01*
Y309216D01*
X48909Y310599D01*
X48193Y311838D01*
X47181Y312851D01*
X45941Y313566D01*
X44558Y313937D01*
D02*
G37*
G36*
X43343D02*
X43127D01*
X41744Y313566D01*
X40504Y312851D01*
X39492Y311838D01*
X38776Y310599D01*
X38405Y309216D01*
Y309000D01*
X43343D01*
Y313937D01*
D02*
G37*
G36*
X49279Y308000D02*
X44342D01*
Y303063D01*
X44558D01*
X45941Y303433D01*
X47181Y304149D01*
X48193Y305162D01*
X48909Y306401D01*
X49279Y307784D01*
Y308000D01*
D02*
G37*
G36*
X43343D02*
X38405D01*
Y307784D01*
X38776Y306401D01*
X39492Y305162D01*
X40504Y304149D01*
X41744Y303433D01*
X43127Y303063D01*
X43343D01*
Y308000D01*
D02*
G37*
G36*
X45401Y263937D02*
X45185D01*
Y259000D01*
X50122D01*
Y259216D01*
X49751Y260599D01*
X49036Y261838D01*
X48024Y262851D01*
X46784Y263566D01*
X45401Y263937D01*
D02*
G37*
G36*
X44185D02*
X43969D01*
X42586Y263566D01*
X41347Y262851D01*
X40334Y261838D01*
X39619Y260599D01*
X39248Y259216D01*
Y259000D01*
X44185D01*
Y263937D01*
D02*
G37*
G36*
X50122Y258000D02*
X45185D01*
Y253063D01*
X45401D01*
X46784Y253433D01*
X48024Y254149D01*
X49036Y255162D01*
X49751Y256401D01*
X50122Y257784D01*
Y258000D01*
D02*
G37*
G36*
X44185D02*
X39248D01*
Y257784D01*
X39619Y256401D01*
X40334Y255162D01*
X41347Y254149D01*
X42586Y253433D01*
X43969Y253063D01*
X44185D01*
Y258000D01*
D02*
G37*
G36*
X146879Y160355D02*
X143910D01*
Y158900D01*
X145260D01*
X145300Y158860D01*
Y157780D01*
X146879D01*
Y160355D01*
D02*
G37*
G36*
X406528Y120132D02*
X400082D01*
Y119402D01*
X396732D01*
X396677Y119457D01*
X395985Y119744D01*
X395235D01*
X394543Y119457D01*
X394013Y118927D01*
X393726Y118235D01*
Y117485D01*
X394013Y116793D01*
X394543Y116263D01*
X395235Y115976D01*
X395985D01*
X396677Y116263D01*
X396962Y116548D01*
X400082D01*
Y116048D01*
X406528D01*
Y120132D01*
D02*
G37*
G36*
Y115132D02*
X400082D01*
Y114532D01*
X396722D01*
X396537Y114717D01*
X395845Y115004D01*
X395095D01*
X394403Y114717D01*
X393873Y114187D01*
X393586Y113495D01*
Y112745D01*
X393873Y112053D01*
X394403Y111523D01*
X395095Y111236D01*
X395845D01*
X396537Y111523D01*
X396692Y111678D01*
X400082D01*
Y111048D01*
X406528D01*
Y115132D01*
D02*
G37*
G36*
X383930Y114182D02*
X383395Y114038D01*
X382784Y113685D01*
X382555Y113457D01*
X382366Y113645D01*
X381755Y113998D01*
X381220Y114142D01*
Y111500D01*
Y108858D01*
X381755Y109002D01*
X382366Y109355D01*
X382595Y109583D01*
X382784Y109395D01*
X383395Y109042D01*
X383930Y108898D01*
Y111540D01*
Y114182D01*
D02*
G37*
G36*
X344534Y121111D02*
X342566D01*
X341714Y120999D01*
X340921Y120671D01*
X340239Y120148D01*
X339716Y119466D01*
X339387Y118673D01*
X339275Y117821D01*
X339387Y116969D01*
X339716Y116176D01*
X340174Y115579D01*
X340239Y115221D01*
Y114998D01*
X339811Y114670D01*
X339192Y113863D01*
X338803Y112924D01*
X338736Y112416D01*
X343550D01*
X348364D01*
X348297Y112924D01*
X347908Y113863D01*
X347289Y114670D01*
X346861Y114998D01*
Y115221D01*
X346926Y115579D01*
X347384Y116176D01*
X347712Y116969D01*
X347825Y117821D01*
X347712Y118673D01*
X347384Y119466D01*
X346861Y120148D01*
X346179Y120671D01*
X345386Y120999D01*
X344534Y121111D01*
D02*
G37*
G36*
X384930Y114182D02*
Y112040D01*
X387072D01*
X386928Y112575D01*
X386575Y113186D01*
X386076Y113685D01*
X385465Y114038D01*
X384930Y114182D01*
D02*
G37*
G36*
X380220Y114142D02*
X379685Y113998D01*
X379074Y113645D01*
X378575Y113146D01*
X378222Y112535D01*
X378078Y112000D01*
X380220D01*
Y114142D01*
D02*
G37*
G36*
X445210Y114720D02*
X442832D01*
Y111161D01*
X445210D01*
Y114720D01*
D02*
G37*
G36*
X427473Y115132D02*
X421027D01*
Y111048D01*
X427473D01*
Y111048D01*
X427973Y111171D01*
X428273Y110871D01*
X428273Y110871D01*
X428737Y110561D01*
X429283Y110453D01*
X429283Y110453D01*
X431433D01*
X431603Y110283D01*
X432295Y109996D01*
X433045D01*
X433737Y110283D01*
X434267Y110813D01*
X434554Y111505D01*
Y112255D01*
X434267Y112947D01*
X433737Y113477D01*
X433045Y113764D01*
X432295D01*
X431603Y113477D01*
X431433Y113307D01*
X429874D01*
X429082Y114099D01*
X428619Y114409D01*
X428073Y114517D01*
X428073Y114517D01*
X427473D01*
Y115132D01*
D02*
G37*
G36*
X406528Y110132D02*
X400082D01*
Y109532D01*
X396992D01*
X396807Y109717D01*
X396115Y110004D01*
X395365D01*
X394673Y109717D01*
X394143Y109187D01*
X393856Y108495D01*
Y107745D01*
X394143Y107053D01*
X394673Y106523D01*
X395365Y106236D01*
X396115D01*
X396807Y106523D01*
X396962Y106678D01*
X400082D01*
Y106048D01*
X406528D01*
Y110132D01*
D02*
G37*
G36*
X387072Y111040D02*
X384930D01*
Y108898D01*
X385465Y109042D01*
X386076Y109395D01*
X386575Y109894D01*
X386928Y110505D01*
X387072Y111040D01*
D02*
G37*
G36*
X380220Y111000D02*
X378078D01*
X378222Y110465D01*
X378575Y109854D01*
X379074Y109355D01*
X379685Y109002D01*
X380220Y108858D01*
Y111000D01*
D02*
G37*
G36*
X406528Y105132D02*
X400082D01*
Y104517D01*
X396172D01*
X396172Y104517D01*
X396140Y104511D01*
X395915Y104604D01*
X395165D01*
X394473Y104317D01*
X393943Y103787D01*
X393656Y103095D01*
Y102345D01*
X393943Y101653D01*
X394473Y101123D01*
X395165Y100836D01*
X395915D01*
X396607Y101123D01*
X397137Y101653D01*
X397142Y101663D01*
X400082D01*
Y101048D01*
X406528D01*
Y105132D01*
D02*
G37*
G36*
X427473D02*
X421027D01*
Y101048D01*
X427473D01*
Y105132D01*
D02*
G37*
G36*
X406528Y100132D02*
X400082D01*
Y99517D01*
X397694D01*
X397694Y99517D01*
X397148Y99409D01*
X396685Y99099D01*
X396685Y99099D01*
X396513Y98927D01*
X389510D01*
X389510Y98927D01*
X388964Y98819D01*
X388501Y98509D01*
X388501Y98509D01*
X384239Y94247D01*
X382047D01*
Y95295D01*
X376310Y95295D01*
X376210Y95753D01*
Y95895D01*
X373241D01*
Y92820D01*
X372241D01*
Y95895D01*
X369273D01*
Y94247D01*
X365986D01*
X365440Y94139D01*
X364976Y93829D01*
X364976Y93829D01*
X364391Y93244D01*
X364081Y92781D01*
X363973Y92234D01*
X363973Y92234D01*
Y86818D01*
X363936Y86634D01*
X363936Y86634D01*
Y73088D01*
X363234Y72682D01*
X362588Y72036D01*
X362131Y71245D01*
X361907Y70407D01*
X368820D01*
X368596Y71245D01*
X368139Y72036D01*
X367493Y72682D01*
X366791Y73088D01*
Y85793D01*
X369352D01*
Y83161D01*
X371730D01*
Y87220D01*
X372230D01*
Y87720D01*
X375108D01*
Y89745D01*
X376210D01*
Y89887D01*
X376310Y90345D01*
X376710Y90345D01*
X377432D01*
Y83761D01*
X378109D01*
Y72395D01*
X377775Y72202D01*
X377241Y71668D01*
X376864Y71014D01*
X376668Y70284D01*
Y69529D01*
X376864Y68799D01*
X377241Y68145D01*
X377775Y67611D01*
X378429Y67234D01*
X379159Y67038D01*
X379914D01*
X380644Y67234D01*
X381298Y67611D01*
X381832Y68145D01*
X382210Y68799D01*
X382405Y69529D01*
Y70284D01*
X382210Y71014D01*
X381832Y71668D01*
X381298Y72202D01*
X380964Y72395D01*
Y83761D01*
X381988D01*
Y90345D01*
X382047D01*
Y91393D01*
X384830D01*
X384830Y91393D01*
X385376Y91501D01*
X385839Y91811D01*
X390101Y96073D01*
X397104D01*
X397104Y96073D01*
X397650Y96181D01*
X398113Y96491D01*
X398285Y96663D01*
X400082D01*
Y96048D01*
X406528D01*
Y100132D01*
D02*
G37*
G36*
Y95132D02*
X400082D01*
Y94517D01*
X396777D01*
X396607Y94687D01*
X395915Y94974D01*
X395165D01*
X394473Y94687D01*
X393943Y94157D01*
X393656Y93465D01*
Y92715D01*
X393943Y92023D01*
X394473Y91493D01*
X395165Y91206D01*
X395915D01*
X396607Y91493D01*
X396777Y91663D01*
X399729D01*
X399913Y91479D01*
X399894Y90887D01*
X399713Y90732D01*
X399482D01*
Y88188D01*
X397982Y86687D01*
X397394D01*
X397186Y86895D01*
X396575Y87248D01*
X396040Y87392D01*
Y84750D01*
X395540D01*
Y84250D01*
X392898D01*
X393042Y83715D01*
X393395Y83104D01*
X393620Y82878D01*
X393821Y82498D01*
X393620Y82202D01*
X393355Y81936D01*
X393002Y81325D01*
X392858Y80790D01*
X398142D01*
X397998Y81325D01*
X397645Y81936D01*
X397420Y82162D01*
X397312Y82367D01*
X397587Y82813D01*
X398784D01*
X399525Y82960D01*
X400154Y83380D01*
X402222Y85448D01*
X402805D01*
Y88090D01*
X403305D01*
Y88590D01*
X407128D01*
Y90732D01*
X406897D01*
X406528Y91048D01*
X406528Y91232D01*
Y95132D01*
D02*
G37*
G36*
X427473D02*
X421027D01*
Y91048D01*
X427473D01*
Y91663D01*
X428563D01*
Y83107D01*
X411100D01*
X411100Y83107D01*
X410554Y82999D01*
X410091Y82689D01*
X410091Y82689D01*
X407111Y79709D01*
X406801Y79246D01*
X406692Y78700D01*
X406692Y78700D01*
Y77269D01*
X405842D01*
Y70351D01*
X410398D01*
Y77269D01*
X409547D01*
Y78109D01*
X411691Y80253D01*
X414042D01*
X414310Y79753D01*
X414281Y79711D01*
X414173Y79164D01*
X414173Y79164D01*
Y77269D01*
X413322D01*
Y70351D01*
X417878D01*
Y77269D01*
X417028D01*
Y78323D01*
X430430D01*
X430430Y78323D01*
X430976Y78431D01*
X431439Y78741D01*
X432999Y80301D01*
X432999Y80301D01*
X433309Y80764D01*
X433417Y81310D01*
Y90903D01*
X436063D01*
Y89855D01*
X441800D01*
Y94805D01*
X436063D01*
Y93757D01*
X432576D01*
X432029Y93649D01*
X431627Y93380D01*
X431417Y93381D01*
X431013Y93493D01*
X430999Y93514D01*
X430999Y93514D01*
X430414Y94099D01*
X429951Y94409D01*
X429404Y94517D01*
X429404Y94517D01*
X427473D01*
Y95132D01*
D02*
G37*
G36*
X395040Y87392D02*
X394505Y87248D01*
X393894Y86895D01*
X393395Y86396D01*
X393042Y85785D01*
X392898Y85250D01*
X395040D01*
Y87392D01*
D02*
G37*
G36*
X348364Y111416D02*
X343550D01*
X338736D01*
X338803Y110907D01*
X339192Y109968D01*
X339811Y109161D01*
X340239Y108833D01*
Y108610D01*
X340174Y108252D01*
X339716Y107655D01*
X339387Y106862D01*
X339275Y106010D01*
X339387Y105158D01*
X339716Y104365D01*
X340239Y103683D01*
X340658Y103362D01*
Y102753D01*
X340239Y102431D01*
X339716Y101750D01*
X339387Y100956D01*
X339275Y100104D01*
X339387Y99253D01*
X339716Y98459D01*
X340239Y97778D01*
X340658Y97456D01*
Y96847D01*
X340239Y96526D01*
X339716Y95844D01*
X339387Y95051D01*
X339275Y94199D01*
X339387Y93347D01*
X339716Y92554D01*
X340239Y91872D01*
X340658Y91551D01*
Y90942D01*
X340239Y90620D01*
X339716Y89939D01*
X339387Y89145D01*
X339275Y88293D01*
X339387Y87442D01*
X339716Y86648D01*
X340239Y85967D01*
X340921Y85444D01*
X341714Y85115D01*
X342566Y85003D01*
X344534D01*
X345386Y85115D01*
X346179Y85444D01*
X346861Y85967D01*
X347384Y86648D01*
X347712Y87442D01*
X347825Y88293D01*
X347712Y89145D01*
X347384Y89939D01*
X346861Y90620D01*
X346442Y90942D01*
Y91551D01*
X346861Y91872D01*
X347384Y92554D01*
X347474Y92772D01*
X351960D01*
X354193Y90539D01*
Y62866D01*
X354193Y62866D01*
X354301Y62319D01*
X354611Y61856D01*
X355196Y61271D01*
X355196Y61271D01*
X355660Y60961D01*
X356206Y60853D01*
X386500D01*
X386500Y60853D01*
X387046Y60961D01*
X387509Y61271D01*
X410699Y84460D01*
X420866D01*
X420866Y84460D01*
X421413Y84569D01*
X421876Y84878D01*
X423046Y86048D01*
X427473D01*
Y90132D01*
X421027D01*
Y88067D01*
X420275Y87315D01*
X410108D01*
X409561Y87206D01*
X409098Y86897D01*
X409098Y86897D01*
X407613Y85411D01*
X407128Y85634D01*
X407128Y85871D01*
Y87590D01*
X403805D01*
Y85448D01*
X406670D01*
X406943Y85448D01*
X407165Y84964D01*
X385909Y63707D01*
X357047D01*
Y91130D01*
X357047Y91130D01*
X356939Y91676D01*
X356629Y92139D01*
X356629Y92139D01*
X353560Y95208D01*
X353097Y95518D01*
X352551Y95626D01*
X352551Y95626D01*
X347474D01*
X347384Y95844D01*
X346861Y96526D01*
X346442Y96847D01*
Y97456D01*
X346861Y97778D01*
X347384Y98459D01*
X347712Y99253D01*
X347825Y100104D01*
X347712Y100956D01*
X347384Y101750D01*
X346861Y102431D01*
X346442Y102753D01*
Y103362D01*
X346861Y103683D01*
X347384Y104365D01*
X347712Y105158D01*
X347825Y106010D01*
X347712Y106862D01*
X347384Y107655D01*
X346926Y108252D01*
X346861Y108610D01*
Y108833D01*
X347289Y109161D01*
X347908Y109968D01*
X348297Y110907D01*
X348364Y111416D01*
D02*
G37*
G36*
X375108Y86720D02*
X372730D01*
Y83161D01*
X375108D01*
Y86720D01*
D02*
G37*
G36*
X445630Y82619D02*
X443252D01*
Y79060D01*
X444930D01*
Y80790D01*
X445050Y80910D01*
X445630D01*
Y82619D01*
D02*
G37*
G36*
X398142Y79790D02*
X396000D01*
Y77648D01*
X396535Y77792D01*
X397146Y78145D01*
X397645Y78644D01*
X397998Y79255D01*
X398142Y79790D01*
D02*
G37*
G36*
X395000D02*
X392858D01*
X393002Y79255D01*
X393355Y78644D01*
X393854Y78145D01*
X394465Y77792D01*
X395000Y77648D01*
Y79790D01*
D02*
G37*
G36*
X444930Y78060D02*
X443252D01*
Y74501D01*
X444012D01*
Y72989D01*
X443762Y72555D01*
X443618Y72020D01*
X444930D01*
Y78060D01*
D02*
G37*
G36*
X441791Y88285D02*
X436055D01*
Y83335D01*
X437343D01*
Y82019D01*
X436372D01*
Y75101D01*
X437222D01*
Y72567D01*
X437043Y72387D01*
X436756Y71695D01*
Y70945D01*
X437043Y70253D01*
X437573Y69723D01*
X438265Y69436D01*
X439015D01*
X439707Y69723D01*
X440237Y70253D01*
X440524Y70945D01*
Y71695D01*
X440237Y72387D01*
X440077Y72548D01*
Y75101D01*
X440928D01*
Y82019D01*
X440197D01*
Y83335D01*
X441791D01*
Y88285D01*
D02*
G37*
G36*
X368820Y69407D02*
X365863D01*
Y66450D01*
X366702Y66675D01*
X367493Y67131D01*
X368139Y67777D01*
X368596Y68568D01*
X368820Y69407D01*
D02*
G37*
G36*
X364863D02*
X361907D01*
X362131Y68568D01*
X362588Y67777D01*
X363234Y67131D01*
X364025Y66675D01*
X364863Y66450D01*
Y69407D01*
D02*
G37*
G36*
X440270Y60615D02*
X434533D01*
Y59567D01*
X422840D01*
X422840Y59567D01*
X422294Y59459D01*
X421831Y59149D01*
X419279Y56597D01*
X417878D01*
Y58629D01*
X413322D01*
Y52267D01*
X410398D01*
Y58629D01*
X405842D01*
Y51711D01*
X406258D01*
X406732Y51697D01*
X406840Y51151D01*
X406944Y50995D01*
X406967Y50880D01*
X407276Y50416D01*
X407862Y49831D01*
X407862Y49831D01*
X408325Y49521D01*
X408871Y49413D01*
X417944D01*
X417944Y49413D01*
X418490Y49521D01*
X418954Y49831D01*
X422615Y53493D01*
X437260D01*
X438925Y51827D01*
Y47715D01*
X443875D01*
Y53846D01*
X440944D01*
X439586Y55203D01*
X439778Y55665D01*
X440270D01*
Y60615D01*
D02*
G37*
G36*
X379914Y58602D02*
X379159D01*
X378429Y58406D01*
X377775Y58029D01*
X377241Y57495D01*
X376864Y56841D01*
X376668Y56111D01*
Y55356D01*
X376864Y54626D01*
X377241Y53972D01*
X377775Y53438D01*
X378429Y53060D01*
X379159Y52865D01*
X379914D01*
X380644Y53060D01*
X381298Y53438D01*
X381832Y53972D01*
X382210Y54626D01*
X382405Y55356D01*
Y56111D01*
X382210Y56841D01*
X381832Y57495D01*
X381298Y58029D01*
X380644Y58406D01*
X379914Y58602D01*
D02*
G37*
G36*
X433645Y52725D02*
X428695D01*
Y51284D01*
X424250D01*
X424157Y51377D01*
X423465Y51664D01*
X422715D01*
X422023Y51377D01*
X421493Y50847D01*
X421206Y50155D01*
Y49405D01*
X421493Y48713D01*
X422023Y48183D01*
X422715Y47896D01*
X423465D01*
X424157Y48183D01*
X424404Y48430D01*
X428695D01*
Y46988D01*
X433645D01*
Y52725D01*
D02*
G37*
G36*
X440135Y46405D02*
X435185D01*
Y44767D01*
X433645D01*
Y46288D01*
X428695D01*
Y40551D01*
X433645D01*
Y41912D01*
X435185D01*
Y40274D01*
X440135D01*
Y46405D01*
D02*
G37*
G36*
X448215Y47005D02*
X445640D01*
Y43839D01*
X448215D01*
Y47005D01*
D02*
G37*
G36*
X444640D02*
X442065D01*
Y43839D01*
X444640D01*
Y47005D01*
D02*
G37*
G36*
X448215Y42840D02*
X442065D01*
Y39674D01*
X443203D01*
Y38095D01*
X443085Y37976D01*
X442732Y37365D01*
X442588Y36830D01*
X447872D01*
X447728Y37365D01*
X447375Y37976D01*
X447077Y38274D01*
Y39674D01*
X448215D01*
Y42840D01*
D02*
G37*
G36*
X366660Y38022D02*
Y35880D01*
X368802D01*
X368658Y36415D01*
X368305Y37026D01*
X367806Y37525D01*
X367195Y37878D01*
X366660Y38022D01*
D02*
G37*
G36*
X447872Y35830D02*
X445730D01*
Y33688D01*
X446265Y33832D01*
X446876Y34185D01*
X447375Y34684D01*
X447728Y35295D01*
X447872Y35830D01*
D02*
G37*
G36*
X444730D02*
X442588D01*
X442732Y35295D01*
X443085Y34684D01*
X443584Y34185D01*
X444195Y33832D01*
X444730Y33688D01*
Y35830D01*
D02*
G37*
G36*
X368802Y34880D02*
X366660D01*
Y32738D01*
X367195Y32882D01*
X367806Y33235D01*
X368305Y33734D01*
X368658Y34345D01*
X368802Y34880D01*
D02*
G37*
G36*
X348580Y30837D02*
X346005D01*
Y27869D01*
X348580D01*
Y30837D01*
D02*
G37*
G36*
X391200Y36992D02*
Y35585D01*
X391720D01*
Y34850D01*
X393342D01*
X393198Y35385D01*
X392845Y35996D01*
X392346Y36495D01*
X391735Y36848D01*
X391200Y36992D01*
D02*
G37*
G36*
X390200D02*
X389665Y36848D01*
X389054Y36495D01*
X388555Y35996D01*
X388202Y35385D01*
X388058Y34850D01*
X389520D01*
Y35545D01*
X389560Y35585D01*
X390200D01*
Y36992D01*
D02*
G37*
G36*
X393342Y33850D02*
X391720D01*
Y28690D01*
X394369D01*
Y31068D01*
X392638D01*
Y32496D01*
X392845Y32704D01*
X393198Y33315D01*
X393342Y33850D01*
D02*
G37*
G36*
X394369Y27690D02*
X390810D01*
Y25312D01*
X394369D01*
Y27690D01*
D02*
G37*
G36*
X375885Y20731D02*
X373310D01*
Y17763D01*
X375885D01*
Y20731D01*
D02*
G37*
G36*
X271882Y17930D02*
X269740D01*
Y15788D01*
X270275Y15932D01*
X270886Y16285D01*
X271385Y16784D01*
X271738Y17395D01*
X271882Y17930D01*
D02*
G37*
G36*
X281781Y15943D02*
X272501D01*
Y7056D01*
X281781D01*
Y15943D01*
D02*
G37*
%LPD*%
D15*
X190468Y67607D02*
G03*
X190817Y68366I-651J759D01*
G01*
X204827Y86298D02*
G03*
X205260Y85465I1000J-9D01*
G01*
X188190Y65220D02*
Y65329D01*
X190468Y67607D01*
X190468Y67607D01*
X190817Y68366D02*
Y71113D01*
X190880Y72581D01*
X165130Y100272D02*
X166008Y101150D01*
X166030D01*
X170380Y101441D02*
Y105489D01*
X170089Y101150D02*
X170380Y101441D01*
X166030Y101150D02*
X170089D01*
X170380Y105489D02*
X171980Y107089D01*
X183438Y107011D01*
X185300Y106921D01*
X291860Y90450D02*
X299720Y82590D01*
X262470Y90450D02*
X291860D01*
X299720Y74960D02*
Y82590D01*
X262470Y76054D02*
Y90450D01*
X120224Y84449D02*
X123837D01*
X113000D02*
X116612D01*
X109388Y77224D02*
Y80837D01*
Y84449D01*
X116612Y77224D02*
Y80837D01*
X120224Y77224D02*
X123837D01*
X113000D02*
X116612D01*
X109388Y73612D02*
Y77224D01*
Y70000D02*
Y73612D01*
X113000Y70000D02*
X116612D01*
X120224D02*
X123837D01*
X116612D02*
Y73612D01*
X123837Y70000D02*
Y73612D01*
X116612Y70000D02*
X120224D01*
X109388D02*
X113000D01*
X116612Y77224D02*
X120224D01*
X123837D02*
Y80837D01*
Y84449D01*
X116612D02*
X120224D01*
X109388D02*
X113000D01*
X307284Y105932D02*
X307870Y105347D01*
X277043Y113800D02*
X303757D01*
X307284Y110273D01*
Y105932D02*
Y110273D01*
X307870Y105347D02*
X310100D01*
X287800Y71970D02*
X296730D01*
X299720Y74960D01*
X259396Y72980D02*
X262470Y76054D01*
X253467Y72980D02*
X259396D01*
X212746Y88040D02*
X213778D01*
X214650Y88911D02*
Y118169D01*
X213778Y88040D02*
X214650Y88911D01*
X215235Y118755D02*
X218741D01*
X214650Y118169D02*
X215235Y118755D01*
X194033Y123043D02*
X223207D01*
X223730Y122520D01*
X222560Y119396D02*
Y122120D01*
X193174Y126605D02*
X193265Y126515D01*
X221974Y118810D02*
X222560Y119396D01*
X221130Y118810D02*
X221974D01*
X193265Y123812D02*
X194033Y123043D01*
X193265Y123812D02*
Y126515D01*
X218741Y118755D02*
X218765Y118731D01*
X210891Y89895D02*
Y93141D01*
Y89895D02*
X212746Y88040D01*
X211870Y117793D02*
X214759Y120682D01*
X218765Y116763D02*
X222663D01*
X225063Y119163D01*
X253467Y87980D02*
Y93134D01*
X241670Y93720D02*
X252881D01*
X253467Y93134D01*
X239340Y91390D02*
X241670Y93720D01*
X218765Y102983D02*
X231036D01*
X238160Y95860D01*
X261700Y102800D02*
X285500D01*
X289100Y106400D01*
X257358Y107142D02*
X261700Y102800D01*
X257358Y113800D02*
Y140733D01*
Y107142D02*
Y113800D01*
X386500Y62280D02*
X410108Y85888D01*
X420866D01*
X343550Y94199D02*
X352551D01*
X355620Y91130D01*
X356206Y62280D02*
X386500D01*
X355620Y62866D02*
X356206Y62280D01*
X355620Y62866D02*
Y91130D01*
X420866Y85888D02*
X423069Y88090D01*
X424250D01*
X384830Y92820D02*
X389510Y97500D01*
X397104D01*
X379179Y92820D02*
X384830D01*
X397104Y97500D02*
X397694Y98090D01*
X403305D01*
X411100Y81680D02*
X429404D01*
X429990Y82266D01*
X430430Y79750D02*
X431990Y81310D01*
X415600Y79164D02*
X416186Y79750D01*
X408120Y78700D02*
X411100Y81680D01*
X415600Y73810D02*
Y79164D01*
X416186Y79750D02*
X430430D01*
X423090Y49780D02*
X423167Y49857D01*
X431170D01*
X400650Y20710D02*
X400700Y20760D01*
X390310Y20710D02*
X400650D01*
X396220Y93110D02*
X396240Y93090D01*
X403305D01*
X386606Y39130D02*
X408218D01*
X414297Y33051D01*
X375144Y27668D02*
X386606Y39130D01*
X355872Y27780D02*
X356856D01*
X357537Y25834D02*
Y27099D01*
Y25834D02*
X359451Y23921D01*
Y17735D02*
Y23921D01*
X356856Y27780D02*
X357537Y27099D01*
X359451Y17735D02*
X362236Y14950D01*
X372810Y27668D02*
X375144D01*
X414297Y33051D02*
X417569D01*
X388352Y15200D02*
X390988Y17835D01*
X387959Y15200D02*
X388352D01*
X390988Y17835D02*
Y19842D01*
X390250Y20580D02*
X390988Y19842D01*
X362236Y14950D02*
X362374D01*
X362584Y14740D01*
X366053D01*
Y17564D02*
X366108Y17619D01*
X366053Y14740D02*
Y17564D01*
X366108Y17619D02*
Y20300D01*
X381522Y9680D02*
Y15200D01*
X372490Y14740D02*
X372630Y14600D01*
X381471D01*
X381460Y17686D02*
X381471Y17675D01*
X381460Y17686D02*
Y20870D01*
X381471Y14600D02*
Y17675D01*
X381522Y9680D02*
X381651Y9550D01*
X387959Y9680D02*
Y15200D01*
Y9680D02*
X388088Y9550D01*
X396172Y103090D02*
X403305D01*
X395540Y102720D02*
X395802D01*
X396172Y103090D01*
X395740Y108120D02*
X395755Y108105D01*
X403290D01*
X403305Y108090D01*
X395485Y113105D02*
X403290D01*
X403305Y113090D01*
X395470Y113120D02*
X395485Y113105D01*
X395610Y117860D02*
X395725Y117975D01*
X403190D02*
X403305Y118090D01*
X395725Y117975D02*
X403190D01*
X408159Y51697D02*
Y54711D01*
X408286Y51426D02*
X408871Y50840D01*
X417944D01*
X408286Y51426D02*
Y51570D01*
X407700Y55170D02*
X408159Y54711D01*
Y51697D02*
X408286Y51570D01*
X417944Y50840D02*
X422024Y54920D01*
X419870Y55170D02*
X422840Y58140D01*
X415180Y55170D02*
X419870D01*
X422840Y58140D02*
X437401D01*
X422024Y54920D02*
X437851D01*
X441400Y51371D01*
Y50780D02*
Y51371D01*
X432090Y43360D02*
X432111Y43339D01*
X437660D01*
X438640Y71320D02*
X438650Y71330D01*
Y78560D01*
X429283Y111880D02*
X432670D01*
X428073Y113090D02*
X429283Y111880D01*
X424250Y113090D02*
X428073D01*
X431990Y91744D02*
X432576Y92330D01*
X431990Y81310D02*
Y91744D01*
X424250Y93090D02*
X429404D01*
X429990Y92504D01*
Y82266D02*
Y92504D01*
X432576Y92330D02*
X438932D01*
X408120Y73810D02*
Y78700D01*
X438770Y78870D02*
Y85657D01*
X445368Y88893D02*
Y92330D01*
X445360Y85810D02*
Y88885D01*
X438770Y85657D02*
X438923Y85810D01*
X445360Y88885D02*
X445368Y88893D01*
X431802Y116440D02*
X438280D01*
X424250Y98090D02*
X427490D01*
X430410Y101010D01*
X437890D01*
X424250Y108090D02*
X430813D01*
X432223Y106680D01*
X438201D01*
X302916Y110976D02*
X305100Y108791D01*
X291386Y110976D02*
X302916D01*
X289100Y108690D02*
X291386Y110976D01*
X305100Y105347D02*
Y108791D01*
X289100Y106400D02*
Y108690D01*
X262110Y68330D02*
Y72980D01*
X271774D01*
X241464Y71570D02*
X242050Y70984D01*
X230420Y72156D02*
X231006Y71570D01*
X242050Y68330D02*
Y70984D01*
X230420Y72156D02*
Y78536D01*
X231006Y71570D02*
X241464D01*
X242050Y68330D02*
X262110D01*
X286984Y22720D02*
Y26668D01*
X285812Y27840D02*
X286984Y26668D01*
X271372Y27840D02*
X285812D01*
X269240Y25708D02*
X271372Y27840D01*
X269240Y18430D02*
Y25708D01*
X266850Y5636D02*
X267436Y5050D01*
Y36320D02*
X289184D01*
X267436Y5050D02*
X297220D01*
X266850Y5636D02*
Y35734D01*
X267436Y36320D01*
X289770Y36906D02*
Y52894D01*
X289184Y53479D02*
X289770Y52894D01*
X289184Y36320D02*
X289770Y36906D01*
X211870Y116486D02*
Y117793D01*
X214759Y120682D02*
X218747D01*
X225063Y119163D02*
X242863D01*
X243470Y119770D02*
Y140104D01*
X242863Y119163D02*
X243470Y119770D01*
X242884Y140690D02*
X243470Y140104D01*
X228177Y140690D02*
X242884D01*
X225063Y143804D02*
Y175914D01*
Y143804D02*
X228177Y140690D01*
X218747Y120682D02*
X218765Y120700D01*
X211936Y96745D02*
Y116420D01*
Y96745D02*
X212681Y96000D01*
X191060Y120310D02*
X191206Y120456D01*
Y126605D01*
X212681Y95565D02*
X212769Y95477D01*
Y93231D02*
Y95477D01*
Y93231D02*
X212859Y93141D01*
X212681Y95565D02*
Y96000D01*
X225649Y176500D02*
X230500D01*
X225063Y175914D02*
X225649Y176500D01*
X285540Y53479D02*
X289184D01*
X297220Y5050D02*
Y22720D01*
X194755Y137732D02*
X197111Y135376D01*
Y126605D02*
Y135376D01*
X194755Y137732D02*
Y137808D01*
X199485Y135161D02*
Y137555D01*
X199080Y134756D02*
X199485Y135161D01*
X199300Y137740D02*
X199485Y137555D01*
X199080Y126605D02*
Y134756D01*
X215211Y136870D02*
X216160Y137819D01*
X213699Y136870D02*
X215211D01*
X209219Y132390D02*
X213699Y136870D01*
X210610Y136550D02*
Y137819D01*
X189250Y137820D02*
X189290D01*
X195142Y131967D01*
X237300Y244500D02*
X237420Y244380D01*
X233038Y244500D02*
X237300D01*
X230140Y185897D02*
X232817D01*
X228728Y186500D02*
X230500D01*
X224374D02*
X228728D01*
X218389Y188269D02*
X226560Y196440D01*
X218389Y134104D02*
Y188269D01*
X229077Y184835D02*
X230140Y185897D01*
X227063Y194835D02*
X228728Y196500D01*
X230500D01*
X220089Y157111D02*
Y182216D01*
X224374Y186500D01*
X227063Y184835D02*
X228728Y186500D01*
X150390Y139971D02*
X151465Y138503D01*
X155900Y124500D01*
X184142Y85180D02*
X191206D01*
X164440Y39440D02*
X165012Y40012D01*
X164400Y39400D02*
X164440Y39440D01*
X170290Y46448D02*
Y56999D01*
X167200Y60089D02*
X170290Y56999D01*
X209740Y71820D02*
Y71900D01*
X221350D01*
X197255Y67687D02*
X198625Y69057D01*
X197070Y65240D02*
X197255Y65425D01*
Y67687D01*
X198625Y81264D02*
X199080Y81718D01*
X198625Y69057D02*
Y81264D01*
X199080Y81718D02*
Y93141D01*
X195810Y69190D02*
Y72471D01*
X191830Y65210D02*
X195810Y69190D01*
Y72471D02*
X195850Y72512D01*
X218650Y95640D02*
X232364D01*
X225030Y84150D02*
X230379D01*
X221350Y71900D02*
Y88130D01*
X239340D02*
Y91390D01*
X214442Y83940D02*
X218650D01*
X208922Y89460D02*
X214442Y83940D01*
X218650D02*
Y95640D01*
X221350Y88130D02*
X239340D01*
X230379Y84150D02*
X230420Y84109D01*
X208922Y89460D02*
Y93141D01*
X216480Y76890D02*
Y79497D01*
X206954Y89024D02*
X216480Y79497D01*
X206954Y89024D02*
Y93141D01*
X205260Y85465D02*
X209620Y82440D01*
X203016Y85050D02*
X209740Y76800D01*
X204827Y86298D02*
X204827Y86302D01*
X204894Y91279D01*
X204985Y93141D01*
X203016Y85050D02*
Y93141D01*
X200830Y58606D02*
Y72482D01*
X200244Y58020D02*
X200830Y58606D01*
X189162Y104952D02*
X191206Y106995D01*
Y114180D01*
X185300Y104952D02*
X189162D01*
X170967Y68131D02*
X172015Y67912D01*
X177129D01*
X243299Y89239D02*
Y89969D01*
X235570Y84279D02*
X238338D01*
X243299Y89969D02*
X243560Y90230D01*
X238338Y84279D02*
X243299Y89239D01*
X173530Y99046D02*
X185300D01*
X173530D02*
Y99100D01*
X78978Y67930D02*
X79211Y67697D01*
X65540Y67930D02*
X78978D01*
X65430Y62680D02*
X79194D01*
X79211Y62697D01*
X184142Y85091D02*
Y85180D01*
X191206D02*
Y93141D01*
X190880Y79018D02*
Y83000D01*
X193174D01*
Y93141D01*
X195850Y78948D02*
Y89279D01*
X195142D02*
X195850D01*
X195142D02*
Y93141D01*
X183499Y58606D02*
Y68330D01*
Y58606D02*
X184084Y58020D01*
X200244D01*
X235800Y76481D02*
X238875D01*
X240393Y78000D02*
X248793D01*
X238875Y76481D02*
X240393Y78000D01*
X201048Y80890D02*
Y93141D01*
X200969Y93062D02*
X201048Y93141D01*
X243640Y83000D02*
X248793D01*
X243560Y83080D02*
X243640Y83000D01*
X271774Y87980D02*
X281080D01*
Y79480D02*
Y87980D01*
X295100Y101902D02*
X301462Y95540D01*
X307351D01*
X309396Y93495D02*
X310380D01*
X307351Y95540D02*
X309396Y93495D01*
X295100Y101902D02*
Y105347D01*
X300100Y101902D02*
X304176Y97825D01*
X310380D01*
X300100Y101902D02*
Y105347D01*
X195142Y126605D02*
Y131967D01*
X204017Y134090D02*
X208150D01*
X203016Y133089D02*
X204017Y134090D01*
X208150D02*
X210610Y136550D01*
X204985Y126605D02*
Y131804D01*
X205571Y132390D01*
X209219D01*
X201048Y126605D02*
Y133525D01*
X205505Y136725D02*
X205690Y136910D01*
X201048Y133525D02*
X204248Y136725D01*
X205505D01*
X210891Y130314D02*
X211666Y131090D01*
X215375D01*
X218389Y134104D01*
X210891Y126605D02*
Y130314D01*
X215157Y128468D02*
X220186Y133497D01*
Y157014D01*
X220089Y157111D02*
X220186Y157014D01*
X203016Y126605D02*
Y133089D01*
X365400Y86671D02*
X365949Y87220D01*
X365400Y86671D02*
Y92234D01*
X365986Y92820D02*
X372742D01*
X365400Y92234D02*
X365986Y92820D01*
X365363Y86634D02*
X365400Y86671D01*
X365363Y69907D02*
Y86634D01*
X365949Y87220D02*
X372230D01*
X379537Y69907D02*
Y84654D01*
X379179Y92820D02*
X379710Y92288D01*
Y87220D02*
Y92288D01*
X445770Y116730D02*
X445980Y116520D01*
X424250Y118090D02*
X430152D01*
X431802Y116440D01*
X264122Y213418D02*
X267660Y209880D01*
X264122Y213418D02*
Y221800D01*
X290490Y167070D02*
X307474D01*
X258217Y211314D02*
Y221800D01*
Y211314D02*
X260020Y209510D01*
X295100Y133519D02*
X296744D01*
X297330Y134105D02*
Y139610D01*
X296744Y133519D02*
X297330Y134105D01*
X295100Y123653D02*
Y133519D01*
X316680Y127450D02*
X316730Y127400D01*
Y123080D02*
Y127400D01*
X310870Y142462D02*
X311590Y143182D01*
X310870Y139490D02*
Y142462D01*
X311590Y143182D02*
Y146650D01*
X305300Y133616D02*
X305686Y133230D01*
X305300Y133616D02*
Y144650D01*
X287730Y161220D02*
X292620D01*
X282260Y166690D02*
X287730Y161220D01*
X292620D02*
X296680Y165280D01*
X306860D01*
X315524Y133230D02*
X316110Y133816D01*
X306860Y165280D02*
X316110Y156030D01*
X305686Y133230D02*
X315524D01*
X316110Y133816D02*
Y156030D01*
X305100Y123653D02*
Y132644D01*
X305686Y133230D01*
X316680Y127450D02*
X317970Y128740D01*
X310100Y123653D02*
Y126966D01*
X317970Y128740D02*
Y156574D01*
X310100Y126966D02*
X310584Y127450D01*
X316680D01*
X307474Y167070D02*
X317970Y156574D01*
X252196Y209306D02*
Y221685D01*
X252080Y209190D02*
X252196Y209306D01*
Y221685D02*
X252311Y221800D01*
X252640Y145450D02*
Y146041D01*
Y145450D02*
X257358Y140733D01*
X212950Y128468D02*
X215157D01*
X212859Y128377D02*
X212950Y128468D01*
X212859Y126605D02*
Y128377D01*
X258000Y250820D02*
X259900Y252720D01*
X266181D01*
X231975Y245563D02*
X233038Y244500D01*
X228900Y245563D02*
X231975D01*
X64200Y21200D02*
X64300Y21100D01*
X56718Y21200D02*
X64200D01*
X30000Y72400D02*
X31218Y71181D01*
X27300Y72400D02*
X30000D01*
X16965Y72858D02*
X20890Y76784D01*
X31926D01*
X15390Y72858D02*
X16965D01*
X31218Y66200D02*
Y71181D01*
X31926Y76784D02*
X36100Y72610D01*
Y63400D02*
Y72610D01*
X23588Y67800D02*
X25000D01*
X19403Y63615D02*
X23588Y67800D01*
X19403Y63486D02*
Y63615D01*
X15390Y61047D02*
X16965D01*
X19403Y63486D01*
X34201Y61500D02*
X35151Y62449D01*
X31319Y61500D02*
X34201D01*
X35151Y62451D02*
X36100Y63400D01*
X35151Y62449D02*
Y62451D01*
X151577Y57697D02*
X154560Y60680D01*
X146140Y57697D02*
X151577D01*
X154560Y60680D02*
X167200D01*
Y60089D02*
Y60680D01*
X164240Y31800D02*
X164400Y31960D01*
X15390Y61047D02*
X17842Y60169D01*
D17*
X78000Y45000D02*
X148000D01*
Y18000D02*
Y45000D01*
X78000Y18000D02*
X148000D01*
X78000D02*
Y45000D01*
X328000Y56000D02*
Y57000D01*
Y58000D01*
Y59000D02*
X329000D01*
Y57000D02*
Y58000D01*
Y55000D02*
Y56000D01*
X327000Y55000D02*
X328000D01*
X327000Y56000D02*
Y57000D01*
Y58000D02*
Y59000D01*
D18*
X142694Y146414D02*
G03*
X144351Y150414I-3999J3999D01*
G01*
X135630Y139350D02*
X142694Y146414D01*
X18200Y104946D02*
Y105202D01*
Y104946D02*
X26720Y96426D01*
Y96370D02*
Y96426D01*
Y96370D02*
X29373Y93717D01*
X40748D01*
X7100Y105310D02*
X18092D01*
X18200Y105202D01*
X4760Y5120D02*
X152720D01*
X4760Y33760D02*
X24882Y53882D01*
X4760Y5120D02*
Y33760D01*
X152720Y5120D02*
X164220Y16620D01*
X24500Y116260D02*
X25681D01*
X16440D02*
X24500D01*
X57411Y80635D02*
X59195Y83141D01*
X56546Y79771D02*
X57411Y80635D01*
X55585Y79617D02*
X56546Y79771D01*
X59195Y83141D02*
Y87882D01*
X14400Y118300D02*
X16440Y116260D01*
X29400Y102720D02*
Y112541D01*
X33404Y98716D02*
X40748D01*
X29400Y102720D02*
X33404Y98716D01*
X51718Y79000D02*
X55585Y79617D01*
X45618Y80958D02*
X49400Y84740D01*
Y101959D01*
X45750Y78443D02*
Y78925D01*
X45675Y79000D02*
X45750Y78925D01*
X41813Y79000D02*
X45675D01*
X45750Y78443D02*
X46000Y78193D01*
Y67000D02*
Y78193D01*
X164220Y16620D02*
Y17570D01*
X164240Y17590D02*
Y31800D01*
X164220Y17570D02*
X164240Y17590D01*
X146140Y52697D02*
X163854D01*
X164440Y52111D01*
Y46600D02*
Y52111D01*
X164400Y31960D02*
Y39400D01*
X164440Y39440D02*
Y46600D01*
X165012Y40012D02*
X170290D01*
X24882Y53882D02*
Y61500D01*
X48614Y36075D02*
X49279Y36000D01*
X25000Y36342D02*
X48614Y36075D01*
X56718Y29183D02*
X56721Y29185D01*
X56718Y26900D02*
Y29183D01*
X56721Y29185D02*
Y32260D01*
X50282Y26900D02*
X50282Y26900D01*
Y21200D02*
Y26900D01*
X25000Y16657D02*
X45284D01*
X46742Y15200D01*
X49620D01*
X26042Y79900D02*
X40913D01*
X41813Y79000D01*
X18200Y87742D02*
X26042Y79900D01*
X18200Y87742D02*
Y87998D01*
X47643Y103717D02*
X49400Y101959D01*
X40748Y103717D02*
X47643D01*
X9400Y118300D02*
X14400D01*
X25681Y116260D02*
X29400Y112541D01*
X328000Y41000D02*
Y53000D01*
Y61000D02*
Y73000D01*
D80*
X366108Y20300D02*
D03*
Y24040D02*
D03*
Y27780D02*
D03*
X355872D02*
D03*
Y20300D02*
D03*
D95*
X229894Y9539D02*
D03*
X215000Y278500D02*
D03*
X245000D02*
D03*
X215000Y318500D02*
D03*
X245000Y338500D02*
D03*
X215000Y348500D02*
D03*
X258600Y278700D02*
D03*
X288600D02*
D03*
X258600Y318700D02*
D03*
X288600Y338700D02*
D03*
X258600Y348700D02*
D03*
X10784Y188000D02*
D03*
D103*
X314210Y87420D02*
D03*
X310670Y87330D02*
D03*
X307220Y87300D02*
D03*
X182320Y14760D02*
D03*
X182370Y10630D02*
D03*
X182420Y6870D02*
D03*
X10040Y135660D02*
D03*
X10120Y139540D02*
D03*
X10190Y143160D02*
D03*
X157900Y217460D02*
D03*
X154750D02*
D03*
X151780Y217400D02*
D03*
X289250Y221420D02*
D03*
X286760Y221370D02*
D03*
X284450Y221420D02*
D03*
X98310Y143850D02*
D03*
X95970D02*
D03*
X93750D02*
D03*
X65618Y146370D02*
D03*
X65620Y142252D02*
D03*
X61370D02*
D03*
X57250D02*
D03*
X156820Y21530D02*
D03*
X156750Y25390D02*
D03*
X66770Y39460D02*
D03*
X66930Y34330D02*
D03*
X211960Y179710D02*
D03*
X293680Y244690D02*
D03*
X293510Y248580D02*
D03*
X293340Y251960D02*
D03*
X283450Y138360D02*
D03*
X268640Y61400D02*
D03*
Y65440D02*
D03*
Y43880D02*
D03*
X232540Y131700D02*
D03*
X229140Y131800D02*
D03*
X66420Y11940D02*
D03*
X7100Y105310D02*
D03*
X180790Y168650D02*
D03*
Y171870D02*
D03*
Y175540D02*
D03*
X229110Y145880D02*
D03*
X236170Y146030D02*
D03*
X295550Y79730D02*
D03*
X309450Y64860D02*
D03*
X395500Y80290D02*
D03*
X395540Y84750D02*
D03*
X390700Y34350D02*
D03*
X359950Y35260D02*
D03*
X366160Y35380D02*
D03*
X384750Y118650D02*
D03*
X380470Y118580D02*
D03*
X342520Y11540D02*
D03*
Y16050D02*
D03*
X445230Y36330D02*
D03*
X384430Y111540D02*
D03*
X380720Y111500D02*
D03*
X446260Y71520D02*
D03*
X445620Y97440D02*
D03*
X269240Y18430D02*
D03*
X132400Y176300D02*
D03*
X132440Y170100D02*
D03*
X169180Y17680D02*
D03*
X164220Y17570D02*
D03*
X243560Y90230D02*
D03*
Y83080D02*
D03*
X243650Y73310D02*
D03*
X298160Y152980D02*
D03*
X54600Y48100D02*
D03*
X54500Y55800D02*
D03*
X9400Y118300D02*
D03*
X14400D02*
D03*
X64300Y189500D02*
D03*
X75000Y193900D02*
D03*
X71500D02*
D03*
X67900D02*
D03*
X64200D02*
D03*
D106*
X66458Y13179D02*
G03*
X65459Y14210I-1000J31D01*
G01*
X165130Y99160D02*
Y100272D01*
X163460Y97490D02*
X165130Y99160D01*
X163460Y68120D02*
Y97490D01*
X65459Y14210D02*
X65459Y14210D01*
X269812Y40220D02*
X284609D01*
X268640Y43880D02*
X268709Y43811D01*
Y41322D02*
Y43811D01*
Y41322D02*
X269812Y40220D01*
X284609D02*
X285680Y41292D01*
Y45900D01*
X57978Y14210D02*
X65459D01*
X66420Y11940D02*
X66458Y13179D01*
X57100Y15200D02*
X57978Y14210D01*
X438210Y122910D02*
X438379D01*
X449689Y125819D02*
X450990Y124518D01*
X439938Y125819D02*
X449689D01*
X438379Y122910D02*
X438588Y123119D01*
Y124469D02*
X439938Y125819D01*
X438588Y123119D02*
Y124469D01*
X450990Y94483D02*
Y124518D01*
X309505Y58021D02*
X309560Y57966D01*
X309450Y64860D02*
X309505Y64805D01*
Y58021D02*
Y64805D01*
X309560Y48714D02*
X309610Y48664D01*
Y40980D02*
X309660Y40930D01*
X309610Y40980D02*
Y48664D01*
X395840Y84750D02*
X398784D01*
X402124Y88090D01*
X403305D01*
X359950Y35260D02*
X365942D01*
X366062Y35380D01*
X366160D01*
X372810Y21231D02*
Y21625D01*
X370395Y24040D02*
X372810Y21625D01*
X366108Y24040D02*
X370395D01*
X359950Y26533D02*
Y35260D01*
Y26533D02*
X362443Y24040D01*
X366108D01*
X390150Y28350D02*
X390310Y28190D01*
X406151Y6372D02*
Y33051D01*
X348860Y5200D02*
X404980D01*
X406151Y6372D01*
X342520Y11540D02*
X348860Y5200D01*
X366108Y27780D02*
X372698D01*
X372810Y27668D01*
X349080Y20538D02*
Y20891D01*
X348152Y19963D02*
X348505D01*
X342676Y16119D02*
X344308D01*
X348505Y19963D02*
X349080Y20538D01*
X342607Y16050D02*
X342676Y16119D01*
X344308D02*
X348152Y19963D01*
X342520Y11540D02*
Y16050D01*
X357052Y32362D02*
X359950Y35260D01*
X353680Y32362D02*
X357052D01*
X349080Y27762D02*
X353680Y32362D01*
X349080Y27369D02*
Y27762D01*
X384750Y118650D02*
X384819Y118719D01*
Y119369D01*
X391370Y125920D01*
X449755Y58140D02*
X450990Y59374D01*
Y94483D01*
X448837Y92330D02*
X450990Y94483D01*
X445140Y36420D02*
X445230Y36330D01*
X445140Y36420D02*
Y43339D01*
X443839Y58140D02*
X449755D01*
X445368Y92330D02*
X448837D01*
X426770Y122910D02*
X438210D01*
X391370Y125920D02*
X423760D01*
X426770Y122910D01*
X191060Y120310D02*
X192808Y118562D01*
X182180Y129190D02*
X191060Y120310D01*
X192808Y115600D02*
Y118562D01*
X182180Y144308D02*
X183352Y145480D01*
X182180Y129190D02*
Y144308D01*
X183352Y145480D02*
X197201D01*
X199680Y147960D01*
Y155500D01*
X278200Y45900D02*
Y49959D01*
X278060Y50099D02*
Y53479D01*
Y50099D02*
X278200Y49959D01*
X232453Y58976D02*
X237949Y53479D01*
X232453Y58976D02*
Y59736D01*
X237949Y53479D02*
X278060D01*
D107*
X232100Y164900D02*
G03*
X230500Y166500I-1600J0D01*
G01*
X232100Y147040D02*
Y164900D01*
X202083Y173609D02*
Y223382D01*
X258600Y261130D02*
Y278700D01*
X284635Y274697D02*
X288600Y278662D01*
Y278700D01*
X284635Y269947D02*
Y274697D01*
X282000Y266721D02*
Y267311D01*
X284635Y269947D01*
X233677Y267177D02*
X245000Y278500D01*
X209200Y261929D02*
Y272700D01*
X215000Y278500D01*
X232360Y227240D02*
X237800Y221800D01*
X227000Y227240D02*
X232360D01*
X218500D02*
X227000D01*
X210000D02*
X218500D01*
X202083Y223382D02*
X205941Y227240D01*
X210000D01*
X23500Y351000D02*
X41600Y332900D01*
X76060Y318240D02*
X90445D01*
X41600Y332900D02*
X61400D01*
X76060Y318240D01*
X162555Y361500D02*
X169185Y318240D01*
X23500Y371000D02*
X44445Y361500D01*
D108*
X109388Y84449D02*
D03*
X116612D02*
D03*
X123837D02*
D03*
X109388Y77224D02*
D03*
X116612D02*
D03*
X123837D02*
D03*
X109388Y70000D02*
D03*
X116612D02*
D03*
X123837D02*
D03*
D109*
X79211Y47697D02*
D03*
X146140D02*
D03*
X79211Y52697D02*
D03*
Y57697D02*
D03*
Y62697D02*
D03*
Y67697D02*
D03*
Y72697D02*
D03*
Y77697D02*
D03*
Y82697D02*
D03*
Y87697D02*
D03*
Y92697D02*
D03*
Y97697D02*
D03*
Y102697D02*
D03*
Y107697D02*
D03*
Y112697D02*
D03*
X146140D02*
D03*
Y107697D02*
D03*
Y102697D02*
D03*
Y97697D02*
D03*
Y92697D02*
D03*
Y87697D02*
D03*
Y82697D02*
D03*
Y77697D02*
D03*
Y72697D02*
D03*
Y67697D02*
D03*
Y62697D02*
D03*
Y57697D02*
D03*
Y52697D02*
D03*
D110*
X135175Y116634D02*
D03*
X90175D02*
D03*
X95175D02*
D03*
X100175D02*
D03*
X105175D02*
D03*
X110175D02*
D03*
X115175D02*
D03*
X120175D02*
D03*
X125175D02*
D03*
X130175D02*
D03*
D111*
X253467Y87980D02*
D03*
Y82980D02*
D03*
Y77980D02*
D03*
Y72980D02*
D03*
X271774D02*
D03*
Y77980D02*
D03*
Y82980D02*
D03*
Y87980D02*
D03*
X40748Y93717D02*
D03*
Y98716D02*
D03*
X59055Y88717D02*
D03*
Y93717D02*
D03*
Y98716D02*
D03*
Y103717D02*
D03*
X40748D02*
D03*
Y88717D02*
D03*
D112*
X406151Y33051D02*
D03*
X417569D02*
D03*
D113*
X229253Y110170D02*
D03*
X229073Y115040D02*
D03*
X381471Y14600D02*
D03*
X387909D02*
D03*
X381602Y8950D02*
D03*
X388038D02*
D03*
X438932Y92330D02*
D03*
X445368D02*
D03*
X438923Y85810D02*
D03*
X445360D02*
D03*
X445938Y101830D02*
D03*
X439501D02*
D03*
X446038Y106790D02*
D03*
X439602D02*
D03*
X235510Y115040D02*
D03*
X235690Y110170D02*
D03*
X183589Y67890D02*
D03*
X177152D02*
D03*
X372742Y92820D02*
D03*
X379179D02*
D03*
X143719Y128670D02*
D03*
X137282D02*
D03*
X45281Y79000D02*
D03*
X51718D02*
D03*
X437401Y58140D02*
D03*
X443839D02*
D03*
X372490Y14740D02*
D03*
X366053D02*
D03*
X50282Y21200D02*
D03*
X56718D02*
D03*
X143410Y157280D02*
D03*
X136973D02*
D03*
X266181Y252720D02*
D03*
X272619D02*
D03*
X223410Y252270D02*
D03*
X216973D02*
D03*
X31319Y61500D02*
D03*
X24882D02*
D03*
X31218Y66200D02*
D03*
X24781D02*
D03*
X56718Y26900D02*
D03*
X50282D02*
D03*
D114*
X218765Y112826D02*
D03*
Y114795D02*
D03*
Y120700D02*
D03*
Y116763D02*
D03*
Y110857D02*
D03*
Y108889D02*
D03*
Y106921D02*
D03*
Y104952D02*
D03*
Y102983D02*
D03*
Y101015D02*
D03*
Y99046D02*
D03*
X185300Y120700D02*
D03*
Y99046D02*
D03*
Y101015D02*
D03*
Y102983D02*
D03*
Y104952D02*
D03*
Y108889D02*
D03*
Y110857D02*
D03*
Y112826D02*
D03*
Y114795D02*
D03*
Y116763D02*
D03*
Y118731D02*
D03*
X218765D02*
D03*
X185300Y106921D02*
D03*
D115*
X313300Y48714D02*
D03*
X309560D02*
D03*
X305820D02*
D03*
Y57966D02*
D03*
X309560D02*
D03*
X313300D02*
D03*
D116*
X381460Y20870D02*
D03*
Y28350D02*
D03*
X390310Y20710D02*
D03*
Y28190D02*
D03*
X281080Y72000D02*
D03*
Y79480D02*
D03*
X287800Y71970D02*
D03*
Y79450D02*
D03*
X227000Y227240D02*
D03*
Y219760D02*
D03*
X218500D02*
D03*
Y227240D02*
D03*
X210000Y219760D02*
D03*
Y227240D02*
D03*
X166030Y101150D02*
D03*
Y108630D02*
D03*
X24500Y123740D02*
D03*
X126700Y198716D02*
D03*
X136684D02*
D03*
X24500Y116260D02*
D03*
X126700Y191235D02*
D03*
X136684D02*
D03*
D117*
X438650Y78560D02*
D03*
X446130D02*
D03*
X49620Y15200D02*
D03*
X57100D02*
D03*
X438210Y121560D02*
D03*
X445690D02*
D03*
X438230Y115220D02*
D03*
X445710D02*
D03*
X192200Y162400D02*
D03*
X199680D02*
D03*
X199580Y169000D02*
D03*
X192100D02*
D03*
X204320Y169400D02*
D03*
X211800D02*
D03*
X192200Y155500D02*
D03*
X199680D02*
D03*
X211800Y155300D02*
D03*
X204320D02*
D03*
X211800Y162500D02*
D03*
X204320D02*
D03*
X297210Y146030D02*
D03*
X289730D02*
D03*
X297330Y139610D02*
D03*
X289850D02*
D03*
X372230Y87220D02*
D03*
X379710D02*
D03*
X415600Y73810D02*
D03*
X408120D02*
D03*
Y55170D02*
D03*
X415600D02*
D03*
X285680Y45900D02*
D03*
X278200D02*
D03*
X156920Y39400D02*
D03*
X156960Y46600D02*
D03*
X187300Y182040D02*
D03*
X187240Y191590D02*
D03*
X164400Y39400D02*
D03*
X156760Y31800D02*
D03*
X164240D02*
D03*
X164440Y46600D02*
D03*
X179820Y182040D02*
D03*
X179760Y191590D02*
D03*
D118*
X167555Y173402D02*
D03*
X149445D02*
D03*
X158500D02*
D03*
D119*
Y198598D02*
D03*
D120*
X191206Y126605D02*
D03*
X195142D02*
D03*
X197111D02*
D03*
X199080D02*
D03*
X201048D02*
D03*
X203016D02*
D03*
X204985D02*
D03*
X206954D02*
D03*
X208922D02*
D03*
X210891D02*
D03*
X212859D02*
D03*
Y93141D02*
D03*
X208922D02*
D03*
X206954D02*
D03*
X204985D02*
D03*
X203016D02*
D03*
X201048D02*
D03*
X199080D02*
D03*
X197111D02*
D03*
X195142D02*
D03*
X193174D02*
D03*
X191206D02*
D03*
X193174Y126605D02*
D03*
X210891Y93141D02*
D03*
D121*
X281800Y60921D02*
D03*
X285540Y53479D02*
D03*
X278060D02*
D03*
X170940Y68120D02*
D03*
X167200Y60680D02*
D03*
X163460Y68120D02*
D03*
X263260Y259559D02*
D03*
X270740D02*
D03*
X267000Y267000D02*
D03*
X437660Y43339D02*
D03*
X445140D02*
D03*
X441400Y50780D02*
D03*
X248900Y138600D02*
D03*
X245160Y146041D02*
D03*
X252640D02*
D03*
X282000Y266721D02*
D03*
X285740Y259279D02*
D03*
X278260D02*
D03*
X217760Y266441D02*
D03*
X221500Y259000D02*
D03*
X214020D02*
D03*
X232740Y266441D02*
D03*
X236480Y259000D02*
D03*
X229000D02*
D03*
D122*
X307063Y11500D02*
D03*
X277141D02*
D03*
D123*
X304307Y22238D02*
D03*
X279897D02*
D03*
D124*
X286984Y22720D02*
D03*
X289543D02*
D03*
X292102D02*
D03*
X294661D02*
D03*
X297220D02*
D03*
D125*
X144351Y135846D02*
D03*
Y150414D02*
D03*
X135689Y135846D02*
D03*
Y150414D02*
D03*
D126*
X150390Y139971D02*
D03*
Y146408D02*
D03*
X201550Y72501D02*
D03*
Y78939D02*
D03*
X235570Y77842D02*
D03*
Y84279D02*
D03*
X230420Y84109D02*
D03*
Y77671D02*
D03*
X372810Y21231D02*
D03*
Y27668D02*
D03*
X195850Y72512D02*
D03*
Y78948D02*
D03*
X190880Y79018D02*
D03*
Y72581D02*
D03*
X349080Y20932D02*
D03*
Y27369D02*
D03*
X431170Y43420D02*
D03*
Y49857D02*
D03*
X311590Y146650D02*
D03*
Y153087D02*
D03*
X304950Y146720D02*
D03*
Y153157D02*
D03*
X159790Y108299D02*
D03*
Y101862D02*
D03*
X278200Y253018D02*
D03*
Y246582D02*
D03*
X228900Y245563D02*
D03*
Y252000D02*
D03*
X170290Y46448D02*
D03*
Y40012D02*
D03*
D127*
X232453Y59736D02*
D03*
D128*
X255287Y24500D02*
D03*
X204500D02*
D03*
D129*
X403305Y118090D02*
D03*
Y113090D02*
D03*
Y108090D02*
D03*
Y103090D02*
D03*
Y98090D02*
D03*
Y93090D02*
D03*
Y88090D02*
D03*
X424250Y118090D02*
D03*
Y113090D02*
D03*
Y108090D02*
D03*
Y103090D02*
D03*
Y98090D02*
D03*
Y93090D02*
D03*
Y88090D02*
D03*
D130*
X230500Y206500D02*
D03*
Y196500D02*
D03*
Y186500D02*
D03*
Y176500D02*
D03*
Y166500D02*
D03*
D131*
X90244Y172177D02*
D03*
Y206823D02*
D03*
X110756D02*
D03*
Y172177D02*
D03*
D132*
X310380Y97825D02*
D03*
Y93495D02*
D03*
D133*
X295100Y105347D02*
D03*
X300100D02*
D03*
X305100D02*
D03*
X310100D02*
D03*
Y123653D02*
D03*
X305100D02*
D03*
X300100D02*
D03*
X295100D02*
D03*
D134*
X38091Y123776D02*
D03*
X61713D02*
D03*
D135*
X18200Y105202D02*
D03*
Y87998D02*
D03*
D136*
X56721Y39740D02*
D03*
X49279Y36000D02*
D03*
X56721Y32260D02*
D03*
D137*
X25744Y213394D02*
D03*
Y162606D02*
D03*
D138*
X77000Y186000D02*
D03*
Y171827D02*
D03*
D139*
X60980Y185441D02*
D03*
D140*
X54268Y67000D02*
D03*
X46000D02*
D03*
D141*
X15390Y72858D02*
D03*
Y61047D02*
D03*
Y55142D02*
D03*
D142*
X12437Y49630D02*
D03*
Y78370D02*
D03*
X4563Y49630D02*
D03*
Y78370D02*
D03*
D143*
X245201Y98181D02*
Y98283D01*
Y98316D01*
X244952Y98565D02*
X245201Y98316D01*
X244952Y98565D02*
Y98783D01*
X242304Y101431D02*
X244952Y98783D01*
X242304Y101431D02*
Y109129D01*
X237284Y111370D02*
X240062D01*
X313166Y81705D02*
X313415Y81954D01*
X313550D01*
X309808Y81705D02*
X313166D01*
X307500Y79397D02*
X309808Y81705D01*
X307500Y75149D02*
Y79397D01*
X308325Y70675D02*
Y74324D01*
X307500Y75149D02*
X308325Y74324D01*
X305820Y68169D02*
X308325Y70675D01*
X305820Y37558D02*
X308424Y34953D01*
Y33736D02*
Y34953D01*
X307016Y32327D02*
X308424Y33736D01*
X305820Y57966D02*
Y68169D01*
Y48714D02*
Y57966D01*
Y37558D02*
Y48714D01*
X244773Y102454D02*
X246947Y100280D01*
X247300D01*
X244773Y102454D02*
Y110152D01*
X235510Y115040D02*
X235904D01*
X237104Y113840D01*
X241085D02*
X244773Y110152D01*
X237104Y113840D02*
X241085D01*
X292147Y29172D02*
X295301Y32327D01*
X307016D01*
X292147Y22765D02*
Y29172D01*
X292102Y22720D02*
X292147Y22765D01*
X310831Y79235D02*
X313166D01*
X313415Y78986D02*
X313550D01*
X313166Y79235D02*
X313415Y78986D01*
X309970Y78374D02*
X310831Y79235D01*
X309970Y76172D02*
X310795Y75347D01*
X309970Y76172D02*
Y78374D01*
X313300Y48714D02*
Y57966D01*
Y37277D02*
Y48714D01*
X310894Y34871D02*
X313300Y37277D01*
X310795Y70675D02*
X313300Y68169D01*
Y57966D02*
Y68169D01*
X310795Y70675D02*
Y75347D01*
X310894Y32713D02*
Y34871D01*
X308039Y29858D02*
X310894Y32713D01*
X236084Y110170D02*
X237284Y111370D01*
X240062D02*
X242304Y109129D01*
X235690Y110170D02*
X236084D01*
X296324Y29858D02*
X308039D01*
X294616Y28149D02*
X296324Y29858D01*
X294616Y22765D02*
X294661Y22720D01*
X294616Y22765D02*
Y28149D01*
D144*
X228859Y110170D02*
X229253D01*
X227412Y111618D02*
X228859Y110170D01*
X223969Y111618D02*
X227412D01*
X222727Y112860D02*
X223969Y111618D01*
X220552Y112860D02*
X222727D01*
X227157Y113518D02*
X228679Y115040D01*
X224756Y113518D02*
X227157D01*
X218765Y114795D02*
X220517D01*
X218765Y112826D02*
X220517D01*
X220552Y114760D02*
X223514D01*
X224756Y113518D01*
X228679Y115040D02*
X229073D01*
X220517Y114795D02*
X220552Y114760D01*
X220517Y112826D02*
X220552Y112860D01*
X171330Y119520D02*
X179992Y110857D01*
X185300D01*
X153270Y119520D02*
X171330D01*
X136791Y152963D02*
Y156305D01*
X136973Y157280D01*
X135689Y150414D02*
X136791Y152963D01*
X138341Y158255D02*
X139680Y162700D01*
X136973Y157280D02*
X138341Y158255D01*
X155110Y139154D02*
Y160450D01*
X139680Y162700D02*
X152860D01*
X155110Y160450D01*
X143719Y128670D02*
X144351Y129302D01*
Y135846D01*
X144018Y128772D02*
X153270Y119520D01*
X155110Y139154D02*
X181438Y112826D01*
X185300D01*
X143719Y128670D02*
X144112D01*
X158980Y108889D02*
X185300D01*
D145*
X61713Y123776D02*
X64118Y123339D01*
X90244Y206823D02*
Y219614D01*
X110130Y239500D01*
X264000Y354500D02*
Y369000D01*
X258500Y349000D02*
X264000Y354500D01*
X214500Y349343D02*
Y369000D01*
Y349343D02*
X215000Y348843D01*
Y348500D02*
Y348843D01*
D146*
X113000Y84449D02*
D03*
X120224D02*
D03*
X109388Y80837D02*
D03*
X116612D02*
D03*
X123837D02*
D03*
X113000Y77224D02*
D03*
X120224D02*
D03*
X109388Y73612D02*
D03*
X116612D02*
D03*
X123837D02*
D03*
X113000Y70000D02*
D03*
X120224D02*
D03*
D147*
X214500Y369000D02*
D03*
X194500D02*
D03*
X264000D02*
D03*
X244000D02*
D03*
X23500Y371000D02*
D03*
Y351000D02*
D03*
D148*
X365363Y69907D02*
D03*
X379537D02*
D03*
Y55733D02*
D03*
D149*
X343550Y117821D02*
D03*
Y111916D02*
D03*
Y106010D02*
D03*
Y100104D02*
D03*
Y94199D02*
D03*
Y88293D02*
D03*
D150*
X44445Y361500D02*
D03*
X162555D02*
D03*
X257358Y113800D02*
D03*
X277043D02*
D03*
X24158Y308500D02*
D03*
X25000Y258500D02*
D03*
X43843Y308500D02*
D03*
X44685Y258500D02*
D03*
X25000Y36342D02*
D03*
Y16657D02*
D03*
X90445Y318240D02*
D03*
X169185D02*
D03*
X149500Y239500D02*
D03*
X110130D02*
D03*
D151*
X229894Y27256D02*
D03*
X41098Y169102D02*
D03*
D152*
X248791Y39854D02*
D03*
X28500Y188000D02*
D03*
D153*
X225563Y52059D02*
D03*
D154*
X270028Y221800D02*
D03*
X264122D02*
D03*
X258217D02*
D03*
X252311D02*
D03*
X246406D02*
D03*
X240500D02*
D03*
D155*
X53303Y192331D02*
D03*
D156*
X188190Y65220D02*
D03*
X313550Y81954D02*
D03*
X247300Y100280D02*
D03*
X313550Y78986D02*
D03*
X245201Y98181D02*
D03*
X423090Y49780D02*
D03*
X400700Y20760D02*
D03*
X395540Y93090D02*
D03*
Y102720D02*
D03*
X395740Y108120D02*
D03*
X395470Y113120D02*
D03*
X395610Y117860D02*
D03*
X438640Y71320D02*
D03*
X432670Y111880D02*
D03*
X194755Y137808D02*
D03*
X189250Y137819D02*
D03*
X237420Y244380D02*
D03*
X209740Y71820D02*
D03*
X197070Y65240D02*
D03*
X191830Y65210D02*
D03*
X232364Y95640D02*
D03*
X225030Y84150D02*
D03*
X216480Y76890D02*
D03*
X209740Y76800D02*
D03*
X209620Y82440D02*
D03*
X238160Y95860D02*
D03*
X173530Y99046D02*
D03*
X65540Y67930D02*
D03*
X65430Y62680D02*
D03*
X184142Y85091D02*
D03*
X216160Y137819D02*
D03*
X199300D02*
D03*
X205690D02*
D03*
X210610D02*
D03*
X267660Y209880D02*
D03*
X282260Y166690D02*
D03*
X290490Y167070D02*
D03*
X260020Y209510D02*
D03*
X316730Y123080D02*
D03*
X310870Y139490D02*
D03*
X252080Y209190D02*
D03*
X155900Y124500D02*
D03*
X258000Y250820D02*
D03*
X64300Y21100D02*
D03*
X27300Y72400D02*
D03*
D157*
X309660Y40930D02*
D03*
M02*
