G04*
G04 #@! TF.GenerationSoftware,Altium Limited,Altium Designer,21.6.4 (81)*
G04*
G04 Layer_Physical_Order=3*
G04 Layer_Color=128*
%FSLAX25Y25*%
%MOIN*%
G70*
G04*
G04 #@! TF.SameCoordinates,B0EADD32-72DF-464D-AA4A-4A4E6069522B*
G04*
G04*
G04 #@! TF.FilePolarity,Negative*
G04*
G01*
G75*
%ADD17C,0.00500*%
%ADD18C,0.03000*%
%ADD158C,0.00800*%
%ADD159C,0.04000*%
%ADD161C,0.12890*%
%ADD163C,0.07969*%
%ADD164C,0.09425*%
%ADD165C,0.10331*%
%ADD166C,0.09937*%
%ADD168C,0.14268*%
%ADD171O,0.11906X0.10724*%
G04:AMPARAMS|DCode=172|XSize=84.252mil|YSize=84.252mil|CornerRadius=0mil|HoleSize=0mil|Usage=FLASHONLY|Rotation=0.000|XOffset=0mil|YOffset=0mil|HoleType=Round|Shape=Relief|Width=15mil|Gap=10mil|Entries=4|*
%AMTHD172*
7,0,0,0.08425,0.06425,0.01500,45*
%
%ADD172THD172*%
%ADD173C,0.11118*%
%ADD176O,0.10724X0.11906*%
%ADD177C,0.09543*%
%ADD178C,0.09150*%
%ADD179C,0.07181*%
G04:AMPARAMS|DCode=180|XSize=63.779mil|YSize=63.779mil|CornerRadius=0mil|HoleSize=0mil|Usage=FLASHONLY|Rotation=0.000|XOffset=0mil|YOffset=0mil|HoleType=Round|Shape=Relief|Width=15mil|Gap=10mil|Entries=4|*
%AMTHD180*
7,0,0,0.06378,0.04378,0.01500,45*
%
%ADD180THD180*%
%ADD181C,0.07378*%
%ADD182C,0.06787*%
%ADD183O,0.17811X0.09937*%
%ADD184O,0.10724X0.17811*%
G04:AMPARAMS|DCode=185|XSize=101.181mil|YSize=101.181mil|CornerRadius=0mil|HoleSize=0mil|Usage=FLASHONLY|Rotation=0.000|XOffset=0mil|YOffset=0mil|HoleType=Round|Shape=Relief|Width=15mil|Gap=10mil|Entries=4|*
%AMTHD185*
7,0,0,0.10118,0.08118,0.01500,45*
%
%ADD185THD185*%
%ADD186O,0.17811X0.10724*%
%ADD187O,0.09937X0.17811*%
G04:AMPARAMS|DCode=188|XSize=81.496mil|YSize=81.496mil|CornerRadius=0mil|HoleSize=0mil|Usage=FLASHONLY|Rotation=0.000|XOffset=0mil|YOffset=0mil|HoleType=Round|Shape=Relief|Width=15mil|Gap=10mil|Entries=4|*
%AMTHD188*
7,0,0,0.08150,0.06150,0.01500,45*
%
%ADD188THD188*%
D17*
X78000Y45000D02*
X148000D01*
Y18000D02*
Y45000D01*
X78000Y18000D02*
X148000D01*
X78000D02*
Y45000D01*
X328000Y56000D02*
Y57000D01*
Y58000D01*
Y59000D02*
X329000D01*
Y57000D02*
Y58000D01*
Y55000D02*
Y56000D01*
X327000Y55000D02*
X328000D01*
X327000Y56000D02*
Y57000D01*
Y58000D02*
Y59000D01*
D18*
X328000Y41000D02*
Y53000D01*
Y61000D02*
Y73000D01*
D158*
X178020Y47360D02*
X236120D01*
X178020D02*
Y54780D01*
X78820D02*
X178020D01*
X76900Y56700D02*
X78820Y54780D01*
X76900Y56700D02*
Y72080D01*
X236120Y47360D02*
X236700Y61780D01*
X91350Y62490D02*
X236700Y61780D01*
X90880Y88880D02*
X91350Y62490D01*
X339200Y122470D02*
X366490Y122130D01*
X367160Y83780D01*
X352550Y58010D02*
X367160Y83780D01*
X352460Y18470D02*
X352550Y58010D01*
X352460Y18470D02*
X394880Y19150D01*
X395550Y5210D01*
X337930Y5370D02*
X395550Y5210D01*
X337930Y5370D02*
X339200Y78880D01*
X351700Y78620D01*
X352720Y115040D01*
X339200Y114950D02*
X352720Y115040D01*
X339200Y114950D02*
Y122470D01*
X90300Y141480D02*
X90730Y119720D01*
X90300Y141480D02*
X138004Y168004D01*
X69890Y146530D02*
X71300Y147000D01*
X69360Y87390D02*
X69890Y146530D01*
X43230Y87970D02*
X69360Y87390D01*
X43230Y87970D02*
X43820Y79350D01*
X43010Y26360D02*
X43820Y79350D01*
X11050Y25530D02*
X43010Y26360D01*
X10790Y7380D02*
X11050Y25530D01*
X10790Y7380D02*
X59550Y7860D01*
X60410Y72230D01*
X76900Y72080D01*
X30700Y140700D02*
X50100D01*
X26700Y136700D02*
X30700Y140700D01*
X78600Y196700D02*
X79000Y196300D01*
X60000Y196700D02*
X78600D01*
X193524Y254129D02*
X193700Y285400D01*
X79000Y192716D02*
X193524Y254129D01*
X222900Y272700D02*
Y283200D01*
X220600Y285500D02*
X222900Y283200D01*
X199500Y285500D02*
X220600D01*
X71300Y147000D02*
X137427Y184309D01*
X90880Y88880D02*
Y120880D01*
X137427Y184309D02*
X138004Y168004D01*
X204821Y237897D02*
X265714Y262315D01*
X265200Y272700D02*
X265714Y262315D01*
X265000Y287100D02*
X265200Y272700D01*
X251900Y287100D02*
X265000D01*
X251900D02*
X252000Y271800D01*
X222900Y271600D02*
X252000Y271800D01*
X222900Y271600D02*
Y272700D01*
X193700Y285400D02*
X199500Y285500D01*
X50100Y140700D02*
X204821Y237897D01*
X26700Y122600D02*
Y136700D01*
X18200Y114100D02*
X26700Y122600D01*
X5400Y114100D02*
X18200D01*
X5200Y114300D02*
X5400Y114100D01*
X5200Y114300D02*
Y148900D01*
X18350Y162050D01*
X54250D01*
X60000Y167800D01*
Y196700D01*
X79000Y192716D02*
Y196300D01*
X166900Y205800D02*
Y205900D01*
D159*
X0Y0D02*
Y393000D01*
X500Y393500D01*
X323000D01*
Y70500D02*
Y393500D01*
Y70500D02*
X333500D01*
Y130000D01*
X456000D01*
Y0D02*
Y130000D01*
X333500Y0D02*
X456000D01*
X333500D02*
Y43500D01*
X323000D02*
X333500D01*
X323000Y0D02*
Y43500D01*
X0Y0D02*
X323000D01*
D161*
X214500Y369000D02*
D03*
X194500D02*
D03*
X264000D02*
D03*
X244000D02*
D03*
X23500Y371000D02*
D03*
Y351000D02*
D03*
D163*
X365363Y69907D02*
D03*
X379537D02*
D03*
Y55733D02*
D03*
D164*
X343550Y117821D02*
D03*
Y111916D02*
D03*
Y106010D02*
D03*
Y100104D02*
D03*
Y94199D02*
D03*
Y88293D02*
D03*
X270028Y221800D02*
D03*
X264122D02*
D03*
X258217D02*
D03*
X252311D02*
D03*
X246406D02*
D03*
D165*
X44445Y361500D02*
D03*
X162555D02*
D03*
D166*
X257358Y113800D02*
D03*
X277043D02*
D03*
X24158Y308500D02*
D03*
X25000Y258500D02*
D03*
X43843Y308500D02*
D03*
X44685Y258500D02*
D03*
X90445Y318240D02*
D03*
X169185D02*
D03*
X149500Y239500D02*
D03*
X110130D02*
D03*
D168*
X229894Y9539D02*
D03*
X10784Y188000D02*
D03*
D171*
X225563Y52059D02*
D03*
D172*
X240500Y221800D02*
D03*
D173*
X245000Y278500D02*
D03*
X215000Y318500D02*
D03*
X245000Y338500D02*
D03*
X215000Y348500D02*
D03*
X288600Y278700D02*
D03*
X258600Y318700D02*
D03*
X288600Y338700D02*
D03*
X258600Y348700D02*
D03*
D176*
X53303Y192331D02*
D03*
D177*
X8500Y69906D02*
D03*
Y58095D02*
D03*
D178*
X25000Y36342D02*
D03*
D179*
X188190Y65220D02*
D03*
X313550Y81954D02*
D03*
X247300Y100280D02*
D03*
X313550Y78986D02*
D03*
X245201Y98181D02*
D03*
X423090Y49780D02*
D03*
X400700Y20760D02*
D03*
X395540Y93090D02*
D03*
Y102720D02*
D03*
X395740Y108120D02*
D03*
X395470Y113120D02*
D03*
X395610Y117860D02*
D03*
X438640Y71320D02*
D03*
X432670Y111880D02*
D03*
X194755Y137808D02*
D03*
X189250Y137819D02*
D03*
X237420Y244380D02*
D03*
X209740Y71820D02*
D03*
X197070Y65240D02*
D03*
X191830Y65210D02*
D03*
X232364Y95640D02*
D03*
X225030Y84150D02*
D03*
X216480Y76890D02*
D03*
X209740Y76800D02*
D03*
X209620Y82440D02*
D03*
X238160Y95860D02*
D03*
X173530Y99046D02*
D03*
X65540Y67930D02*
D03*
X65430Y62680D02*
D03*
X184142Y85091D02*
D03*
X216160Y137819D02*
D03*
X199300D02*
D03*
X205690D02*
D03*
X210610D02*
D03*
X267660Y209880D02*
D03*
X282260Y166690D02*
D03*
X290490Y167070D02*
D03*
X260020Y209510D02*
D03*
X316730Y123080D02*
D03*
X310870Y139490D02*
D03*
X252080Y209190D02*
D03*
X155900Y124500D02*
D03*
X258000Y250820D02*
D03*
X64300Y21100D02*
D03*
X27300Y72400D02*
D03*
D180*
X180790Y168650D02*
D03*
Y171870D02*
D03*
Y175540D02*
D03*
X229110Y145880D02*
D03*
X236170Y146030D02*
D03*
X295550Y79730D02*
D03*
X309660Y40930D02*
D03*
X342520Y11540D02*
D03*
Y16050D02*
D03*
X132400Y176300D02*
D03*
X132440Y170100D02*
D03*
X169180Y17680D02*
D03*
X164220Y17570D02*
D03*
X298160Y152980D02*
D03*
X54600Y48100D02*
D03*
X54500Y55800D02*
D03*
X9400Y118300D02*
D03*
X14400D02*
D03*
X64300Y189500D02*
D03*
D181*
X314210Y87420D02*
D03*
X310670Y87330D02*
D03*
X307220Y87300D02*
D03*
X182320Y14760D02*
D03*
X182370Y10630D02*
D03*
X182420Y6870D02*
D03*
X10040Y135660D02*
D03*
X10120Y139540D02*
D03*
X10190Y143160D02*
D03*
X157900Y217460D02*
D03*
X154750D02*
D03*
X151780Y217400D02*
D03*
X289250Y221420D02*
D03*
X286760Y221370D02*
D03*
X284450Y221420D02*
D03*
X98310Y143850D02*
D03*
X95970D02*
D03*
X93750D02*
D03*
X65618Y146370D02*
D03*
X65620Y142252D02*
D03*
X61370D02*
D03*
X57250D02*
D03*
X156820Y21530D02*
D03*
X156750Y25390D02*
D03*
X66770Y39460D02*
D03*
X66930Y34330D02*
D03*
X211960Y179710D02*
D03*
X293680Y244690D02*
D03*
X293510Y248580D02*
D03*
X293340Y251960D02*
D03*
X283450Y138360D02*
D03*
X268640Y61400D02*
D03*
Y65440D02*
D03*
Y43880D02*
D03*
X232540Y131700D02*
D03*
X229140Y131800D02*
D03*
X66420Y11940D02*
D03*
X7100Y105310D02*
D03*
X309450Y64860D02*
D03*
X395500Y80290D02*
D03*
X395540Y84750D02*
D03*
X390700Y34350D02*
D03*
X359950Y35260D02*
D03*
X366160Y35380D02*
D03*
X384750Y118650D02*
D03*
X380470Y118580D02*
D03*
X445230Y36330D02*
D03*
X384430Y111540D02*
D03*
X380720Y111500D02*
D03*
X446260Y71520D02*
D03*
X445620Y97440D02*
D03*
X269240Y18430D02*
D03*
X243560Y90230D02*
D03*
Y83080D02*
D03*
X243650Y73310D02*
D03*
X75000Y193900D02*
D03*
X71500D02*
D03*
X67900D02*
D03*
X64200D02*
D03*
D182*
X113000Y84449D02*
D03*
X120224D02*
D03*
X109388Y80837D02*
D03*
X116612D02*
D03*
X123837D02*
D03*
X113000Y77224D02*
D03*
X120224D02*
D03*
X109388Y73612D02*
D03*
X116612D02*
D03*
X123837D02*
D03*
X113000Y70000D02*
D03*
X120224D02*
D03*
D183*
X229894Y27256D02*
D03*
D184*
X248791Y39854D02*
D03*
D185*
X215000Y278500D02*
D03*
X258600Y278700D02*
D03*
D186*
X41098Y169102D02*
D03*
D187*
X28500Y188000D02*
D03*
D188*
X25000Y16657D02*
D03*
M02*
