M48
;Layer_Color=9474304
;FILE_FORMAT=2:5
INCH,LZ
;TYPE=PLATED
T1F00S00C0.00787
T2F00S00C0.01181
T3F00S00C0.01378
T4F00S00C0.01968
T5F00S00C0.03150
T6F00S00C0.03425
T7F00S00C0.03543
T8F00S00C0.03937
T10F00S00C0.04331
T12F00S00C0.05118
T13F00S00C0.06890
;TYPE=NON_PLATED
T14F00S00C0.08268
%
T01
X0109388Y0073612
X0113Y007
Y0077224
X0109388Y0080837
X0113Y0084449
X0120224
X0116612Y0080837
X0120224Y0077224
X0123837Y0080837
Y0073612
X0116612
X0120224Y007
T02
X00643Y00211
X04007Y002076
X042309Y004978
X043864Y007132
X043267Y011188
X039547Y011312
X039561Y011786
X039574Y010812
X039554Y010272
Y009309
X031355Y0081954
Y0078986
X031673Y012308
X031087Y013949
X029049Y016707
X028226Y016669
X026766Y020988
X026002Y020951
X025208Y020919
X021616Y0137819
X0232364Y009564
X023816Y009586
X0245201Y0098181
X02473Y010028
X022503Y008415
X021648Y007689
X020974Y00768
Y007182
X020962Y008244
X0184142Y0085091
X018819Y006522
X019183Y006521
X019707Y006524
X017353Y0099046
X01559Y01245
X018925Y0137819
X0194755Y0137808
X01993Y0137819
X020569
X021061
X006554Y006793
X006543Y006268
X00273Y00724
X023742Y024438
X0258Y025082
T03
X00546Y00481
X006677Y003946
X006693Y003433
X006642Y001194
X015682Y002153
X015675Y002539
X016422Y001757
X016918Y001768
X018232Y001476
X018237Y001063
X018242Y000687
X026924Y001843
X026864Y004388
X030966Y004093
X035995Y003526
X036616Y003538
X034252Y001605
Y001154
X03907Y003435
X044523Y003633
X044626Y007152
X044562Y009744
X039554Y008475
X03955Y008029
X038443Y011154
X038072Y01115
X038047Y011858
X038475Y011865
X031421Y008742
X031067Y008733
X030722Y00873
X029555Y007973
X030945Y006486
X026864Y006544
Y00614
X024365Y007331
X024356Y008308
Y009023
X023254Y01317
X022914Y01318
X022911Y014588
X023617Y014603
X028345Y013836
X029816Y015298
X021196Y017971
X018079Y017554
Y017187
Y016865
X013244Y01701
X01324Y01763
X009831Y014385
X009597
X009375
X006562Y0142252
X0065618Y014637
X006137Y0142252
X005725
X00643Y01895
X00642Y01939
X00679
X00715
X0075
X001019Y014316
X001012Y013954
X001004Y013566
X00094Y01183
X00144
X00071Y010531
X00545Y00558
X015178Y02174
X015475Y021746
X01579
X028445Y022142
X028676Y022137
X028925Y022142
X029368Y024469
X029351Y024858
X029334Y025196
T04
X0379537Y0055733
Y0069907
X0365363
T05
X0025Y0016657
Y0036342
T06
X034355Y0088293
Y0094199
Y0100104
Y010601
Y0111916
Y0117821
X0270028Y02218
X0264122
X0258217
X0252311
X0246406
X02405
T07
X00085Y0058095
Y0069906
T08
X0257358Y01138
X0277043
X0044685Y02585
X0025
X0024158Y03085
X0043843
X0090445Y031824
X0169185
X01495Y02395
X011013
T10
X0044445Y03615
X0162555
T12
X0215Y02785
X0245
X02586Y02787
X02886
Y03387
X02586Y03487
X0245Y03385
X02586Y03187
X0215Y03185
Y03485
T13
X00235Y0351
X02145Y0369
X0244
X0264
X01945
X00235Y0371
T14
X0229894Y0009539
X0010784Y0188
M30
